<?xml version="1.0" encoding="UTF-8"?>
<svg id="_圖層_2" data-name="圖層 2" xmlns="http://www.w3.org/2000/svg" viewBox="0 0 861.62 796.92">
  <defs>
    <style>
      .cls-1 {
        fill: #e1a442;
      }
    </style>
  </defs>
  <g id="_圖層_5" data-name="圖層 5">
    <g>
      <path class="cls-1" d="M552.35,406.42l-1.09,.38-.42,1.08c-3.32,8.6-3.09,16.12,.67,22.37,7.37,12.22,25.69,14.84,27.48,15.07,2.61,.54,5.06,.8,7.36,.8,5.47,0,10.04-1.52,13.64-4.54,8.41-7.04,8.15-19.57,8.13-20.1l-.03-.98-.68-.7c-23.5-24.07-54.75-13.5-55.07-13.39Zm44.41,31.34c-2.61,2.18-6.02,3.27-10.16,3.32,3.88-3.48,7.46-10.53,3.67-24.6,0,0-4.58-8.67-18.32-3.68,0,0-6.33,16.28,.66,25.98-5.61-1.68-13.11-4.97-16.81-11.12-2.77-4.59-3-10.26-.7-16.87,5.4-1.56,29.02-6.94,48.01,11.77-.12,2.73-.95,10.69-6.35,15.2Z"/>
      <path class="cls-1" d="M722.25,420.39c5.26,1.52,9.43,2.07,12.72,2.07,5.24,0,8.24-1.4,9.82-2.55,.77-.56,1.35-1.32,1.7-2.22h0c5.95-15.61-3.66-24.05-6.75-26.27-1.38-.99-3.16-1.16-4.64-.44-10.92,5.28-14.96,18.24-16.19,23.56-.59,2.57,.87,5.13,3.33,5.84Zm14.77-24.77c3.09,2.28,9.26,8.59,4.81,20.27-.67,.47-3.48,2.06-9.99,1.38,.8-1.03,1.47-2.6,1.75-5.01,0,0,1.7-5.98-.72-10.44,0,0-.83-.94-2.6-.5,1.78-2.28,4-4.31,6.75-5.7Z"/>
      <path class="cls-1" d="M522.84,373.9c2.19,1.2,4.63,1.84,7.13,1.9,10.83,.24,44.68,1.79,63.15,11.57,0,0,19.52,9.06,30.97,10.58,0,0,12.65,3.61,25.29-4.9,0,0,2.32-29.94-21.86-35.1,0,0-24.2-1.03-50.66,8.26,0,0-26.58,4.97-38.71-3.84,0,0-14.19-10.35-14.71-20.16,0,0-3.1,10.39,4.39,20.16,0,0-15.23-4.68-20.65-20.16,0,0-7.98,18.77,15.66,31.7Z"/>
      <path class="cls-1" d="M165.93,121.17c.62,.47,1.43,.62,2.18,.41,.49-.14,48.89-13.51,79.56-10.25,1.41,.94,5.13,3.05,14.23,6.67,.85,.34,1.81,.18,2.51-.4,.7-.58,1.03-1.51,.86-2.4-.09-.5-2.15-12.28,12.23-17.63,.93-.37,22.98-8.76,46.52,8.47,10.92,7.99,37.62,23.02,46.22,25.42,6.04,1.69,12.44,2.42,18.96,2.42,20.58,0,42.25-7.32,56.92-15.1,1.25-.59,16.74-8.02,33.15-21.86,1.03-.87,2.04-1.75,3.03-2.64,1.04,.15,2.2-.32,2.72-1.62,.17-.43,.32-.87,.48-1.3,18.54-17.51,29.44-37.22,31.65-57.39,0-.06,.01-.13,.01-.19,0-.26,.53-26.47-26.38-33.09-.44-.09-5.55-1.09-13.22-.47-1.94-.05-3.88-.04-5.82,.06-.78,.04-1.3,.45-1.55,.97-7.86,1.57-17.2,4.95-26.66,11.84-.1,.07-.19,.15-.27,.23-.32,.32-32.87,31.78-68.55,41.17-.21,.05-20.9,4.55-58.67-23.96-.5-.38-12.49-9.3-31.62-12.9-17.61-3.31-44.79-2.5-74.28,20.19-1.3,.82-11.97,7.73-22.71,20.65-10.38,12.49-22.7,33.16-22.5,60.71,0,.78,.37,1.51,1,1.98Zm94.15-9.31c.05-.03,.1-.06,.15-.09,0,.05,0,.1-.01,.15-.05-.02-.09-.04-.14-.06Zm63.44-55.3c.02,.08,.03,.16,.05,.24,0,1.65,0,3.3,.03,4.94,0,.22,.01,.44,.02,.66-.14,0-.28,0-.43,0,0-2,.06-3.99,.21-5.98,.05-.63,.11-1.27,.17-1.9,0,.3,0,.6,0,.9-.11,.33-.14,.7-.05,1.12Zm11.88,51.07c.09-.06,.17-.13,.25-.2,.29,.31,.59,.61,.89,.92-.38-.24-.76-.48-1.14-.71Zm60.45,20.87c.44-.03,.87-.08,1.31-.15,.04,.02,.08,.05,.11,.08,.05,.03,.11,.05,.16,.08-.52,.05-1.04,.09-1.56,.13,0-.05-.01-.09-.02-.14Zm7.02-.64c.11-.14,.23-.27,.32-.43,.15,.11,.3,.21,.45,.32-.26,.04-.51,.08-.77,.12ZM484.1,5.21c-.04-.05-.08-.1-.13-.15,.07,0,.13,0,.2,0-.02,.05-.05,.1-.07,.15Zm3.95,76.26s.06,.02,.09,.03c-.04,.04-.08,.09-.12,.13,0-.05,.02-.11,.03-.16Zm-41.43-64.44c5.08-3.68,10.15-6.26,14.94-8.06,3.8,3.83,6.54,8.49,8.83,13.35,2.42,5.14,4.46,10.48,6.43,15.81,4.06,11.01,7.32,22.52,7.15,34.35,0,.45-.03,.9-.05,1.35-.94,4.95-1.94,9.9-2.98,14.83-17.84,16.49-36.66,25.46-37.01,25.62-.04,.02-.08,.04-.11,.06-1.49,.79-3.05,1.57-4.68,2.34-.97-13.56-3.94-26.76-7.86-39.7-1.79-12.49-3.6-24.98-5.49-37.46,.28-1.98,.56-3.96,.84-5.95,11.27-8.24,18.76-15.35,19.98-16.54Zm-38.24,28.55s0,.03,.01,.05c-.05-.02-.11-.02-.17-.04,.05-.03,.1-.06,.14-.08,0,.02,0,.05,.01,.07Zm14.97-9.66c-.03,.17-.07,.33-.1,.5-.3,.03-.6,.11-.87,.25,0-.02-.02-.03-.03-.04,.34-.23,.67-.47,1-.7Zm-47.41,23.42c10.65-2.8,20.91-7.4,30.17-12.56-.08,.31-.1,.64-.05,.97,1.53,10.73,3.47,21.29,8.57,30.99,3.53,6.7,8.03,12.81,11.98,19.25,.12,.59,.23,1.18,.35,1.77,.17,.87,.84,1.39,1.61,1.55,.28,.49,.57,.98,.83,1.47,2.46,4.57,4.38,9.4,5.23,14.53,.08,.49,.31,.86,.61,1.12-8.4,3.65-18.18,6.86-28.27,8.73,.54-.9,.37-1.92-.31-2.73-3.22-3.83-6.23-7.84-9.04-11.97-1.51-3.15-2.87-6.38-4.21-9.6-3.72-8.96-6.82-18.12-9.64-27.4-.73-2.42-3.96-1.76-4.2,.57-.93,9.05-1.9,18.35-.22,27.37,.54,2.89,1.4,5.64,2.5,8.32,1.57,5.29,3.82,10.37,6.73,15.05,.13,.42,.25,.84,.36,1.27,.13,.54,.55,.76,.97,.76,.02,.02,.03,.05,.05,.07-6.33,.05-12.54-.62-18.38-2.25-3.17-.88-9.68-3.99-16.99-7.89-1.48-2.18-3.19-4.22-5.03-6.09-.03-.03-.06-.06-.08-.08-.01-.51-.22-1.01-.69-1.42-.43-.38-.85-.77-1.28-1.15-1.17-2.11-2.34-4.21-3.38-6.4-1.77-3.72-3.33-7.53-4.67-11.43-2.07-6.01-3.66-12.21-4.7-18.49-.01-3.73,.26-7.47,.87-11.14,.44-2.67,1.04-5.33,1.79-7.93,.37-1.3,.78-2.6,1.24-3.87,0-.01,0-.02,.01-.03,23.68,11.8,36.56,8.81,37.27,8.63Zm14.14,49.59c-.18-.05-.37-.06-.55-.06-.17-.57-.34-1.14-.5-1.71,.35,.59,.7,1.18,1.05,1.77Zm-56.91-61.04s-.02-.06-.02-.1c.02,.01,.05,.03,.07,.04-.02,.02-.03,.04-.05,.06Zm-20.14-13.36c3.12,2.36,6.12,4.48,9.02,6.42-3.18,9.01-3.8,18.7-3.09,28.18,.36,4.82,1.01,9.64,1.88,14.39,.77,4.19,1.8,8.36,3.44,12.3,1.04,2.49,2.31,4.86,3.88,7.03-.41-.29-.81-.58-1.19-.85-7.85-5.74-15.56-8.87-22.53-10.43,0,0,0-.02,0-.03-.24-.55-.8-.79-1.29-1.08-.37-.22-.73-.43-1.1-.66-.37-.23-.75-.47-1.12-.71-.11-.24-.24-.48-.42-.69-.32-.41-.63-.83-.95-1.24-4.5-6.25-6.37-14.32-8.51-21.56-2.48-8.39-4.7-16.86-6.73-25.36-.08-.55-.15-1.1-.23-1.65-.74-4.81-1.62-9.59-2.64-14.35-.12-.57-.47-.98-.91-1.23,0-.03-.01-.06-.02-.08-.07-.38-.28-.7-.56-.95,1.1,.16,2.2,.33,3.3,.54,18.04,3.34,29.65,11.93,29.76,12.02Zm-35.48-12.86c-.27,.15-.5,.33-.67,.56-.04-.22-.09-.43-.13-.65,.27,.03,.54,.06,.8,.09Zm-4.26-.37c.48,6.08,1.22,12.15,1.68,18.24,.26,3.47,.45,6.94,.58,10.42-.04-.04-.07-.09-.11-.13-1.33-1.5-4.16,.08-3.45,2.01,2.33,6.31,4.5,12.68,6.73,19.01,1.44,4.08,3.34,8.47,3.84,12.9-.06,1.95-.15,3.9-.25,5.85-.03,.6,.18,1.08,.52,1.45-4.21,.75-6.8,1.75-7.11,1.87-6.06,2.26-9.79,5.53-12.07,8.91-.18-.22-.37-.43-.62-.54-.29-.13-.6-.22-.92-.15-4.01-6.22-7.75-12.61-11.18-19.17-5.66-12.76-10.69-25.81-14.63-39.18-1.29-4.36-2.41-8.96-2.72-13.54,12.97-6.08,26.25-8.74,39.71-7.93Zm-90.98,53.2c-.02,.09-.05,.19-.07,.28-.04,0-.07,0-.11,0,.06-.1,.11-.2,.17-.29Zm-3.02,5.47c6.24,10.04,13.69,19.46,21.72,28.11,1.42,1.53,4.24-.05,3.57-2.08-2.3-6.9-4.23-13.91-5.81-21.01,1.16,2.22,2.4,4.39,3.73,6.51,.65,1.04,2.39,1.51,3.28,.42,1.83-2.24,1.4-4.79,.56-7.35-1-3.04-2.01-6.08-3.01-9.12-1.98-6-3.96-12.01-5.95-18.01-.21-.64-.6-1.06-1.05-1.29,8.77-9.2,16.39-14.02,16.57-14.13,.07-.04,.15-.09,.21-.15,3.16-2.43,6.34-4.65,9.54-6.65,.24,2.45,.65,4.89,1.36,7.24,.89,2.93,1.98,5.8,3.06,8.66,.53,1.39,1.06,2.77,1.59,4.16,1.17,4.16,2.4,8.31,3.71,12.43,3.4,10.67,7.24,21.23,11.59,31.55,1.04,2.47,2.19,4.86,3.61,7.06-27.29-2.69-66.16,6.64-77.58,9.61,.42-13.85,4.18-25.86,9.31-35.94Zm17.92-9.65c.48,1.46,.97,2.91,1.45,4.37,.03,.08,.05,.17,.08,.25-.46-1.16-.89-2.33-1.3-3.5-.07-.37-.15-.74-.23-1.11Z"/>
      <path class="cls-1" d="M375.59,465.7c.41-.68,.46-1.48,.23-2.23-.41-1.28-1.72-2.23-2.63-3.17-.09-.09-.18-.19-.27-.28-.15-.54-.52-1.05-.94-1.35-.44-.32-.87-.65-1.3-.98-.04-.04-.08-.08-.12-.12-1.78-1.8-3.6-3.58-5.54-5.21-.11-.09-.23-.18-.34-.28-.31-.35-.61-.7-.92-1.06-.94-1.08-1.88-2.54-3.13-3.29-2.4-1.44-4.62,.41-5,2.83-.16,1.07-.06,2.07-.02,3.14,.05,1.51-.2,2.98-.6,4.43-.75,2.69-1.95,5.23-2.98,7.81-1.09,2.72-1.84,5.47-2.26,8.37-.93,6.45-1.23,13.02-1.34,19.53-.05,3.18-.02,6.35,.08,9.53-.29,2.86-.46,5.73-.51,8.61-.03,1.66-.01,3.32,.04,4.99,.04,1.5-.12,3.3,1.14,4.3-.01,.17,0,.35-.02,.52-.18,2.35,3.84,2.94,4.17,.56,.43-3.12,.32-6.27,.18-9.43,.4-6.74,1.53-13.42,3.36-19.9,.98-1.9,2.06-3.76,3.11-5.59,2-3.49,4.1-6.94,6.32-10.3,2.28-3.46,4.71-6.83,7.2-10.14,.15,0,.3-.02,.45-.06,.22-.06,.43-.16,.62-.28,.45-.35,.53-.41,.23-.18,.34-.2,.6-.47,.8-.8Z"/>
      <path class="cls-1" d="M845.72,445.9c-10.3,8.55-21.46,14.91-33.15,19.35-.06-.47-.14-.94-.22-1.42-.19-1.08-1.07-1.92-2.16-2.05-1.09-.13-2.14,.46-2.59,1.47-.61,1.37-1.33,2.87-2.14,4.43-.9,.28-1.8,.55-2.71,.81,1.27-3.4,2.41-7.08,3.26-10.99,9.83-5.71,18.84-12.91,26.61-21.1,11.19-11.61,20.35-25,27.53-39.25-8.63,13.42-18.37,26.09-29.74,37.04-2.77,2.82-6.92,6.25-9.93,8.83-2.72,1.98-5.5,4.27-8.33,6.07,0,0-4.93,3.22-4.93,3.22-.1,.06-.21,.12-.31,.18,.73-5.04,.94-10.38,.36-15.89,10.76-8.88,19.46-20.06,25.25-33.36-6.75,11.09-14.96,21.19-25.03,29.09-.24,.19-.49,.37-.73,.56-.18-1.08-.39-2.16-.64-3.25-.25-1.08-1.18-1.87-2.29-1.94-1.11-.05-2.13,.61-2.5,1.66-.93,2.63-2.49,6.4-4.52,10.41-8.22,5.04-17,8.95-26.14,11.93-.07-7.24-.47-14.5-1.17-21.64,2.55-35.56-13.25-57.56-15.76-60.81-.99-1.96-2.02-3.81-3.08-5.55,6.21-1.34,9.97-1.35,9.97-1.35,12.67-5.13,7.72-34.87,7.72-34.87,1.81,18.84-14.97,20.9-14.97,20.9,5.68-4.9,3.61-20.9,3.61-20.9-1.55,11.35-12.9,19.1-12.9,19.1-1.12,.7-2.49,1.27-3.98,1.74-3.19-12.98-16.3-27.29-20.28-31.4,3.13-9.38,2.6-18.55-1.58-27.27-12.05-25.19-50.21-38.06-51.83-38.6-.68-.23-1.43-.15-2.05,.22-.62,.37-1.05,.98-1.19,1.69-2.3,12.17,1.21,22.99,4.42,29.72-1.05-1.14-2.08-2.45-2.93-3.75-.65-.99-1.91-1.39-3.01-.96-1.1,.44-1.75,1.59-1.54,2.75,1.39,8,2.78,13.17,3.96,16.5-45.54-12.55-80.93-9.9-105.46-3.73-.42-.08-.88,0-1.32,.29-.04,.02-.07,.05-.11,.07-4.26,1.11-8.2,2.33-11.77,3.59-23.21,8.15-36.43,19.15-40.19,22.59-8.77-3.26-9.86-18.1-9.87-18.26-.08-1.25-1.08-2.25-2.33-2.33-4.8-.32-7.55,3.61-8.9,7.48-18.12-13.24-34.39-15.13-35.11-15.21-.04,0-.09,0-.13,0-.05,0-.11,0-.16,0-.11,0-.22,.01-.32,.03-.04,0-.08,0-.12,.02-.29,.06-.57,.16-.82,.31-.04,.02-.08,.05-.12,.08-.08,.06-.17,.12-.24,.19-.04,.03-.08,.07-.11,.11-.08,.08-.15,.17-.22,.26-.02,.02-.04,.04-.06,.07-.41,.59-10.1,14.59-12.47,35.93-2.17,19.46,1.68,48.8,31.94,78.62-.1,.55-.18,1.09-.27,1.64-.27,0-.56,.05-.78,.19-.31,.2-.57,.49-.66,.85-.08,.35-.08,.81,.14,1.1,.27,.35,.55,.71,.82,1.06-2.73,20.41-.22,38.65,.27,41.87-.1,.5-.21,1-.34,1.48-.8,.61-1.26,1.7-.79,2.6-3.76,10.46-12.84,16.72-15.93,18.59-5.19-2.6-10.31-5.75-15.28-9.53-.93-.71-2.23-.68-3.13,.08-.89,.76-1.14,2.03-.6,3.07,.45,.87,10.34,19.37,32.7,29.8-3.52-.62-8.76-2.33-16.43-6.34-1.07-.56-2.38-.28-3.12,.67-.75,.94-.71,2.28,.07,3.19,.53,.62,12.15,13.85,28.55,20.43-2.37,0-6.35-.63-12.92-2.97-1.17-.42-2.47,.09-3.05,1.19-.58,1.1-.26,2.46,.74,3.19,.23,.17,23.11,16.65,56.94,30.78,24.34,10.17,58.4,20.72,94.94,20.72,2.03,0,4.07-.04,6.12-.11-15.16,6.46-44.87,21.15-47.88,38-.79,4.45-.16,11.09,7.35,17.52,.28,.24,.58,.44,.9,.61,.42,.22,7.22,3.77,16.06,3.77,4.48,0,9.49-.91,14.45-3.63,4.86-2.66,9.01-6.68,12.45-12.03,6.14,22.8,8.25,42.57,8.4,44.01,.62,20.86,22.08,55.42,22.99,56.88,.02,.03,.04,.06,.06,.09,4.75,6.9,21.09,17.76,21.78,18.21,.05,.03,.1,.06,.15,.09,18.1,10.2,18.57,21,18.57,21.11,.06,4.19-.95,7.06-3,8.52-2.91,2.07-7.71,1.2-9.89,.53-4.2-8.93-12.98-16.61-13.45-17.03-1.04-.9-2.62-.79-3.53,.25-.9,1.04-.79,2.62,.25,3.53,.14,.12,13.56,11.87,13.92,21.55,.09,2.42-.68,4.44-2.36,6.17-4,3.27-11.75,7.61-20.11,1.56-.76-6.62-4.96-14.64-12.62-23.98-.88-1.07-2.45-1.22-3.52-.35-1.07,.88-1.22,2.45-.35,3.52,8.81,10.74,11.45,17.83,11.62,22.41,0,0,0,0,0,0,.06,1.53-.16,2.77-.51,3.78-1.54,4.38-6.12,5.68-6.91,5.87-9.65,.76-15.66-4.81-19.37-11.24,.37-1.09-.06-2.33-1.09-2.94-.18-.1-.36-.18-.55-.23-3.14-6.89-3.99-13.76-4.05-14.35-.16-1.37-1.39-2.36-2.76-2.2-1.37,.16-2.36,1.39-2.2,2.76,.53,4.66,2.04,10.84,4.87,16.6-3.52,3.85-8.69,3.49-8.93,3.47-.21-.02-.42-.01-.62,.02-12.06,1.93-23.1-30.13-26.02-41.51-.27-1.05-1.19-1.81-2.28-1.88-5.91-.34-15.32-10.13-23.49-20.71,4.22,2.39,8.85,4.18,13.31,5.5,8.82,2.62,18.08,3.57,27.26,3.55,.58,0,1.16-.02,1.74-.03,10.11,1.16,20.35,.34,29.87-3.76,1.77-.76,3.49-1.64,5.14-2.65,1.56-.95,3.63-2.02,4.56-3.66,.75-1.31,.43-2.94-.56-3.83-.05-.14-.11-.27-.19-.41-.55-.94-2.1-1.55-3.06-.8-5.5,4.25-12.3,6.22-19.17,6.66-.14-.07-.29-.13-.46-.16-2.39-.51-4.72-1.09-7.08-1.57,4.56-1.03,9-2.58,13.22-4.67,2.29-1.13,.69-4.93-1.74-4.14-15.51,5.03-32.46,3.65-47.27-2.99-4.21-1.89-8.12-4.33-12.06-6.71-1.33-.81-2.77,1.06-1.66,2.15,.06,.06,.13,.11,.19,.18-.05,.31,0,.66,.17,1.02,1.5,3.02,4.19,5.51,6.7,7.69,2.59,2.26,5.39,4.29,8.35,6.03,.9,.53,1.82,1.02,2.74,1.5-4.01-1.4-7.96-2.95-11.85-4.51-3.31-1.33-6.58-2.75-9.79-4.31-2.81-1.36-5.55-2.88-8.34-4.27-.32-.5-.63-.99-.93-1.47-.21-.34-.51-.63-.85-.83-7.06-4.16-14.88-10.72-22.61-18.18,12.03-1.43,23.86-4.34,35.1-8.89,5.74-2.32,11.26-5.3,17.2-7.11,2.84-.87,5.75-1.42,8.73-1.33,2.76,.08,5.44,.82,8.09,1.56,5.89,1.64,12.39,3.57,18.02,.11,1.79-1.1,1.22-3.45-.54-4.15l-11.99-4.78c-3.75-1.5-7.49-3.17-11.4-4.22-3.95-1.06-7.87-1.09-11.89-.45-3.89,.63-7.66,1.84-11.57,2.34-7.83,1.01-15.62-.99-23.24-2.55-3.87-.8-7.76-1.51-11.7-1.79-3.75-.27-7.5-.17-11.25-.07-4.09,.11-8.19,.25-12.28-.08-4.1-.32-8.09-1.31-11.95-2.72-.12-.04-.23-.07-.34-.08-.9-1.1-1.78-2.18-2.61-3.21,1.04,.09,1.88-.2,2.55-.86,.7-.7,.92-1.74,.57-2.66-3.55-9.32-7.72-17.75-12.22-25.35,.65-.52,1.12-1.11,1.91-1.5,1.47-.74,3.17-.87,4.79-.86,3.99,.04,7.95,.99,11.91,1.39,4.24,.43,8.51,.59,12.76,.25,4.2-.33,8.4-1.09,12.35-2.59,1.98-.76,3.92-1.65,5.74-2.74,1.85-1.11,3.5-2.49,5.3-3.68,3.99-2.64,8.42-2.56,13-1.93,4.89,.67,9.69,1.61,14.62,.79,.33-.05,.6-.18,.82-.35,.07,0,.14,.02,.21,.01,1.62-.01,2.56-1.6,2.15-3.08-.32-1.17-1.36-1.85-2.39-2.34-.99-.48-2.01-.92-3.04-1.32-.31-.12-.61-.23-.92-.34-.31-.38-.68-.71-1.07-1.02-.3-.78-1.02-1.46-1.75-1.8-.96-.44-1.92-.68-2.98-.76-.85-.07-1.7-.09-2.55,0-.36,.03-.72,.08-1.07,.15-6.15-.25-12.36,0-18.52-.01-6.61,0-13.34-.35-19.94,.26-6.33,.58-11.89,2.94-17.56,5.66-6.01,2.88-12.76,6-19.58,4.32-.61-.15-1.13-.03-1.54,.24-24.69-34.73-54.95-48.22-55.34-48.39-.1-.04-.2-.08-.3-.11-7.46-2.15-14.65-4.66-21.56-7.46,.18-.84,.18-1.72-.07-2.6,1.21-7.37,2.37-14.74,3.61-22.11,.28,.62,.58,1.24,.91,1.84,.72,1.31,2.79,.81,3.1-.48,.51-2.19,.76-4.43,.76-6.67,8.42,2.73,17.16,4.79,26.15,6.22-.74-.91-1.46-1.83-2.17-2.76-3.87-.52-7.71-1.13-11.49-1.87-4.22-.8-8.39-1.81-12.53-2.98-.16-3.61-.96-7.21-2.41-10.59-.15-.34-.36-.58-.61-.76,.33-1.07-1.23-2.16-2.04-1.17-2.88,3.52-6.91,6.09-11.54,6.79-2.14-.87-4.26-1.77-6.36-2.72l4.16,2.17c.45,.23,.91,.44,1.36,.66-.24,.02-.48,.05-.72,.06-1.82,.1-2.13,2.74-.25,3.12,2.75,.56,5.7,.9,8.41,.16,.04,.02,.09,.04,.13,.05-1.22,3.34-2.32,6.72-3.31,10.12-.51,.76-1.03,1.5-1.58,2.24-2.08,2.81-4.34,5.6-5.3,9-.64,2.26-.7,4.99,.29,7.26-20.38-9.54-38.07-21.35-52.82-33.18-.1-.51-.42-.92-.82-1.17,1.21-6.6,2.42-13.21,3.6-19.81,1.03-5.74,2.16-11.47,3.14-17.22,1.5-3.45,2.76-7,3.55-10.79,.5-2.41-2.9-3.36-3.69-1.02-.61,1.81-1.28,3.59-1.99,5.36-.09,.13-.18,.28-.25,.45-1.1,2.73-2.61,5.34-3.92,7.97-1.02,2.05-2.07,4.07-3.15,6.09-1.57,2.56-3.27,5.03-4.94,7.52-1.24,1.86-2.52,3.65-3.87,5.39-.35,.2-.62,.52-.75,.96-.59,.73-1.2,1.45-1.83,2.15-.3,.33-.36,.71-.29,1.05-4.08-3.75-7.84-7.42-11.27-10.91-3.39-3.46-6.56-6.86-9.52-10.16,.63-1.17,1.33-2.29,1.93-3.49,.67-1.33,1.3-2.66,1.92-4.01,.76-1.65,1.49-3.31,2.23-4.97,.08-.06,.16-.12,.23-.19,6.84-6.93,13.46-14.07,20.05-21.23,.52-.21,1.04-.42,1.56-.63,1.05-.42,2.26-.78,3.13-1.52,.75-.63,1.39-1.52,1.76-2.42,.78-1.89,.76-4.21,.83-6.23,.09-2.31,0-4.62-.23-6.92-.14-1.43-1.99-2.13-2.82-.76-1.53,2.54-3.01,5.1-4.43,7.71-.67,1.24-1.41,2.52-2.07,3.83-1.17,1.37-2.37,2.72-3.47,4.14-1.74,1.36-3.53,2.64-5.14,3.94-.29,.23-.55,.48-.83,.72,2.03-4.93,3.86-9.95,5.12-15.13,.49-2.01,.93-4.09,1.24-6.18,.86-1.74,1.61-3.54,2.23-5.37,.62-1.83,1.28-3.88,1.07-5.82,.58-.77,.64-1.9-.16-2.73-1.28-1.33-2.68-2.48-4.19-3.5-.7-.64-1.4-1.27-2.03-1.93-2-2.12-3.75-4.43-5.28-6.9-.94-1.51-3.38-.92-3.38,.92,0,2.28,.28,4.56,.86,6.77-.55,.66-.56,1.51-.21,2.35,2.72,6.4,3.2,13.75,1.87,20.57-.28,1.1-.57,2.2-.9,3.29-1.41,4.78-3.2,9.45-5.41,13.91-2.09,4.23-4.58,8.25-6.67,12.48-2.07,4.19-3.72,8.59-4.13,13.24-12.6-14.79-20.34-26.64-22.91-30.75,18.65-23.03,26.29-50.48,26.77-52.23,.31-1.16-.24-2.38-1.33-2.9-50.69-24.42-101.8-40.11-151.91-46.62-1.39-.18-2.72-.35-3.47-.47-.62-.39-1.38-.49-2.1-.26-1.09,.35-1.65,1.18-1.8,2-1.48,3.19-9.23,18.57-22.58,20.94-4.86,.6-12.72,.75-15.11-.79-.87-.56-2-.53-2.83,.08-1.48,1.08-35.69,27.88,17.6,141.85,.03,.07,.07,.13,.1,.2,.66,1.13,16.35,27.71,34.48,28.04,.12,0,.24,0,.35,0,7.53,0,14.23-4.48,19.91-13.29,3.25,5.54,9.47,13.98,17.93,15.8,1.12,.24,2.23,.36,3.35,.36,4.57,0,9.1-2.02,13.49-6.02,.14-.12,1.74-1.56,3.37-4.02,2.26,.73,6.4,1.84,10.84,1.84,3.5,0,7.19-.69,10.27-2.8,4.62-3.16,6.9-8.73,6.79-16.55,0-.66-.14-4.32-3.04-9.94,6.83-.28,11.16-2.43,12.86-6.41,3.03-7.09-4.06-17.39-8.05-22.37,12.32-5.02,22.46-13.21,30.69-22.45,3.7,5.77,12.81,19.21,26.98,35.15,.05,.54,.47,.93,.96,1.08,2.96,3.29,6.12,6.69,9.49,10.13,6.23,6.36,13.55,13.27,21.87,20.26,.24,.7,.87,1.16,1.54,1.29,23.07,19.11,53.75,38.65,91.06,49.43,2.77,1.26,46.56,22.05,69.69,76.24-1.7-1.34-4.01-3.37-7.06-6.42-.93-.92-2.41-.98-3.4-.13-.99,.85-1.16,2.33-.38,3.38,1.61,2.18,39.64,53.38,67.95,70.42,3.44,5.46,22.37,34.7,36.19,37.93,2.44,8.92,13.02,43.75,29.38,43.75,.51,0,1.03-.04,1.56-.11,1.44,.07,7.09,.03,11.61-3.96,4.49,6.82,11.22,12.17,20.88,12.17,.76,0,1.53-.03,2.32-.1,.09,0,.19-.02,.28-.04,.33-.07,8.1-1.7,10.74-9.07,.16-.46,.3-.93,.42-1.41,3.08,1.64,6.08,2.29,8.86,2.29,7.03,0,12.67-4.02,14.81-5.78,.06-.05,.12-.11,.18-.17,2.73-2.75,4.04-6.11,3.89-9.97-.03-.86-.15-1.72-.32-2.58,.96,.14,2.02,.24,3.14,.24,2.55,0,5.37-.51,7.75-2.2,2.41-1.71,3.96-4.3,4.67-7.67,6.92,8.79,14,13.27,21.12,13.29h.07c9.17,0,14.9-7.41,15.95-8.88,1.51-1.5,2.73-3.03,3.67-4.6,.01,0,.02,.02,.03,.03,6.22,4.06,11.62,5.42,16.08,5.42,9.18,0,14.36-5.79,14.44-5.88,.14-.16,.25-.33,.35-.52,1.18-2.36,2.1-4.62,2.81-6.8,3.42,1.14,6.53,1.71,9.33,1.71,3.29,0,6.14-.79,8.52-2.37,4.11-2.73,5.69-7.09,6.29-9.92,.47,.04,.93,.06,1.37,.06,3.27,0,5.87-1.05,7.74-3.15,5.75-6.44,1.46-20.07,.95-21.61-.07-.21-.17-.41-.29-.59-13.27-20.01-43.73-10.79-44.95-10.41-6.6,1.84-11.8,1.26-15.44-1.71-6.98-5.69-7-18.55-6.91-21.44,14.27-23.38,13.31-42.43,13.26-43.23-.06-1.03-.75-1.91-1.73-2.23-.98-.32-2.05,0-2.7,.8-2.94,3.6-5.05,4.7-6.29,4.99,14.1-20.48,6.89-51.16,6.56-52.51-.29-1.2-1.41-2-2.64-1.9-1.23,.1-2.2,1.09-2.28,2.32-.23,3.39-1.33,6.33-2.64,8.7,.33-13.35-5.8-28.36-8.71-34.68,3.16-.62,6.46-1.39,9.87-2.38,22.1-6.41,52.67-23.05,72.79-65.89,.54-1.14,.14-2.49-.92-3.17-1.06-.68-2.46-.45-3.27,.51-.13,.16-2.25,2.64-6.36,4.31,5.89-6.01,13.21-16.23,12.83-29.62,15.99-6.41,30.46-16.67,41.82-29.58,2.22-2.37,4.83-5.92,6.92-8.51-4.92,5.06-10.32,10.56-15.9,14.89Zm-254.7,277.28c.53,.19,1.06,.37,1.6,.52,.31,.08,.62,.14,.93,.2-.95-.13-1.9-.26-2.84-.42,.12-.09,.22-.19,.3-.3Zm-31.88-5.04c1.39,.59,2.79,1.16,4.19,1.72-1.97-.67-3.91-1.43-5.82-2.28-.81-.36-1.6-.76-2.39-1.16,1.34,.58,2.68,1.16,4.01,1.72Zm-5.4-55.4c.15,0,.29,0,.44-.01,.07,.23,.18,.45,.36,.64-.41-.21-.82-.43-1.22-.64,.14,0,.28,.01,.42,.01ZM251.38,446.84c-.01-.31-.07-.62-.21-.91-.79-1.7-2.1-3.04-3.24-4.52-1.09-1.42-2.16-2.86-3.2-4.31-2.12-2.97-4.13-6.02-6.05-9.13-3.83-6.21-7.3-12.64-10.34-19.28-.73-1.58-3.15-.72-3.15,.85-.01,4.56,.01,9.11,.12,13.66-.17-.18-.34-.35-.51-.52-3.67-6.11-6.98-12.43-9.89-18.95-3.9-8.76-6.92-17.81-9.87-26.93-.49-1.5-2.66-.89-2.35,.65,0,.02,0,.03,0,.05-.43,.13-.78,.49-.78,1.08,0,1.33,0,2.66,.02,3.99-.4,.42-.63,1.03-.48,1.73,.2,1.02,.41,2.03,.61,3.05,.23,5.7,.73,11.38,1.63,17.04,.33,2.06,.7,4.12,1.1,6.17-.32,.63-.33,1.43,.22,2.12,.1,.12,.2,.25,.3,.37,1.2,5.59,2.68,11.12,4.5,16.53,1.56,4.66,3.23,9.4,5.37,13.83,.77,1.59,3.56,.86,3.4-.92-.25-2.74-.16-5.54-.2-8.3,0-.41,0-.81-.02-1.22,2.53,5.26,5.12,10.49,7.74,15.71,.45,.9,.94,1.81,1.45,2.71-.08,.36-.04,.76,.19,1.18,.33,.6,.69,1.18,1.08,1.74,.25,.62,.5,1.24,.76,1.85,.52,1.2,.98,2.42,1.51,3.61,.24,.54,.51,1.08,.72,1.63,.02,.05,.04,.1,.05,.15-3.5,1.83-7.2,3.38-11.1,4.57-8.86,2.7-18.21,3.42-28.02,2.2,0-.99-.49-2.02-1.21-2.66-.45-.4-1.08-.51-1.66-.4-14.45-14.39-24.31-32.76-30.84-51.97-1.94-5.71-3.63-11.5-5.51-17.23-.4-1.22-2.59-1.11-2.39,.32,0,.03,0,.05,.01,.08-.34,.16-.64,.45-.81,.92-.69,1.92-.86,4.08-1.11,6.09-.17,1.32-.31,2.64-.45,3.96-.62,.42-1.05,1.17-.91,2.14,.14,.97,.27,1.95,.41,2.92-.29,3.25-.52,6.51-.64,9.78-.3,8.25,.13,16.58,1.96,24.65,.46,2.03,.99,4.13,1.64,6.19-10.92-6.36-22.27-14.62-34.02-24.8-1.04-.9-2.62-.79-3.53,.25-.9,1.04-.79,2.62,.25,3.53,40.69,35.27,77.14,48.32,108.32,38.81,.34-.1,.67-.22,1-.32,4.12,4.88,10.33,14.15,8.43,18.6-1.13,2.66-5.51,3.31-8.98,3.4-.7,.02-1.32,.32-1.76,.79-2.42-3.63-5.91-7.81-10.92-12.36-1.02-.93-2.6-.85-3.53,.17-.93,1.02-.85,2.6,.17,3.53,14.66,13.3,14.79,22.66,14.79,22.71,0,.04,0,.08,0,.12,.09,6.04-1.46,10.2-4.6,12.36-4.77,3.27-12.25,1.68-15.95,.58,.88-2.3,1.47-5,1.33-8.03-.36-7.98-5.54-15.67-15.38-22.84-1.12-.81-2.68-.57-3.49,.55-.81,1.12-.57,2.68,.55,3.49,8.53,6.21,13.02,12.59,13.33,18.96,.37,7.46-5.3,12.59-5.38,12.67-4.29,3.9-8.36,5.38-12.44,4.5-8.76-1.88-15.08-13.91-16.61-17.07,.93-3.59,1.49-8.39-.26-12.82-1.67-4.26-5.07-7.35-10.11-9.2-1.3-.47-2.73,.19-3.21,1.49-.47,1.3,.19,2.73,1.49,3.21,3.68,1.35,6.03,3.41,7.17,6.31,2.32,5.89-1.1,13.36-1.53,14.26-4.74,7.44-10.07,11.21-15.86,11.21-.08,0-.16,0-.24,0-14.86-.27-29.22-23.81-30.21-25.47-26.8-57.34-30.5-91.27-28.89-109.64,1.35-15.39,6.57-22.58,8.77-24.98,3.01,1.08,7.23,1.23,10.72,1.12,1.64,5.9,3.87,11.66,6.61,17.13,.36,.71,1.31,1.04,2.05,.84,.81-.22,1.28-.95,1.33-1.75,.39-5.68,.36-11.4,.12-17.09,0-.21-.06-.41-.14-.61,12.21-4.18,19.4-16.65,21.82-21.55,.76,.12,1.67,.23,2.75,.37,48.94,6.36,98.88,21.58,148.46,45.24-1.24,3.94-4.45,13.33-10.01,24.27-.57-.45-1.3-.68-1.96-.56-.03-.43-.19-.86-.52-1.27-3.98-4.81-8.13-9.44-11.78-14.51-3.66-5.08-6.56-10.46-9.39-16.03-.65-1.29-2.5-.56-2.52,.69-.73,.16-1.38,.82-1.16,1.78,1.87,8.28,4.78,16.4,8.81,23.89,1.27,2.36,2.64,4.66,4.1,6.91,.34,1.01,.71,2.02,1.13,3.03,1.46,3.53,3.13,7.01,5.1,10.29-3.98,6.06-8.64,12.11-14.05,17.59Zm-72.95,18.41s-.1-.03-.14-.05c0-.02,.02-.03,.02-.04,0-.02,.01-.05,.02-.07,.03,.05,.07,.11,.1,.16Zm134.23,35.91c.01,.13,.06,.24,.09,.35-.13-.12-.26-.23-.38-.35,.1,0,.19,.01,.29,0Zm490.04-28.57c-1.69,2.8-3.56,5.57-5.5,7.94,1.21-2.2,2.47-4.7,3.67-7.43,.61-.16,1.22-.34,1.83-.51Zm-6.06-2.54c-17.15,3.95-35.09,4.32-52.91,1.84,16.78,1.11,33.78-1.45,49.32-7.95,2.33-.97,4.62-2.03,6.88-3.17-.95,3.31-2.09,6.42-3.29,9.28Zm-217.61,34.64c-.08-.01-.15-.03-.23-.04,.68-.18,1.36-.35,2.03-.53-.6,.19-1.2,.38-1.81,.57Zm-8.21-1.79c-3.34-.96-6.62-2.19-9.72-3.8,0,0-1-.39-2.67-.91,26.95-3.78,53.22-9.92,76.28-16.71,.48,.42,.99,.83,1.51,1.23-20.75,7.97-42.84,15.03-65.4,20.19Zm70.79-22.45l-.27-.21c-.26-.17-.5-.35-.75-.53,5.11-1.57,10.05-3.16,14.78-4.76-4.46,1.9-9.01,3.77-13.62,5.6-.08-.06-.13-.1-.13-.1Zm20.26-7.74c.67-.24,1.35-.48,2.02-.71-.47,.13-.95,.27-1.42,.4,2.46-1.25,4.88-2.52,7.27-3.8-3.48,1.6-7.03,3.18-10.63,4.74-6.38,1.78-13.05,3.57-19.94,5.32-16.47-12.98-5.9-32.96-5.43-33.84l.05-.1c.35-.72,.73-1.39,1.13-2.03,3.98-2.91,7.8-6.03,11.35-9.39,.46-.2,.89-.37,1.29-.51,5.42,13.71,22.03,15.32,32.45,14.88-.44-2.99-2.43-10.73-6.75-13-1.9-.99-4.12-.87-6.77,.4-.21,.28-.39,.62-.46,.84,.33,.18,1.51,.62,4.86,.39,1.09-.07,2.06,.76,2.13,1.86,.08,1.1-.76,2.06-1.86,2.13-3.13,.22-7.45,.18-8.8-2.65-1.24-2.58,1.12-5.24,1.39-5.53l.24-.26,.32-.16c3.99-2.03,7.63-2.22,10.81-.55,7.12,3.74,8.81,15.65,8.88,16.15,0,.03,0,.07,0,.1,2.23-.22,3.84-.48,4.49-.6-.15-.17-.32-.22-.55-.06-.23,.16-.53-9.44,5.6-16.49,2.19-2.51,5.31-3.56,8.79-3.56h.23l.23,.05c1.26,.3,2.85,1.29,3.18,3.08,.43,2.32-1.4,4.78-5.74,7.74-.91,.62-2.16,.39-2.78-.53-.62-.91-.39-2.16,.53-2.78,2.85-1.94,3.7-3.09,3.95-3.57-2.23,.08-4.04,.86-5.55,2.37-3.54,3.56-4.26,10.08-4.41,12.61,11.19-4.17,15.76-10.68,17.42-16.54,.72,.05,1.41,.16,2.1,.34,1.26,.62,2.56,1.2,3.89,1.74,8.14,5.19,12.97,18.18,13.01,18.28,1.23,3.75,1.72,6.98,1.71,9.75-10.8,.74-21.65,.63-32.25-.09,10.51,2.08,21.29,3.05,32.06,2.9-.29,2.12-.87,3.92-1.61,5.42-9.96-1.48-19.75-4.1-29.08-7.78,1.42,.73,2.85,1.41,4.3,2.08,7.24,3.6,14.82,6.63,22.6,9.02-2.01,2.36-4.07,3.36-4.27,3.46l-.36,.2c-2.64,1.76-12.99,1.06-19.5,0l-1.22-.2-.9,.85c-6.41,6.05-15.87,8.67-15.88,8.67-22.82,5.28-35.45,.61-40.19-1.93,6.23-3.01,12.27-6.06,18.04-9.13Zm-18.36-43.67c-3.74,1.71-8.6,4.77-12.22,10.08-33.75,24.17-80.6,32.88-82.68,33.26-20.82,2.38-35.74-1.25-44.35-10.8-11.91-13.2-9.34-34.9-6.74-46.66,1.84-8.35,6.25-15.73,12.42-20.78,8.73-7.15,20.25-9.98,32.57-9.98,15.41,0,32.05,4.43,46.01,10.41,27.35,11.71,48.85,28.74,55.33,34.16-.11,.11-.22,.21-.33,.31Zm120.75-.45c-3.82,1.35-14.03,4.25-28.65,2.94-3.75-.6-11.37-2.24-18-4.84-1.37-.83-2.83-1.5-4.37-1.95-1.07-.55-2.07-1.12-2.97-1.73,0-4.1-1.03-7-1.03-7-.15-.37-.33-.72-.52-1.07,2.69-11.87,11.71-35.21,41.4-41.65,6.8,14.29,11.83,34.23,14.14,55.29Zm-29.36,34.01c6,.6,10.81,1.83,14.77,2.85,5.25,1.35,9.4,2.42,13.17,1.1,3.3-1.16,6.92-1.46,10.49-.87,.37,.06,.74,.1,1.1,.14-13.38,3.09-27.28,3.79-40.96,2.31,.66-1.63,1.16-3.46,1.44-5.53Zm30.68-1.86c-1.5,.24-2.97,.6-4.39,1.1-2.33,.82-5.66-.04-10.27-1.23-.24-.06-.5-.13-.75-.19,5.22-.78,10.39-1.84,15.49-3.19-.02,1.17-.04,2.34-.08,3.51Zm35.63-5.03c-5.14,2.7-10.5,5.04-15.97,6.97,7.33-4.94,13.1-14.6,16.68-21.97,.2-.15,.41-.29,.61-.44,.24,5.38-.3,10.57-1.32,15.44Zm-8.04-9.41c-5.12,8.27-11.9,15.62-19.03,14.45-1.18-.19-2.37-.3-3.55-.34,.04-1.53,.07-3.07,.08-4.61,3.16-.96,6.28-2.03,9.36-3.21,4.56-1.81,8.95-3.92,13.14-6.29Zm-52.87,11.97c-1.63-.27-3.37-.5-5.22-.67-.16-2.9-.74-6.13-1.93-9.75-.19-.51-2.64-7.15-7.23-13.28,4.87,1.25,8.62,1.86,9,1.92l.16,.02c2.81,.25,5.46,.36,7.95,.36,10.28,0,17.76-1.86,21.75-3.16,.57,6.49,.88,13.04,.9,19.54-8.26,2.36-16.77,3.99-25.38,5.02Zm-142.62-164.52c-.04,.06-.08,.12-.11,.18-.46,.25-.92,.5-1.36,.79,.35-.31,.71-.61,1.05-.92,.06-.06,.1-.13,.14-.2,.09,.05,.17,.12,.28,.15,0,0,0,0,0,0Zm-158.54,35.74c.64-5.92,1.9-11.26,3.37-15.87,.89,20.85,15.54,38.92,23.87,47.57-3.15,.2-5.98,.83-6.89,1.05-1.17,.28-1.97,1.35-1.91,2.55,.06,1.2,.96,2.19,2.14,2.36,4.7,.67,11.09,8.83,14.54,14.53-3.16,6.29-5.39,13.02-6.93,19.76-21.48-22.12-30.96-46.3-28.18-71.94Zm32.31,76.84s0,0,0,0c0,0,0,0,0,0,0,0,0,0,0,0Zm-.02,3.11c-.13-.32-.24-.64-.37-.96,.02-.11,.04-.23,.06-.34,.1,.43,.21,.86,.31,1.3Zm-.85,47.72c-.15-.09-.3-.18-.44-.27,.02-.06,.03-.12,.05-.18,.13,.15,.26,.31,.4,.46Zm-6.85,12.68c7.26,3.06,15.03,4.93,22.87,5.81,6.44,1.64,13.21,2.05,19.88,1.1,.9-.13,1.54-1.19,1.54-2.03,0-.98-.67-1.7-1.54-2.03-6.38-2.4-12.76-4.84-18.83-7.96-6.09-3.13-11.45-7.02-16.54-11.59-.19-.17-.38-.28-.57-.35-.52-3.76-2.37-19.11-.54-36.56,2.04,5.78,5.5,11,9.95,15.26,.33,.45,.74,.84,1.26,1.16,.31,.27,.62,.54,.93,.81,1.56,1.29,4.26-.36,3-2.32-1.31-2.05-2.52-4.16-3.61-6.33-.22-.5-.43-.99-.64-1.49-1.16-2.84-2.17-5.74-3.02-8.69-1.69-5.86-2.76-11.89-3.2-17.97-.04-.54-.25-.96-.54-1.28,1.35-4.35,3.05-8.61,5.17-12.63,.4-.75,.38-1.65-.03-2.4-.69-1.22-5.34-9.24-11.23-14.23,1.81-.03,3.41,.15,4.28,.68,1.11,.67,2.56,.37,3.32-.68s.58-2.52-.41-3.36c-.39-.33-37.94-32.89-24.99-65.77,2.12,.4,5.98,1.29,10.87,3.13-.49,3.01-.43,6.16-.56,9.19-.12,2.87-.17,5.76-.48,8.61-.18,1.64-.47,3.37-.99,5-1.7,2.16-3.44,4.29-5.12,6.45-1.45,1.86,.3,4.52,2.59,3.36,3.18-1.62,5.08-4.44,6.21-7.62,1.8-2.31,3.54-4.67,5.09-7.13,2.46-3.91,4.25-8.33,3.98-12.91,3.89,2.14,8.03,4.79,12.22,8.13,.7,.56,1.66,.7,2.49,.36,.84-.34,1.42-1.1,1.54-1.99,0-.06,.71-4.47,2.63-6.32,.97,5.78,4.2,17.68,14.59,20.05,.85,.19,1.73-.07,2.34-.68,.12-.12,11.12-11.08,32.86-19.95-.71,1.8-1.38,3.61-1.91,5.48-.84,2.94-1.5,5.92-2.02,8.93-1.05,6.03-1.6,12.16-1.55,18.28,.02,2.58,3.63,2.44,3.92,0,.29-2.5,.75-4.98,1.34-7.43,.08-.1,.16-.2,.23-.32,3.37-5.8,7.1-11.39,11.31-16.62,2.09-2.59,4.26-5.11,6.52-7.55,1.1-1.2,2.23-2.37,3.37-3.53,1.26-1.28,2.72-2.41,3.46-4.06,.1-.23,.15-.49,.15-.76,8.08-1.72,17.23-3.01,27.44-3.5-2.31,1.32-4.42,2.97-6.44,4.71-3.01,2.6-5.78,5.45-8.3,8.53-1.15,1.4-.09,3.47,1.78,3.06,7.3-1.6,13.96-5.32,20.58-8.65,1.61-.81,3.26-1.6,4.94-2.31,1.92,1.8,3.97,3.49,5.82,5.31,.63,.62,1.25,1.25,1.87,1.89,0,.05-.02,.09-.03,.14-2.44,1.21-4.74,2.69-6.94,4.41-4.54,3.54-8.43,7.92-12.24,12.21-.37,.42-.53,.92-.53,1.41-.24,.27-.49,.53-.73,.8-.87,1.02-.72,3.03,.87,3.31,3.88,.68,7.19-.99,10.6-2.63,3.33-1.61,6.76-3.02,10.27-4.21,3.04-1.03,6.14-1.9,9.28-2.62,2.84,4.06,5.41,8.31,7.66,12.72,1.13,2.22,2.13,4.48,3.08,6.76-2.66,.67-5.27,1.51-7.99,1.94-3.13,.5-6.25,.23-9.38,.54-3.21,.32-6.58,2.17-6.93,5.7-.29,2.93,2.04,5.32,4.82,5.82,3.29,.6,6.37-1.16,9.43-2.07,2.77-.82,5.62-1.37,8.47-1.79,5.83-.86,11.73-1.15,17.58-1.93,6.76-.9,13.43-2.4,19.42-5.78,2.66-1.49,.27-5.58-2.39-4.09-.18,.1-.36,.19-.54,.29-3.88-.77-7.79-.22-11.62,.65-2.77,.35-5.52,.82-8.26,1.33,.13-.41,.11-.87-.09-1.35-.48-1.75-1.34-3.44-2.08-5.09-.73-1.62-1.5-3.22-2.3-4.8-1.64-3.23-3.44-6.38-5.4-9.43-.31-.48-.64-.94-.95-1.41,.04,0,.09,0,.13-.01,4.25-.36,8.51-.41,12.76-.18,2.29,.12,3.22-3.31,1.18-4.36-1.31-.68-2.65-1.25-4.02-1.73-1.74-3.33-6.41-4.73-10-5.2-3.16-.41-6.32-.7-9.5-.89-1.01-1.15-2.03-2.29-3.08-3.4-1.42-1.49-2.87-2.94-4.46-4.25-.1-.09-.21-.18-.32-.26,3.73-.39,7.46-.79,11.18-1.17,.2-.02,.39-.07,.57-.12,9.13,1.26,18.81,3.16,29.03,5.85,6.63,5.57,12.46,11.95,16.85,19.51,.83,1.43,3.57,.94,3.35-.91-.55-4.53-1.97-8.85-4.31-12.77-1.13-1.88-2.46-3.66-3.93-5.28-.06-.07-.13-.14-.19-.21,.12-.8-.14-1.6-.82-2.14-.31-.43-1.81-2.82-3.68-10.59,2.4,1.84,5.18,3,7.87,1.88,.71-.29,1.24-.9,1.45-1.64,.21-.74,.06-1.53-.4-2.15-.1-.14-9.86-13.63-8.12-30.08,8.95,3.44,36.74,15.46,46.08,34.98,3.79,7.92,4.08,16.29,.87,24.88-.35,.93-.11,1.97,.59,2.66,.17,.16,16.68,16.49,20.04,30.13-5.56,.97-10.98,.97-10.98,.97-14.76-5.68-27.41,0-27.41,0-15.2,7.69-12.22,22.76-9.58,30.18,1.04,2.93,3.41,6.03,6.51,5.88,17.26-.84,31.71-13.15,31.71-13.15,7.61-4.22,14.54-6.81,20.19-8.42,.06,.23,.15,.46,.28,.68,.61,.97,1.2,2,1.79,3.06-28.53,6.77-39.13,28.58-42.99,41.99-9.94-6.97-30.37-5-30.37-5-23.63,1.12-27.64,13.33-28.28,18.43-7.65-6.3-28.91-22.7-55.64-34.14-12.84-5.5-56.82-21.72-83.71,.3-7.03,5.76-12.05,14.13-14.13,23.57-2.8,12.7-5.5,36.23,7.92,51.09,7.89,8.75,20.11,13.15,36.41,13.15,3.87,0,7.98-.25,12.31-.75l.14-.02c2.15-.37,43.7-7.82,77.68-29.29-2,6.15-3.84,16.39,1.36,25.78-7.57,1.25-28.03,4.07-69.82,6.48-1.63,.09-3.28,.03-5.01-.04-3.37-.13-6.85-.26-10.38,.82-16.38,5.02-53.92,13.29-89.28-1.88,2.77-1.97,6.49-5.07,9.78-9.35Zm-21.65,9.06c39.56,22.27,84.12,12.62,102.62,6.95,2.71-.83,5.63-.72,8.72-.6,1.78,.07,3.62,.14,5.49,.03,47.47-2.74,67.34-5.94,72.68-6.94,.52,.61,1.1,1.21,1.7,1.81-26.53,6.54-56.08,12.4-85.77,15.53-6.14-.9-13.3-.99-19.14,1.61-22.18,1.39-44.09,.99-64.51-2.08,.38,.22,.77,.44,1.15,.66-10.3-4.71-17.87-11.35-22.95-16.96Zm27.31,26c2.67-.84,3.65-2.38,3.88-2.84,.3-.58,.35-1.26,.16-1.89,15.74,1.95,32.22,2.32,48.86,1.5-1.29,1.45-2.39,3.18-3.24,5.26,0,0-.74,1.66-1.11,4.09-17.85,1.27-35.57,.9-52.72-1.59-2.93-1.72-5.63-3.58-7.99-5.39,5.06,1.52,9.13,1.81,12.16,.85Zm-3.75,4.78c1.43,.49,2.76,1.24,4.01,2.14-1.38-.67-2.72-1.39-4.01-2.14Zm11.78,11.86c2.22-1.57,2.33-3.67,2.33-4.07,0-1.11-.74-2.09-1.8-2.4-.64-.19-1.27-.41-1.9-.62,13.67,1.46,27.66,1.61,41.75,.64,.14,1.64,.56,3.38,1.45,5.07-14.58,2.81-29.14,4.83-43.5,5.87-1.77-1.04-3.42-2.03-4.93-2.95,2.83,.08,5.03-.42,6.6-1.53Zm201.58,42.8c.8,3.87,2.49,14.4,.2,26.29-7.74-7.84-22.5-14.98-44.57-21.61,1.73-.26,3.46-.55,5.2-.87,.09-.02,.18-.04,.27-.07,.12-.04,11.67-3.53,23.01-4.02,3.31-.07,9.67-.06,15.89,.28Zm-6.75,44.34c-.33,.53-.69,1.04-1.04,1.56-5.42,2.73-10.17,3.1-14.47,1.14-9.72-4.43-16.01-19.96-19.09-30.94,30.49,9.93,36.66,18.46,37.78,22.29-.9,2.01-1.95,4-3.17,5.96Zm-71.91,9.66c-8.84,4.89-18.51,1.03-20.66,.06-3.79-3.43-3.85-6.05-3.54-7.75,1.85-10.38,24.45-23.14,42.23-30.69-2.66,20.1-8.84,33.3-18.03,38.39Zm27.69-35.23c3.27,11.66,10.61,31.01,24.55,37.37,2.25,1.03,4.56,1.68,6.93,1.97-8.33,6.25-19.09,10.71-32.15,13.32-1.52-7.93-3.61-17.25-6.42-26.92,3.24-6.97,5.61-15.56,7.09-25.75Zm25.08,130.21c-.91-1.46-21.7-35.25-22.21-54.41,0-.06,0-.12-.01-.18-.01-.14-.73-7.31-2.63-18.04,4.74-.95,9.19-2.13,13.36-3.54,.57,1.08,1.49,2.52,2.79,4.55,6.85,10.71,22.87,35.74,26.35,66.13-.16,2.13-.88,15.2,5.27,23.83-.84-.52-1.7-1.04-2.61-1.56-4.54-3.01-16.81-11.74-20.31-16.79Zm78.09-102.48c.9,.65,2.12,.63,3-.05,.2-.16,2.86-2.26,5.41-5.99,.02,3.46-.49,6.99-1.17,10.33-.7,.08-1.33,.51-1.5,1.41-.57,3-1.3,5.97-2.16,8.9-1.82,2.95-3.76,5.82-5.56,8.78-1.96,3.23-3.99,6.42-6.11,9.55-1.16,1.72-2.37,3.4-3.62,5.06-.49,.45-.97,.9-1.48,1.33-1.5,.65-3,1.32-4.51,1.94-1.72,.71-3.46,1.39-5.21,2.06-1.74,.67-3.76,1.22-5.31,2.26-.1,.07-.18,.15-.26,.24-.43,.03-.84,.26-1.07,.74-2.1,4.36-4.32,8.68-6.85,12.81-2.06,3.37-4.38,6.49-6.78,9.59-.79,.65-1.45,1.55-1.9,2.5-.14,.24-.25,.5-.31,.76-.17,.51-.28,1.01-.31,1.48-.1,1.87,2.39,2.78,3.64,1.51,1.03-1.06,2.03-2.14,3-3.25,.71,.15,1.47-.08,1.93-.89,.07-.12,.14-.24,.21-.36,.82-.52,1.57-1.12,2.23-1.8,.74-.37,1.47-.77,2.18-1.19,2.47-1.22,4.95-2.44,7.42-3.66,1.78-.88,3.52-1.82,4.97-3.2,1.24-1.2,2.22-2.65,3.16-4.1,.84-.87,1.66-1.74,2.45-2.6,2.96-3.18,5.72-6.57,8.23-10.13,1.33-1.89,2.59-3.83,3.77-5.81,.51,.33,1.22,.39,1.78,.13,.97-.46,1.62-1.18,2.19-2.01,.87,.64,2.28,1.37,4.25,1.37h.04c2-.01,4.05-.78,6.14-2.29-.8,7.24-3.52,20.22-12.55,34.79-.21,.35-.34,.74-.37,1.14-.02,.27-.18,2.78,.11,6.25-1.5,1.58-2.87,3.26-4.34,4.87-1.61,1.77-3.33,3.44-5.13,5.01-2.09,1.82-4.27,3.47-6.54,5-2.06,.64-3.96,1.65-5.48,3.44-1.47,1.73,.35,4.38,2.48,3.22,1.75-.96,3.48-2.02,5.14-3.16,3.33-.94,7.22-.84,10.32-1.96,2.56-.92,4.85-2.5,6.11-4.98,1.31,3.21,3.22,6.25,6.02,8.54,4.98,4.07,11.69,4.96,20.03,2.65,.28-.09,27.87-8.4,39.18,8.1,1.08,3.47,3.11,12.87-.03,16.39-1,1.11-2.61,1.59-4.81,1.44,.54-8.6-1.74-15.05-6.79-19.19-11.83-9.67-34.35-2.43-35.31-2.12-1.31,.43-2.03,1.84-1.6,3.15,.43,1.31,1.84,2.03,3.15,1.6,.21-.07,20.89-6.7,30.59,1.24,4.11,3.37,5.72,9.14,4.77,17.16,0,.07-.01,.14-.02,.22,0,.06-.29,5.91-4.44,8.67-3.13,2.07-7.79,2.06-13.87-.04,.94-5.54,.15-10.39-2.39-14.5-7.99-12.92-30.2-13.07-31.14-13.07-1.38,0-2.5,1.12-2.5,2.5s1.12,2.5,2.5,2.5c.2,0,20.35,.12,26.89,10.7,3.18,5.14,2.61,12.2-1.7,20.97-1.39,1.39-9.66,8.59-23.83-.65-.28-.19-.59-.3-.9-.36,.43-1.85,.48-3.74,.15-5.66-2.26-12.92-21.83-21.92-22.66-22.29-1.26-.57-2.74-.01-3.31,1.25s-.01,2.74,1.24,3.31c5,2.27,18.31,10.04,19.8,18.61,.62,3.57-.82,7.01-4.41,10.5-.13,.12-.24,.26-.34,.41-.05,.07-4.64,6.88-11.95,6.88h-.05c-6.65-.03-13.95-5.84-21.09-16.81-.1-.16-.22-.3-.35-.42-1.17-3.71-4.14-9.56-11.72-15.66,.44-.15,.84-.41,1.15-.8,.85-1.08,.67-2.66-.42-3.51-8.4-6.62-6.97-23.35-6.95-23.51,.02-.17,.01-.34,0-.51-3.56-31.66-20.08-57.49-27.14-68.51-.85-1.33-1.72-2.69-2.26-3.6,8.45-3.41,15.58-7.87,21.36-13.37,3.56-.76,7.22-2.26,10.96-4.52,.15-.09,.29-.18,.42-.28,2.99-2.25,7.68-8.08,6.3-15.68-.36-1.98-1.1-3.93-2.22-5.83,3.52-13.2,2.05-25.35,.99-31,3.93,.37,7.39,.93,9.43,1.74,.16,.06,.33,.11,.5,.14,.52,.09,8.74,1.46,21.02,.49,.02,.32,.04,.63,.07,.95-.01,.09-.04,.16-.04,.26,.29,5.1,.55,10.2,.5,15.31-.01,1.15-.04,2.3-.08,3.45-2.77,10.71-7.62,20.88-14.72,29.32-1.23,1.46-2.54,2.86-3.9,4.22-3.51,2.28-7.32,4.04-11.39,5.12-2.04,.54-2.12,3.72,0,4.22,1.4,.33,2.81,.48,4.21,.47,.6,.42,1.38,.54,2.09,.04,.1-.07,.19-.15,.29-.22,1.05-.14,2.08-.38,3.09-.7-.86,1.13-1.75,2.23-2.69,3.29-2.52,1.84-4.83,3.91-6.64,6.58-.59,.87-.25,2.15,.55,2.74,.9,.67,1.95,.52,2.79-.17,2.56-2.1,4.93-4.43,7.1-6.92,1.67-1.16,3.41-2.22,5.09-3.29,2.32-1.47,4.61-3.01,6.66-4.84,2.26-2.01,4.07-4.44,5.55-7.06,1.69-2.98,3.1-6.12,4.59-9.21,1.53-3.16,3.09-6.3,4.57-9.48,2.68-5.75,5.15-12,4.75-18.46-.08-1.25-.26-2.49-.53-3.71,.14-.49,.26-.99,.39-1.48,3.19,9.23,6.04,21.53,2.88,30.44-.37,1.05,0,2.21,.89,2.86Zm-16.15-2.99c-.38,.79-.76,1.57-1.14,2.35-.05-.13-.11-.25-.19-.36,.46-.66,.9-1.32,1.33-1.99Zm10.39-35.62c.04,.09,.07,.17,.11,.26-.06,.2-.12,.4-.18,.6,.02-.29,.05-.57,.08-.86Zm-2.02-4.74c-.06,.05-.12,.09-.17,.15-.17-.47-.39-.93-.63-1.38,.07-.01,.14-.02,.21-.03,.17,.37,.37,.78,.58,1.26Zm66.77-66.85c-.91,.61-1.32,1.73-1.01,2.78,.3,1.05,1.25,1.78,2.34,1.8,4.09,.11,7.52-.7,10.28-1.8-15.38,28.15-37.26,46.52-65.15,54.68-21.53,6.3-39.26,3.94-41.45,3.62-8.36-3.13-31.21-2.67-32.25-2.65-11.49,.5-22.72,3.76-24.17,4.19-46.74,8.63-93.02-4.78-123.63-17.55-13.11-5.47-24.55-11.3-33.61-16.36,13.37-1.04,26.91-2.98,40.42-5.66,5.79,5.39,18.92,8.84,47.36,3.94,0,0,14.77-4.03,48.96-14.57,.97,6.05,5.79,31.69,17.76,32.54,.06,0,.12,0,.18,0,.62,0,1.22-.23,1.68-.65,.51-.46,.8-1.11,.82-1.79,0-.21,.53-21.67,3.12-36.4,.06-.35,.04-.7-.04-1.02,9.69-2.27,22.92-4.29,38.29-3.8,0,0,25.57-.96,46.67,.44,.28,11.12-.76,26.9-4.1,29.71-.92,.78-1.16,2.1-.57,3.15,.45,.8,1.3,1.27,2.17,1.27,.27,0,.55-.04,.82-.14,.2-.07,18.57-6.75,19.17-31.23,5.5,1.46,12.5,3.61,16.37,5.96,0,0,14.56,4.52,19.07-6.06,0,0,2.32-12.01-21.35-7.78,0,0-10.92,.15-24.07-2.54-6.13-1.26-17.33-1.77-22.84-1.68-13.57,.23-33.61-.02-38.32,1,0,0-29.94-1.38-56.78,9.2,0,0-13.5,3.23-29.25,2.31,18.06-6.39,35.39-13.62,51.44-21.17,1.31,1.06,9.25,6.83,25.91,6.83,5.84,0,12.75-.71,20.81-2.58,.42-.11,9.93-2.72,17.18-9.05,4.55,.67,16.96,2.14,21.75-.87,.9-.47,4.29-2.43,7.07-6.44,20.61,5.56,42.47,6.71,63.32,2.35-4.08,8.3-8.21,13.52-8.3,13.64-.63,.78-.73,1.87-.25,2.75,.48,.89,1.44,1.4,2.44,1.3,7.62-.73,14.7-10.44,19.13-18.07-2.36,16.13-17.22,26.29-17.4,26.41Zm-167.11,10.94c.51-.16,1.01-.31,1.53-.47,0,0,4.42-1.96,12.12-4.07-1.9,11.45-2.64,25.87-2.89,32.46-4.98-3.97-9.11-17.59-10.67-27.57-.02-.12-.06-.24-.09-.35Zm116.21-7.68c.01,12.53-4.98,19.74-9.37,23.66,1.96-8.22,1.98-19.59,1.86-24.78,1.57,.14,3.1,.29,4.57,.47,0,0,1.14,.24,2.94,.66Z"/>
      <path class="cls-1" d="M152.48,224.89c1.28,.86,2.49,1.17,4.18,1.61,.72,.19,1.4,.33,2.08,.46,1.41-.01,2.82-.13,4.22-.3,0,0,.01,0,.02,0,.2-.03,.39-.06,.59-.09,.37-.05,.73-.11,1.1-.17,.05,0,.11-.02,.16-.03,.55-.43,1.32-.51,2.02-.34,.02,0,.04,0,.06,0,1.36-.23,2.59,.35,3.03,1.72,.71,2.23,.39,4.52-.57,6.56-.23,2.19-.33,4.4-.16,6.6,.21,2.76,.93,5.51,2.32,7.91,.62,1.07,1.55,2.07,2.46,2.7,.46,.31,.94,.6,1.45,.83,.04,0,.44,.16,.52,.18,.23,.07,.46,.12,.7,.18,.06,.02,.29,.04,.33,.05,.05,0,.11,.01,.16,.01,.23,0,.45,0,.68,0,.1,0,.2-.01,.31-.02,.01,0,.02,0,.03,0,.21-.05,.43-.09,.64-.16,.14-.04,.28-.09,.42-.14,0,0,.05-.02,.1-.04,.09-.05,.44-.23,.52-.28,.16-.09,.31-.2,.46-.3,.02-.03,.34-.27,.4-.34,.2-.19,.39-.38,.58-.59,.05-.05,.22-.28,.27-.33,.3-.43,.56-.88,.8-1.34,.38-.75,.74-2.16,.91-3.3,.19-1.32,1.87-2.04,3.03-1.72,.27,.07,.49,.19,.69,.33,.74,0,1.46,.36,1.94,1.19,2.82,4.94,6.69,9.44,11.46,12.6,.29,.19,.6,.37,.9,.55,4.19,1.41,8.67,1.59,13.08,.1,6.32-2.14,11.25-7.13,14.42-12.88,0-.01,.01-.02,.02-.04,0-1.2,.29-2.42,.84-3.43,.43-.79,1.11-1.51,1.93-1.88,.51-.23,1.04-.41,1.61-.34-.02,0,.06,0,.16,.02,.06-.01,.13-.01,.2-.02,.34-.17,.72-.29,1.12-.33,.02,0,.03,0,.05-.02,.13-.04,.27-.06,.4-.09,.28-.07,.55-.15,.82-.25,.12-.04,.24-.09,.35-.14,.02,0,.04-.02,.06-.03,.32-.16,.64-.31,.95-.49,.64-.36,1.24-.76,1.84-1.18,.02-.02,.28-.21,.33-.25,.07-.06,.15-.12,.22-.18,.33-.27,.65-.54,.97-.82,1.82-1.61,3.52-3.47,5.05-5.46,.2-.32,.4-.65,.58-.99,1.27-2.43,1.96-5.17,2.32-7.87,.63-4.68,.33-9.45,.25-14.19-.68-2.69-1.58-5.28-2.92-7.54-.86-1.45-1.94-2.59-3.12-3.32,.72,1.92,1.19,3.9,1.41,5.93,.61,5.67-.79,11.63-3.86,16.37-1.89,2.92-3.95,4.76-6.48,5.79-.16,.06-.32,.12-.49,.18,.6,3.09,.37,6.44-.68,9.55-2.82,8.35-10.84,14.18-19.51,14.18-1.33,0-2.66-.14-3.95-.41-6.31-1.33-11.39-6.73-12.55-13.12-2.13,.91-4.45,1.38-6.81,1.38-.73,0-1.48-.05-2.21-.14-5.74-.72-10.48-4.11-12.7-9.06-2.26-5.05-2.08-11.06,.48-16.08,2.84-5.56,8.59-8.89,15.37-8.89,5.31,0,10.32,2.1,13.73,5.75,.81,.86,1.01,2.01,.56,3.06-.29,.66-.8,1.19-1.41,1.5-.7,.56-1.66,.78-2.68,.23-3.5-1.9-7.38-2.09-11.18-.76-.56,.2-1.46,.65-2.2,1.11-.8,.5-1.16,.78-1.87,1.45-.73,.7-1.26,1.35-1.74,2.1-.23,.36-.45,.73-.65,1.11-.05,.11-.11,.22-.16,.32-.03,.08-.09,.21-.11,.26-.13,.38-.25,.76-.33,1.15-.02,.08-.07,.54-.06,.38,0,.07-.01,.13-.02,.2,0,.33,.02,.66,0,.99,0,.02,0,.03,0,.04,.03,.15,.05,.3,.09,.45,.07,.31,.17,.61,.28,.9,.02,.02,.23,.52,.3,.64,.15,.28,.35,.54,.51,.81,0,.02,.03,.04,.04,.07,.07,.09,.15,.18,.23,.27,.23,.27,.48,.53,.74,.77,.09,.08,.5,.42,.54,.47,.49,.36,1,.68,1.54,.96,.18,.09,.36,.17,.53,.26,.03,.02,.04,.02,.07,.04,.03,0,.04,.01,.08,.02,.31,.1,.62,.22,.94,.31,.31,.09,.63,.17,.95,.23,.13,.03,.26,.04,.38,.07,.02,0,.03,0,.04,.01,.02,0,.04,0,.07,0,.57,0,1.13,.02,1.7,0,.07-.02,.56-.08,.68-.11,.31-.08,.6-.19,.9-.28,.03,0,.04-.01,.06-.02,.03-.02,.07-.04,.12-.07,.14-.08,.28-.15,.42-.23,.11-.07,.56-.4,.59-.4,.2-.18,.4-.35,.59-.55,.09-.1,.18-.21,.27-.31,.01-.01,.02-.02,.03-.03,.02-.03,.05-.08,.1-.14,.5-.72,1.27-1.16,2.09-1.19,.04-.02,.07-.03,.11-.05,.21-.08,.43-.14,.65-.19,1.82-.89,4.11-.63,5.65,.73,.52,.46,.9,1.08,1.12,1.76,.27,.39,.42,.85,.4,1.34-.07,1.45-.01,2.86,.1,4.31,0,.02,0,.03,0,.04,.02,.13,.04,.26,.06,.38,.05,.28,.1,.56,.16,.83,.11,.51,.25,1.02,.42,1.52,.04,.13,.23,.58,.22,.58,.06,.13,.11,.25,.18,.38,.2,.4,.43,.76,.67,1.14,.03,.05,.04,.07,.06,.1,0,0,0,0,.01,.01,.16,.16,.29,.34,.45,.5,.12,.13,.25,.25,.38,.37,.08,.07,.2,.15,.29,.2,.18,.09,.12,.07,0,0-.05-.02-.11-.05-.19-.09,.31,.15,.6,.41,.91,.58,.13,.07,.26,.13,.39,.2,.01,0,.01,0,.02,.01,.35,.11,.69,.24,1.05,.33,.17,.04,.33,.07,.5,.11,.02,0,.05,.01,.09,.02,.12,.01,.34,.04,.4,.04,.17,.01,.35,.02,.52,.03,.35,0,.71,0,1.06-.02,.2-.01,.4-.04,.61-.05,.01,0,.01,0,.02,0,0,0,0,0,0,0,.36-.07,.73-.13,1.09-.21,.76-.18,1.51-.41,2.24-.69,.11-.04,.22-.09,.33-.13-.33,.13,.14-.06,.29-.13,.35-.16,.7-.34,1.05-.52,.71-.38,1.4-.8,2.07-1.27,.18-.13,.35-.26,.53-.39,.01,0,.01,0,.02-.01,.02-.02,.03-.03,.06-.05,.3-.25,.59-.49,.88-.75,.56-.51,1.09-1.05,1.58-1.63,.13-.15,.6-.78,.14-.15,.11-.15,.22-.29,.32-.44,.19-.27,.38-.56,.55-.84,.19-.32,.37-.65,.53-.98,.07-.15,.13-.32,.21-.47-.03,.05-.05,.09-.07,.13-.09,.19-.2,.37,0,0,.02-.05,.04-.09,.05-.13,.11-.34,.22-.67,.3-1.02,.04-.15,.06-.31,.1-.46-.06-.29,.05-.71,.04-1,0-.15-.03-.3-.03-.44-.07-.32-.14-.64-.24-.95-.05-.16-.14-.32-.17-.47,0,.03,.01,.05,.02,.08,.1,.23,.11,.47,0,0-.01-.03-.02-.05-.04-.08-.18-.34-.38-.66-.59-.98-.02-.04-.04-.06-.05-.08-.12-.13-.23-.27-.35-.41-.1-.04-.2-.09-.31-.13-.47-.21-.88-.5-1.25-.86-1.15-1.09-2.06-2.85-1.47-4.44,.35-.96,1.03-1.61,1.99-1.95,.04-.02,.09-.02,.13-.03,.53-.55,1.31-.83,2.27-.53,1.2,.37,1.65,.48,2.69,.47,.18,0,.37-.02,.55-.03,.07-.01,.17-.03,.22-.04,.16-.04,.93-.31,.8-.23,1.24-.59,1.76-1.22,2.47-2.61,.08-.16,.16-.32,.23-.49,.03-.08,.08-.18,.09-.23,.11-.32,.23-.64,.33-.97,.23-.76,.38-1.53,.52-2.3,.01-.08,.02-.13,.03-.16,0-.03,0-.07,.02-.14,.03-.24,.05-.49,.07-.73,.03-.37,.05-.73,.07-1.1,.03-.78,.03-1.55-.01-2.33-.08-1.73-.17-2.47-.63-4.25-.16-.61-.35-1.21-.58-1.8-.06-.13-.2-.46-.24-.55-.15-.32-.3-.64-.46-.96-.3-.59-.61-1.17-.95-1.73-.96-1.61-2.24-3.19-3.64-4.05-1.26-.77-2.27-1-3.81-.94-.76,.03-1.28,.13-2.3,.42-.7,.2-1.66,.55-2.11,.74-1.85,.79-3.61,1.81-5.33,2.85-.32,.36-.73,.63-1.18,.76-1.34,.37-2.59-.46-3.03-1.72-.07-.19-.14-.39-.22-.58-.03-.06-.18-.4-.23-.49-.22-.45-.47-.88-.73-1.3-.12-.2-.25-.39-.39-.58-.06-.09-.23-.31-.3-.4-.29-.36-.6-.71-.92-1.05-.35-.37-.72-.73-1.11-1.07-.18-.16-.37-.32-.55-.47-.11-.09-.21-.17-.32-.26,0,0,0,0,0,0-.87-.64-1.77-1.22-2.71-1.75-1.95-1.09-2.97-1.5-5.06-2.17-1.93-.62-3.91-1.05-5.91-1.36-.04,0-.06,0-.07-.01-.02,0-.04,0-.07,0-.11-.01-.23-.03-.34-.04-.23-.03-.45-.05-.68-.07-.49-.05-.97-.09-1.46-.11-1-.06-2-.07-2.99-.05-.97,.03-1.93,.1-2.88,.21-.06,0-.09,0-.12,.01-.04,0-.09,.01-.16,.03-.24,.04-.47,.07-.71,.12-.4,.07-.79,.15-1.18,.24-.84,.19-1.68,.43-2.49,.73-.13,.05-.27,.1-.4,.15-.09,.04-.29,.12-.36,.15-.34,.17-.68,.33-1.02,.52-.34,.19-.68,.4-1.01,.63-.11,.07-.21,.15-.31,.22-.03,.03-.06,.05-.1,.09-.27,.25-.55,.49-.8,.77-.06,.07-.12,.14-.18,.21-.48,1.36-.73,2.78-.7,4.25,.02,.98,.14,1.95,.32,2.92,.08,.26,.15,.51,.24,.78,.08,.23,.11,.45,.12,.67,.21,.66,.47,1.29,.76,1.96,.51,1.15,.13,2.55-1.18,2.91-.73,.2-1.4-.04-1.86-.5-.37,.09-.79,.08-1.25-.06-4.13-1.29-8.6-1.18-12.57,.62-3.49,1.58-6.33,4.26-8.11,7.65-1.8,3.44-2.67,7.84-1.18,11.54,.73,1.8,2.07,3.42,3.68,4.5Z"/>
      <path class="cls-1" d="M524.99,572.26c8.53,0,16.75-.63,24.35-1.6-1.08-.28-2.14-.6-3.18-.93-4.95-1.57-9.71-3.66-14.57-5.46-10.38-3.84-21.04-6.89-31.36-10.92-5.35-2.09-10.64-4.37-15.75-7-3.91-2.01-7.64-4.31-11.38-6.6-4.67-2.86-9.31-5.94-13.5-9.51-10.13-.02-20.08-.63-29.77-1.94,20.92,29.18,52.8,43.95,95.17,43.95Z"/>
      <path class="cls-1" d="M83.37,332.5c.12-1.03,.32-2.03,.58-3.01-.07-2.48,.87-4.99,1.4-6.17,1.57-3.5,3.64-7.42,7.09-10.06,1.23-.94,2.64-1.58,4.01-2.2,.84-.38,1.65-.76,2.39-1.18,0-.04-.01-.08-.01-.12-.16-2.67,1.49-5.34,3.31-7.16,.71-.71,1.51-1.39,2.38-1.93,.43-.41,.91-.79,1.43-1.14,2.01-1.35,4.39-2,7.29-2,.68,0,1.4,.04,2.17,.11,.28-2.92,1.47-5.02,3.55-6.27,1.63-.98,3.49-1.22,5.28-1.45,.41-.05,.82-.1,1.21-.17l4.15-.64c-.05-3.73,1.65-7.32,4.57-9.55,1.96-1.5,4.32-2.29,6.83-2.29s4.94,.83,6.91,2.33c.08,.04,.16,.08,.24,.13,2.1,1.2,3.2,3.47,2.43,5.82-.43,1.31-1.69,2.03-3.03,1.72-1.8-.42-3.35-.74-5.18-.71-.32,0-.65,.02-.97,.06-.07,.02-.56,.11-.66,.14-.37,.1-.79,.29-1.05,.48,.13-.1-.33,.32-.45,.45,0,0-.01,.01-.02,.02,0,.01-.01,.02-.03,.05-.09,.14-.17,.28-.25,.42-.05,.08-.09,.17-.13,.25-.02,.05-.06,.17-.09,.26-.1,.33-.19,.66-.25,1-.07,.37-.14,1.36-.14,2.06,0,.99,.08,1.97,.19,2.95,.21,1.81-1.98,2.54-3.31,1.9-3.4-1.63-8.43-1-11.27,1.81,0,.04-.02,.09-.03,.13-.01,.12-.02,.23-.03,.35-.01,.35,0,.71,.04,1.06,0,.03,0,.07,.01,.1,.03,.17,.06,.35,.09,.52,.27,1.39,.78,2.74,.97,4.14,.08,.61,.07,1.12-.22,1.67-.22,.42-.81,.92-1.29,1-1.25,.19-2.49,.29-3.75,.17-.66-.06-1.36-.12-1.99-.35-.04-.01-.07-.03-.11-.04-.97-.06-1.95-.09-2.93-.04-.25,.01-.5,.03-.75,.06-.14,.01-.29,.03-.43,.04-.47,.11-.94,.17-1.4,.31-.25,.07-.5,.16-.74,.25,0,0,0,0,0,0-.1,.05-.21,.1-.31,.15-.42,.22-.85,.45-1.26,.7-.12,.08-.24,.16-.36,.24-.02,.01-.03,.02-.04,.03,0,0-.01,.01-.03,.02-.08,.07-.15,.15-.23,.22,.04,.26,.05,.53-.02,.8-.19,.82-.73,1.43-1.25,2.06-.33,.4-.67,.79-1.02,1.17-.68,.71-1.45,1.36-2.2,2-.56,.48-1.12,.97-1.71,1.41-.06,.17-.15,.33-.27,.48-1.76,2.15-4.1,3.77-5.9,5.9-1.46,1.73-2.37,3.72-2.94,5.89-.52,1.97-.78,4-.72,6.04,.59,0,1.17,.01,1.73,.01,5.99,0,9.62-.6,9.63-.6l.37-.07,.38-.03c4.67-.38,9.56-.57,14.54-.57,28.9,0,58.77,6.24,83.31,13.29-.05-5.33,2.02-10.5,5.77-14.08,3.27-3.13,7.53-4.98,12.13-5.35,.08-2.02,.41-4.06,1.06-5.97,1.32-3.83,3.7-7.19,7.02-9.54,1.57-1.11,3.43-1.91,5.28-2.39,1.19-.3,2.72-.63,4.15-.62,.28-1.63,1.04-3.29,1.83-4.44,2.62-3.85,6.9-6.15,11.18-7.69,2.12-.76,4.29-1.27,6.51-1.59,1.66-.24,4.12-.71,5.82,0,.77,.27,1.44,.79,1.87,1.51,.61,1.03,.62,2.25,.02,3.36-1.54,2.86-4.68,3.25-6.75,3.51-1.8,.22-3.49,.68-5.05,1.34-2.93,1.26-5.57,3.31-7.45,5.77-.36,.47-.68,.98-1.02,1.52-.77,1.23-1.58,2.51-2.94,3.41-1.2,.8-2.5,1.08-3.76,1.36-.63,.14-1.22,.27-1.79,.46-4.99,1.67-8.5,7.67-7.51,12.84,.21,1.09-.06,2.18-.73,2.99-.63,.76-1.55,1.19-2.54,1.19h0c-.28,0-.57-.04-.86-.11-1.01-.25-2.06-.37-3.13-.37-3.39,0-6.68,1.27-9.03,3.48-3,2.81-4.57,6.89-4.36,11.09,26.75,8.09,46.05,16.67,48.79,17.91,33.06,12.64,61.38,31.81,83.92,50.94,5.29-2.05,10.06-4.91,14.02-8.47,11.13-10.02,16.51-25.35,13.71-39.08-.69-3.37-3-11.37-9.62-12.89-.68-.16-1.4-.23-2.14-.23-1.52,0-3,.33-4.16,.93-.93,.48-1.69,.98-2.35,1.87-.01,.02-.03,.05-.06,.09,.13,.13,.26,.26,.39,.39,1.08,1.15,1.28,2.93,.48,4.14-.86,1.29-2.22,2.04-3.74,2.04-2.13,0-3.97-1.46-4.49-3.55-1.52-.73-3.26-1.1-5.16-1.1-2.55,0-5.27,.69-7.66,1.93-2.02,1.05-4.72,2.88-6.11,5.6-1.03,2.01-.46,4.45,1.32,5.67,.27,.19,.57,.33,.9,.44,.26-.76,.59-1.42,1.01-1.99,1.05-1.46,2.73-2.33,4.48-2.33,1.22,0,2.38,.41,3.35,1.2,1.4,1.13,2.04,2.86,1.66,4.5-.41,1.76-1.7,2.87-2.79,3.64-.57,.41-1.21,.76-1.9,1.05-.13,1.4-.18,2.52-.16,3.58,.06,3.6,1.13,6.17,3.17,7.63,.77,.55,1.53,.82,2.32,.82,1.24,0,2.6-.69,4.05-2.05,2.34-2.2,4.11-4.95,5.11-7.95,.53-1.59,.85-3.12,.96-4.54,0-.1,.01-.2,.02-.3-.08,0-.17,0-.25,0-.61,0-1.18-.15-1.66-.43-1.5-.88-2.02-2.75-1.24-4.45,.74-1.6,2.28-2.56,4.14-2.56s3.67,.96,4.62,2.43c1.86,2.9,.94,7.08,.45,9.34-1.25,5.71-4.51,10.99-8.92,14.47-2.36,1.86-4.75,2.81-7.11,2.81-.26,0-.53-.01-.8-.04-2.58-.24-5.03-1.4-7.07-3.36-3.41-3.27-4.85-8.11-4.41-14.76-4.96-1.08-8.67-5.7-8.58-10.88,.12-6.53,5.99-10.94,8.51-12.53,3.75-2.38,8.23-3.68,12.59-3.68,2.41,0,4.68,.4,6.77,1.18,.08-.12,.15-.23,.23-.33,2.42-3.3,6.31-5.31,10.96-5.65,.4-.03,.79-.04,1.18-.04,5.65,0,10.03,2.96,13.09,6.84,3.75,2.76,6.11,6.99,7.3,11.66,1.5,5.89,.74,11.66-.85,17.44-1.75,6.35-4.59,12.38-8.17,17.91-3.24,5.01-6.99,9.81-10.89,14.34-1.89,2.2-3.89,4.35-6.16,6.16-.42,.34-.86,.68-1.32,1.02,8.91,8.08,16.75,15.99,23.44,23.22,16.1,17.4,27.68,33.01,34.44,42.84,1.95,1.04,3.92,2.06,5.92,3.01,7.66,3.64,15.58,6.64,23.68,9.06-3.04-3.76-4.98-8.03-4.45-12.59-17.77-6.48-33.48-16.09-45.93-29.69,1.98,1.94,4.63,4.3,6.72,6.02,6.89,5.75,14.61,10.52,22.69,14.39,5.45,2.57,11.17,4.77,17.09,6.68,.05-.16,.1-.32,.16-.49-3.15-2.95-6.1-6.16-8.48-9.75-2.38-3.59-4.4-8.1-3.31-12.48,.52-2.07,1.89-4.32,3.79-5.38,2.38-1.32,5.07-.59,7.39,.46,2.4,1.08,4.57,2.64,6.8,4.05,1.08,.68,2.17,1.35,3.31,1.92,.7,.35,.6,.32,1.37,.56,.16,.05,.32,.09,.48,.13,1.58-1.41,3.08-2.91,4.51-4.47,2.81-3.06,5.61-6.61,6.94-10.51-.39-2.6-.71-5.2-.96-7.82-2.75,2.1-6.09,3.26-9.6,3.29h-.16c-4.34,0-8.64-1.73-11.23-4.51-.2-.21-.39-.45-.58-.7-.53,.24-1.06,.45-1.6,.62-1.22,.38-2.46,.57-3.69,.57-5.4,0-10.48-3.72-12.63-9.25-1.06-2.72-1.26-5.72-.6-8.4-.05-.02-.1-.05-.15-.07-7.17-3.33-8.89-11.78-6.42-18.02,1.53-3.86,4.48-6.97,8.41-8.95-2.06-2.91-2.42-7.04-1.07-10.36,.84-4.26,4.43-7.9,7.85-10.24,1.89-1.3,4.08-2.38,6.36-2.77,.86-.15,1.71-.19,2.57-.11-2.99-6.49-5.35-13.26-6.71-20.3-2.86-14.77-1.91-30.16,2.51-44.53,1.89-6.14,4.08-12.37,6.88-18.16,1.33-2.74,2.86-5.57,5.38-7.39,2.72-1.96,6.12-1.91,9.23-1.08,1.5,.4,2.94,.96,4.4,1.47,1.49,.53,3.01,.93,4.5,1.46,2.8,1,5.63,1.91,8.42,2.93,4.28,1.57,8.81,3.32,12.6,6,5.19-3.98,12.72-7.83,18.91-4.57,3.59,1.89,5.24,6.06,5.8,9.85,.26,1.77,.4,3.56,.54,5.34,3.5-2.32,7.19-4.33,10.97-6.15,3.85-1.85,7.86-3.36,11.67-5.28,4.91-2.47,10.18-5.57,15.69-7.18-10.4-4.93-20.19-8.8-21.31-9.25-6.06-2.16-11.81-4.72-17.14-7.46-1.36,.16-2.44,.48-3.34,.98-1,.57-1.59,1.25-1.84,2.16l-.1,.36c-.37,1.37-.79,2.92-2.09,4.08-.96,.86-2.14,1.28-3.6,1.28-.81,0-1.61-.12-2.39-.24l-.49-.07c-1.06-.15-1.96-.23-2.76-.23-.57,0-1.11,.04-1.61,.11-2.61,.4-4.23,2.04-4.84,4.85,.4,.88,.23,1.82-.41,2.56-1.35,1.55-4.11,.53-5.33-.72-1.13-1.17-1.32-2.78-1.04-4.31,.46-2.48,2.27-4.76,3.92-6.56,1.66-1.82,3.7-3.65,6.05-4.5,1.14-.41,2.42-.44,3.61-.62,.29-.04,.57-.09,.85-.16,.29-.08,.67-.36,.17-.03,.17-.11,.36-.21,.53-.31,0,0,0,0,0,0,0,0,0,0,0,0,.13-.11,.26-.23,.38-.34,1.41-1.32,2.64-2.72,4.2-3.88,0,0,.01,0,.02-.01-16.36-9.9-27.12-20.14-28.51-21.48-.39-.36-.79-.71-1.18-1.06-.06,1.02-.17,2.05-.36,3.08-1,5.41-4,9.93-8.23,12.42-4.24,2.49-9.17,3.08-13.93,3.66l-1.33,.16c-2.92,.36-5.15,.52-7.25,.52h0c-3.72,0-6.89-.54-9.69-1.64-2.02-.8-3.83-1.83-5.4-3.1-1.48,4.09-4.13,7.83-7.6,10.64-6.01,4.88-14.07,7.57-22.69,7.57-5.45,0-10.78-1.11-15.41-3.22-5.77-2.63-10.57-7.28-13.16-12.76-.88-1.86-1.51-3.76-1.9-5.67-1.34,.07-2.71-.09-3.95-.33-2.52-.48-5.09-1.46-7.31-2.75-6.47-3.79-11.72-10.05-13.78-17.25-1.47-3.19-2.25-6.75-1.87-10.65,.58-5.79,3.72-10.6,8.4-12.86,2.15-1.04,4.49-1.58,6.76-1.58,.92,0,1.83,.09,2.69,.27,.05-.19,.11-.37,.17-.56-.03-.17-.06-.34-.08-.5-.17-1.18-.17-2.26,.03-3.44,.33-1.99,1.18-3.92,2.37-5.55,4.57-6.23,13.15-9.51,20.76-8.71,1.99,.21,3.87,.64,5.7,1.45,1.62,.71,3.01,1.77,4.43,2.81,1.96,1.43,3.94,2.92,5.53,4.76,1.49,1.72,3.19,4.19,2.4,6.58-.04,.12-.09,.24-.15,.34,.12,.43,.22,.86,.29,1.29,.28-.01,.56-.02,.84-.02,.7,0,1.4,.04,2.08,.13,3.93,.49,7.81,1.89,11.23,4.03,3.09,1.93,6.98,5.19,7.95,9.7,.99,4.56-1.07,9.1-5.38,11.85-2.04,1.3-4.4,2.05-7.36,2.33,.2,2.79-1.21,5.81-3.69,7.9-2.65,2.22-6.03,3.4-9.78,3.4-1.53,0-3.08-.2-4.6-.6-5.51-1.44-9.56-5.31-11.98-8.3-2.52-3.11-6.33-7.82-5.9-12.91,.02-.19,.05-.37,.08-.55,0-.81,.14-1.61,.38-2.37,.09-.46,.21-.91,.37-1.34,.1-.27,.22-.54,.34-.8,.14-.34,.28-.66,.44-.97,.63-1.22,1.53-2.23,2.63-3.03,.48-.35,1.03-.6,1.6-.77,.63-.47,1.35-.81,2.12-.97,2.86-.56,5.98,.82,7.87,2.97,.94,1.07,1.73,2.4,1.71,3.87-.02,1.61-1.01,3.02-2.46,3.69-1.77,.82-3.88,1.08-5.72,.35-.02,0-.04-.02-.05-.02-.53,.1-1.05,.2-1.57,.32-.16,.04-.44,.11-.57,.18,0,.02,0,.04,0,.06-.01,.21,.02,.41,.05,.56,.23,1.24,.9,2.37,1.69,3.61,1.02,1.6,1.92,2.84,2.84,3.92,1.95,2.27,3.88,3.84,5.85,4.77,.26-.04,.5-.07,.77-.07,.33,0,.66,0,.99-.03,.16-.01,.32-.03,.49-.05,.02,0,.04,0,.06,0,.28-.08,.59-.1,.87-.18,.3-.08,.6-.18,.89-.29,.12-.06,.25-.12,.37-.18,.25-.13,.5-.28,.74-.43,.11-.07,.28-.24,.41-.29,.47-.39,.88-.8,1.28-1.26,.09-.13,.18-.25,.26-.38,.15-.24,.3-.49,.42-.74,.02-.04,.06-.13,.1-.21,.04-.09,.07-.19,.11-.28,0,0,0,0,0-.01,0,0,0,0,0,0,.13-.3,.12-.29,0,0,.16-.17,.24-.67,.3-.9,.05-.19,.08-.37,.12-.56-.06-.34-.08-.69-.04-1.07,.2-1.9,1.57-3.23,3.33-3.23,.07,0,.15,0,.23,0l.64,.04c1.13,.07,2.3,.15,3.46,.15,3.08,0,5.15-.56,6.72-1.81,1.62-1.3,2.09-3.14,1.22-4.8-1.02-1.95-2.96-3.6-6.11-5.22-1.6-.82-4.74-2.19-7.86-2.19-1.05,0-2.01,.16-2.84,.48-1.03,1.21-2.37,2.1-3.88,2.56-.36,.11-.73,.17-1.08,.17-1.29,0-2.4-.74-2.97-1.98-.62-1.35-.41-2.94,.53-4.04,.69-.81,1.52-1.52,2.46-2.13,.07-.29,.09-.59,.06-.87-.14-1.34-1-2.82-2.54-4.41-2.81-2.88-6.94-4.6-11.06-4.6-1.82,0-3.56,.32-5.18,.96-5.32,2.09-9.22,7.62-9.48,13.44-.09,1.96-1.55,3.38-3.47,3.38-.86,0-1.73-.3-2.44-.86-.81-.63-1.83-.96-3.03-.96-1.65,0-3.49,.63-4.92,1.7-3.31,2.46-3.38,6.85-3.25,8.62,.28,3.85,2.19,7.06,4,9.29,1.56,1.12,3.07,2.33,4.71,3.33,1.72,1.05,3.59,1.8,5.54,2.32,3.84,1.02,8.06,.76,11.71-.87,1.79-.8,4.21,.52,3.54,2.72-.24,.79-.52,1.58-.86,2.35,.1,.26,.18,.55,.18,.88,.05,2.75,1.06,5.41,2.29,7.84,1.21,2.4,2.56,4.6,4.53,6.45,5.99,5.64,15.41,7.89,23.19,5.03,3.72-1.37,7.28-3.92,10.09-6.76,1.5-1.51,2.83-3.17,3.88-5.02,.98-1.72,1.36-3.57,2.04-5.4,.03-.08,.08-.14,.12-.21,0-.43,.01-.87,.05-1.3,.12-1.56,.43-3,1.46-4.23,.12-.14,.28-.25,.46-.31,.32-.71,.8-1.32,1.48-1.75,.83-.73,2.11-.79,3.06-.16,.06,.03,.11,.05,.17,.08,.9,.48,1.59,1.37,2.05,2.26,.18,.35,.33,.7,.46,1.07,2.22,2.74,4.93,5.13,7.88,7.04,3.16,2.04,6.7,3.55,10.53,3.28,3.67-.25,7.05-2.36,9.68-4.82,2.25-2.1,4.06-4.55,4.91-7.42,.64-2.15,.85-4.38,1.22-6.58-67.83-58.09-151.56-94.22-191.21-109.29-.38,.43-.87,.76-1.47,.92-.51,.14-1.04,.21-1.62,.21-.97,0-1.91-.19-2.82-.38-.74-.15-1.44-.3-2.12-.33-.38-.02-.76-.03-1.14-.03-1.54,0-3.04,.17-4.47,.52-1.81,.44-3.52,1.13-5.23,2.12l-.38,.22c-1.71,1-3.48,2.03-5.54,2.44-1.17,.23-2.33,.26-3.32,.26h-1.75c-.69-.01-1.22,0-1.71,.05-1.43,.12-2.96,.54-4.29,1.19-2.97,1.45-5.26,3.78-6.62,6.74-.55,1.2-1.91,1.74-3,1.74-.29,0-.57-.03-.83-.1-3.12-.8-6.08-1.21-8.8-1.21-2.54,0-4.94,.36-7.14,1.06-4.04,1.29-7.37,3.92-9.64,7.62-.3,.49-.73,.84-1.24,1.06-1.39,1.86-5.02,.52-4.33-2.2,1.48-5.89,6.95-10.74,12.01-13.65,4.94-2.83,11.45-4.58,16.74-1.92,3.3-3.05,6.81-6,10.87-7.93,4.61-2.19,9.48-2.83,14.46-2.04,1.5-.98,3.17-2.12,4.93-3.03-1.05-.36-1.94-.66-2.63-.88-.02,0-.03,0-.05,0-69.41-2.05-101.72,18.17-137.96,37.07-29.24,15.25-53.74,38.14-73.94,60C5.9,245.88,3.26,269.86,.2,279.64c-.46,1.47-.1,3.7,.8,4.96,2.64,3.72,5.33,7.16,8.07,10.35,.9-5.97,3.27-11.73,7.08-16.42,2.43-2.98,5.59-5.58,9.4-6.5,2.53-.61,5.22-.62,7.62,.19,.31-1.72,.96-3.5,1.98-5.31,5.05-8.96,14.36-14.75,23.72-14.75,.63,0,1.27,.03,1.89,.08,5.73,.48,10.83,2.77,14.36,6.45,2.16,2.25,3.38,4.79,3.49,7.22,2.74,.14,5.45,1.03,7.71,2.54,3.99,2.67,6.4,6.9,6.79,11.91,.44,5.63-1.83,11.47-5.93,15.23-3.71,3.42-8.65,5.52-13.92,5.92-.12,2.43-.88,4.78-2.2,6.7-3.31,4.82-9.42,7.59-16.76,7.59h-.12c-7.38-.03-13.73-2.88-17.41-7.8-3.52-4.71-4.78-12.33-.37-17.78,2.33-2.88,6.11-4.66,9.86-4.66,.48,0,.95,.04,1.41,.1,1.86-.29,3.73-.24,5.42,.68,3.2,1.74,4.17,5.91,1.38,8.51-1.41,1.32-3.33,1.96-5.25,1.91-1.39-.03-3.31-.65-4.42-.18-.39,.17-.7,.56-.92,.95-.06,.11-.12,.22-.18,.34-.02,.05-.06,.19-.07,.21-.02,.07-.14,.66-.16,.66-.14,1.32,.13,2.43,.62,3.67,.44,1.12,1.28,2.45,2.02,3.27,.46,.52,.99,.95,1.5,1.42,.2,.19,.43,.39,.61,.59,.07,.08,.13,.17,.19,.25,1.8,.59,3.83,.9,6.02,.9,.48,0,.95-.01,1.42-.04,1.72-.1,7.52-.76,9.83-4.9,.64-1.16,.93-2.59,.79-3.93-2.63-1.6-3.86-4.14-3.4-7.04,.27-1.69,1.94-2.61,3.37-2.61,.63,0,1.22,.17,1.71,.49,1.48,.96,2.67,2.26,3.55,3.85,.24,.03,.48,.04,.72,.04,1.23,0,2.55-.31,3.57-.59,6.04-1.63,11.57-6.98,10.46-14.04-.47-2.99-2.27-5.41-4.94-6.66-1.12-.52-2.35-.8-3.55-.8-1.29,0-2.54,.32-3.61,.93-.62,.29-1.2,.42-1.76,.42-1.22,0-2.27-.6-2.88-1.64-.45-.76-.57-1.71-.33-2.59,.24-.89,.79-1.62,1.56-2.06,.03-.02,.06-.03,.09-.05,.56-.25,.75-.7,.78-1.13-.91-1.03-1.61-2.32-2.62-3.26-.98-.91-2.3-1.71-3.46-2.09-1.55-.5-2.25-.58-3.83-.56-.7,0-1.4,.05-2.09,.13-.09,.01-.24,.03-.29,.04-.2,.03-.41,.07-.61,.11-.33,.06-.65,.13-.98,.21-3.07,.74-5.6,1.98-8.28,3.85-2.27,1.59-4.63,3.93-6.11,6.25-.87,1.37-1.37,2.38-1.77,3.68-.19,.61-.33,1.23-.44,1.86,.51,.38,1,.78,1.47,1.21,.99,.9,1.31,2.24,.83,3.5-.53,1.37-1.83,2.3-3.23,2.3-.28,0-.56-.04-.83-.11-1.98-.52-3.73-1.79-4.95-3.6-1.15-.42-2.49-.65-3.9-.65-.89,0-1.79,.09-2.6,.27-7.34,1.62-10.93,9.59-10.68,16.63,.13,3.72,1.32,7.41,3.3,10.67,22.13,19.87,45.41,25.87,62.55,27.48,0-.63,.02-1.27,.09-1.89Zm298.61-15.97c3.35-4.66,7.85-7.34,12.34-7.34,.07,0,.14,0,.21,0,.92-5.2,2.72-8.79,5.63-11.27,2.21-1.89,4.76-3.01,7.56-3.34,.4-.05,.8-.07,1.21-.07,.9,0,1.81,.11,2.69,.34,2.06,.52,3.31,1.54,4.05,3.31,.35,.83,.29,1.72-.17,2.49-.56,.95-1.71,1.67-2.86,1.8-.14,.01-.27,.02-.4,.02h0c-.72,0-1.32-.21-1.85-.39-.32-.11-.61-.21-.91-.26-.14-.02-.34-.03-.55-.03-.33,0-.66,.03-.87,.07-1.3,.25-2.5,.89-3.46,1.85-2.4,2.42-3.12,6.31-3.5,9.8-.21,1.95-1.78,3.48-3.57,3.48-.62,0-1.22-.18-1.79-.52-.62-.38-1.25-.56-1.93-.56-2.67,0-5.47,2.84-7.06,5.28-2.44,3.74-3.74,8.27-3.66,12.76,.01,.82-.25,1.54-.78,2.07-.53,.54-1.26,.83-2.07,.83-1.41,0-2.92-.96-3.06-2.81-.49-6.3,1.21-12.52,4.79-17.5Zm-63.01-13.49c.28-2.08,.89-4.22,1.86-6.52,1.23-2.9,2.87-6.17,5.75-8.38,2.37-1.82,5.31-2.74,8.74-2.74,3.74,0,7.51,1.07,10.37,2,.96,.31,1.61,.89,2.01,1.57,.76,.61,1.41,1.29,2,2.08,.6,.81,1.11,1.67,1.52,2.59,.24,.55,.47,1.1,.66,1.67,.08,.23,.16,.47,.22,.7,.11,.47,.07,.84,0,1.31-.09,.54-.66,.93-1.16,1-.12,.02-.23,0-.34,0-.52,.28-1.15,.27-1.73,0-1.63-.79-3.1-1.84-4.65-2.77-.37-.22-.75-.44-1.14-.64-.36-.19-.67-.33-.89-.41-.76-.29-1.54-.49-2.24-.54-.59-.04-1.07-.42-1.22-.97-1.16-.27-2.35-.45-3.48-.45-1.74,0-3.15,.41-4.31,1.25-1.7,1.23-2.74,3.44-3.66,5.6-.88,2.06-1.38,4.05-1.52,6.03,.17,.59,.31,1.18,.51,1.73,.06,.17,.12,.34,.19,.51,.02,.04,.13,.3,.16,.39,.13,.3,.26,.59,.41,.89,.32,.67,.63,1.34,.98,1.99,.81,1.51-.82,3.19-2.35,2.35-1.47-.82-2.93-1.63-4.47-2.32-.41-.18-.83-.37-1.26-.56-.03,0-.06-.02-.09-.02-.84-.15-1.43-.04-2.25,.18-.23,.06-.46,.14-.68,.22-.04,.01-.08,.03-.11,.04-.08,.04-.16,.07-.25,.11-.42,.2-.82,.43-1.23,.65-.23,.12-.38,.2-.53,.26-2.96,2.05-5.12,5.23-6.46,8.52-1.43,3.53-2,7.53-.14,11.02,.03,.05,.03,.1,.06,.16,.36,.7,.77,1.38,1.21,2.02,.09,.13,.18,.25,.27,.37,.14,.19,0,.02,.09,.12,.16,.2,.32,.39,.48,.57,.34,.39,.68,.78,1.06,1.13,.17,.16,.35,.32,.54,.48,.01,.01,.22,.17,.22,.17,.06,.05,.13,.09,.19,.14,.04,.03,.08,.06,.12,.09,.37,.1,.75,.26,.99,.56,.28,.36,.46,.7,.48,1.16,.02,.38-.19,.91-.48,1.16-.68,.59-1.45,.64-2.3,.43-.46-.11-.9-.3-1.33-.49-.69-.3-1.34-.66-1.94-1.1-.06-.04-.11-.09-.16-.14-2.15-.75-4.01-2.57-5.17-4.44-.62-.99-1.08-2.08-1.4-3.21-.09-.24-.17-.48-.24-.72-.27-.92-.4-1.9-.43-2.86,0-.02,0-.04,0-.06-.78-5.59,1.22-11.42,5.95-17.35,2.17-2.71,4.7-4.64,7.52-5.72,1.42-.55,2.86-.81,4.38-.81,.22,0,.44,0,.67,.02Zm-178.27-96.61c2.46-5.93,6.31-10.54,11.15-13.33,2.99-1.72,6.3-2.76,9.62-3.02-.21-2.24,.2-4.7,1.17-6.93,2.37-5.41,7.7-8.26,10.67-9.49,3.11-1.28,6.67-1.96,10.28-1.96,1.19,0,2.4,.07,3.58,.22,9.71,1.18,17.75,6.69,24.39,12.1,2.42-2.33,6.28-3.18,9.04-3.18,.59,0,1.16,.04,1.71,.11,5.92,.77,11.4,3.65,15.48,8.14,.56-.09,1.13-.14,1.71-.14,3.88,0,7.45,2.11,10.01,4.77,1-4.19,3.3-8,6.76-10.81,1.93-1.57,4.34-2.06,6.49-3.22,.19-.1,.4-.21,.58-.34,.01-.04,.27-.29,.29-.31,.34-.37,.52-.52,.76-.97,.59-1.11,.9-2.36,1.43-3.5,1.24-2.7,3.79-4.77,6.78-5.07,2.15-.22,3.89,.47,5.71-.89,1-.75,1.83-1.76,2.72-2.63,1.11-1.08,2.32-2.01,3.66-2.78,2.87-1.64,5.98-2.64,9.25-3.05,5.79-.72,11.59,.73,17.18,2.14,.23-.02,.47-.03,.7,0,.29,.04,.59,.07,.87,.15,.28,.08,.56,.2,.82,.32,.73,.34,1.34,.96,1.81,1.62,.14,.16,.27,.32,.37,.49,.19,.33,.29,.68,.29,1.06,0,.38-.1,.73-.29,1.06-.14,.2-.28,.41-.46,.57-.14,.11-.29,.22-.43,.33-.09,.06-.19,.1-.29,.13-.14,.06-.21,.1-.34,.12-.18,.03-.37,.05-.55,.07h-.01c-.27,.08-.53,.1-.8,.04-.04,0-.07-.01-.1-.02-.02,0-.04,.02-.07,.02-1.48,.34-3.2,.23-4.72,.28-1.68,.06-3.36,.09-5.05,.11-1.74,.02-3.49,0-5.23-.03-.05,0-.09,0-.14,0-1.69,.3-3.32,.68-4.87,1.13-2.43,.71-6.51,2.36-6.5,5.4,0,.28-.05,.56-.11,.83,.34,.61,.46,1.35,.3,1.96-.38,1.4-1.72,1.91-3.03,1.72-.47-.07-1.15-.16-2.01-.23-.91-.08-1.82-.13-2.74-.12-.84,.01-1.55,.06-2.35,.26-.19,.05-.38,.1-.57,.17-.02,0-.4,.17-.2,.08-.4,.19-.38,.19-.58,.38-.29,.27-.62,.66-.77,.98-.13,.28-.13,.5-.13,.54,0,.05,.03,.27,.03,.35,.03,.14,.07,.29,.11,.43,.06,.18,.27,.76,.25,.71,.78,1.9,1.55,3.6,1.61,5.7,.05,1.76-1.6,2.59-3.12,2.38-4.78-.69-9.36,.44-12.45,3.87-1.38,1.53-2.43,3.66-3.03,5.79-.75,2.66-.9,5.33-.75,8.1,.02,.46-.07,.85-.23,1.17,.03,.16,.05,.3,.07,.46,.48,1.04,.78,2.19,.89,3.39,.08,.95,.05,1.92-.06,2.88,.57,5.95,.31,11.06-.78,15.56-1.44,5.9-4.69,10.63-9.16,13.3-2.63,1.58-5.55,2.41-8.45,2.41-.35,0-.7-.01-1.05-.04-.28,3.95-2,8.01-4.99,11.82-3.24,4.12-7.7,7.67-12.88,10.27-4.01,2.01-7.92,3.03-11.61,3.03-1.78,0-3.52-.24-5.16-.72-7.5-2.18-12.25-8.35-15.57-13.91-.98,1.24-2.2,2.34-3.56,3.22-2.32,1.5-4.86,2.26-7.54,2.26-5.07,0-10.3-2.88-13.65-7.51-4.89-6.76-4.33-14.88-2.76-20.95-1.44,.15-2.76,.22-4.01,.22-2.6,0-4.9-.31-7.03-.94-5.58-1.67-9.54-5.98-10.58-11.54-.97-5.18-.19-11.22,2.21-17Zm-47.64,20.69s-.04,.03-.05,.04c-.07,.06-.15,.12-.22,.18-.3,.26-.58,.54-.85,.82-.12,.13-.23,.26-.34,.39-.07,1.54-.41,3.21-2.22,4.27-.71,.42-1.5,.62-2.42,.62-.65,0-1.28-.1-1.88-.19-.57-.09-1.1-.17-1.61-.17-1.24,0-2.5,.26-3.66,.76-1.29,.55-2.45,1.38-3.45,2.45-.45,.48-.79,1.08-1.15,1.71-.46,.8-.93,1.64-1.68,2.33-.64,.59-1.39,.9-2.19,.9-1.65,0-3.06-1.33-3.26-3.08-.27-2.36,1.41-4.63,2.92-6.35,1.28-1.46,2.9-2.73,4.69-3.66,1.86-.97,3.87-1.59,5.97-1.84,.4-.05,.79-.06,1.18-.07,.03-2.15,1-4.18,2.42-5.76,2.97-3.33,7.48-5.58,11.78-6.59,2.26-.53,4.5-.68,6.79-.31,.48,.08,1,.2,1.52,.38,1.05-1.83,2.48-3.42,4.22-4.62,2.16-1.49,4.71-2.27,7.38-2.27,2.37,0,4.72,.63,6.8,1.81,1.07,.61,1.55,1.82,1.21,3.08-.33,1.24-1.32,2.07-2.47,2.07-.31,0-.63-.06-.94-.18-1.1-.43-2.33-.66-3.54-.66-1.85,0-3.56,.51-4.94,1.48-2.19,1.53-3.43,4.32-3.18,7.11,.07,.77-.16,1.5-.68,2.11-.61,.72-1.55,1.19-2.53,1.26-1.78,.13-3.6,.18-5.35,.23-.62,.02-1.24,.03-1.86,.05-.55,.02-1.12,.02-1.68,.02-.38,0-.77,0-1.15,.01,0,0,0,0,0,0-.17,.04-.35,.05-.52,.09-.35,.07-.67,.18-1,.3-.07,.03-.14,.07-.2,.1-.18,.09-.35,.19-.53,.29-.16,.1-.31,.2-.46,.3-.08,.05-.15,.11-.23,.16-.03,.02-.04,.03-.05,.04-.06,.04-.11,.09-.17,.13-.09,.06-.18,.12-.27,.19-.04,.03-.22,.17-.14,.1Z"/>
      <path class="cls-1" d="M442.05,507.72c-10.94-3.29-21.51-7.65-31.56-13.25,3.11,4.63,4.79,7.45,4.99,7.78l.28,.48,.22,.51c3.4,8.12,7.37,15.52,11.86,22.22,9.18,1.03,18.57,1.47,28.1,1.42-3.33-3.41-6.9-8.34-5.7-13.07-2.67-1.67-5.57-3.73-8.19-6.1Z"/>
      <path class="cls-1" d="M445.46,414.09c1,.79,2.49,1,3.93,1.2l.54,.08c.58,.09,1.15,.18,1.73,.28,1.38,.23,2.81,.47,4.18,.54,.17,0,.32,.01,.48,.01,.09,0,.17,0,.25,0,.25-2.08,.55-4.15,.9-6.21-3.65-3.05-6.88-6.67-9.76-10.51-.88,.73-1.61,1.59-2.1,2.44-1.54,2.67-2.21,6.22-1.7,9.05,.27,1.48,.79,2.54,1.55,3.13Z"/>
      <path class="cls-1" d="M438.77,385.63c-1.1-.42-2.19-.62-3.27-.62-2.86,.01-5.16,1.34-6.59,2.45-2.31,1.79-3.87,4.01-4.29,6.07-.09,.44-.08,.91,0,1.35,.03,.09,.05,.19,.06,.28,.11,.42,.28,.81,.52,1.1,.33,.41,.74,.6,1.24,.6h0c1.89,0,3.19,1.26,3.25,3.07,.05,1.6-1.03,3.38-3.15,3.52-5.39,.36-11.24,3.96-11.48,9.95-.1,2.66,.96,4.99,2.85,6.21,.64,.41,1.35,.73,2.08,.93,1.19-.71,2.52-1.08,3.88-1.08,1.14,0,2.25,.26,3.29,.78,1.04,.52,1.69,1.63,1.7,2.89,0,1.28-.64,2.41-1.69,2.95-1.39,.72-2.9,1.15-4.49,1.29-.25,.67-.34,1.53-.27,2.56,.14,2.17,1.21,4.31,2.86,5.73,1.05,.91,2.54,1.43,4.09,1.43,1.38,0,2.67-.4,3.66-1.13,.41-1.81,1.55-3.25,3.23-4.1,.46-.23,.98-.35,1.52-.35,1.2,0,2.39,.6,3.02,1.52,.56,.81,.67,1.78,.3,2.74-.34,.89-.79,1.75-1.34,2.56,.5,.62,1.38,1.3,1.84,1.57,1.43,.82,3.14,1.27,4.83,1.27,.51,0,1.02-.04,1.52-.12,2.13-.35,4.06-1.44,5.58-3.14,.64-.72,1.16-1.54,1.49-2.36,.11-.28,.19-.56,.28-.85,.08-.28,.17-.57,.27-.85,.01-.03,.03-.06,.04-.09-.04-3.58,.07-7.15,.31-10.72-1.24-.06-2.45-.25-3.63-.45l-.9-.15-1.14-.18c-3.71-.56-7.91-1.2-10.56-4.68-2.6-3.42-2.64-7.83-2.21-10.92,.46-3.37,1.77-8.08,5.37-11.35,.4-.36,.82-.68,1.25-.99-.7-1.06-1.39-2.13-2.05-3.19-1.13-1.81-2.22-3.64-3.28-5.5Z"/>
      <path class="cls-1" d="M382.55,474.15c4.65,4.31,9.54,8.36,14.72,12.05,2.33,1.64,4.71,3.2,7.11,4.68-.03-.18-.07-.36-.1-.54-.06-.4-.04-.79,.03-1.17-7.65-4.4-14.93-9.45-21.76-15.03Z"/>
    </g>
  </g>
</svg>