<?xml version="1.0" encoding="UTF-8"?>
<svg id="_圖層_2" data-name="圖層 2" xmlns="http://www.w3.org/2000/svg" viewBox="0 0 867.9 709.43">
  <defs>
    <style>
      .cls-1 {
        fill: #e1a442;
      }
    </style>
  </defs>
  <g id="_圖層_6" data-name="圖層 6">
    <g>
      <path class="cls-1" d="M227.6,379.66c.59,0,1.18-.16,1.71-.5,1.48-.95,1.9-2.91,.95-4.39-36.82-57.28,.93-124.37,1.32-125.04,.6-1.05,.56-2.35-.12-3.35-46.49-69.31-33.82-102.45-30.32-109.11,29.35,.07,47.06,21.4,52.03,28.3,.47,.82,1.03,1.64,1.66,2.45,1.03,1.32,2.91,1.61,4.3,.66,1.38-.95,1.79-2.81,.93-4.24-.12-.21-.66-1.09-1.61-2.44-.84-1.62-1.09-3.13-.77-4.58,.43-1.93,1.87-3.62,3.29-4.84,16.94,33.47,49.88,34.8,51.32,34.84,.03,0,.06,0,.09,0,1.71,0,3.12-1.36,3.17-3.08,.05-1.75-1.33-3.21-3.08-3.26h0c-1.33-.04-32.64-1.44-47.33-34.49-.35-.79-1.01-1.41-1.83-1.7-.81-.29-1.71-.24-2.49,.15-.29,.14-6.45,3.29-8.77,9.11-9.37-10.1-27-23.88-52.81-23.21-.98,.02-1.89,.5-2.47,1.29-1.05,1.43-24.95,35.7,28.34,116.07-2.65,5.03-10.13,20.37-14.4,41-6.85,33.06-1.94,63.8,14.2,88.9,.61,.94,1.63,1.46,2.67,1.46Z"/>
      <path class="cls-1" d="M284.56,177.8c.97,0,1.93-.45,2.55-1.29,.37-.48,27.65-35.72,98.94-34.31,1.76,.09,3.2-1.36,3.24-3.11,.04-1.75-1.36-3.2-3.11-3.24-75.01-1.51-103.01,35.32-104.17,36.89-1.04,1.41-.74,3.4,.67,4.44,.57,.42,1.23,.62,1.88,.62Z"/>
      <path class="cls-1" d="M527.5,268.42c-.05-.28-.07-.57-.05-.85,2.36-31.14-10.4-59.88-37.94-85.41-19.12-17.73-39.13-27.67-42.34-29.21-3.29-.52-13.61-4.46-17.29-33.11-2.31,2.74-3.99,5.16-4.23,6.19,.1,1.44-.79,2.79-2.18,3.24-1.47,.48-3.06-.17-3.79-1.53-.61-1.15-13.75-25.95-16.93-40.82-7.54,3.68-25.02,16.09-25.75,52.13-.03,1.75-1.45,3.15-3.24,3.11-1.75-.04-3.14-1.49-3.11-3.24,1.02-50.01,32.46-59.12,33.8-59.48,.91-.25,1.89-.08,2.66,.47s1.26,1.41,1.33,2.36c.68,9.11,9.3,27.49,13.94,36.8,2.12-3,5.02-6.16,7.69-8.83,.88-.88,2.18-1.16,3.34-.73,1.16,.43,1.97,1.49,2.07,2.73,2.48,31.39,11.72,34.22,12.65,34.42,.5-.04,.74,.07,1.23,.29,.92,.42,22.83,10.52,44.34,30.42,28.57,26.44,42.44,57.62,40.12,90.21,.66,2.91,5.2,20.99,16.22,20.99h.04c1.75,0,3.17,1.42,3.17,3.17,0,1.75-1.41,3.18-3.17,3.18h-.05c-17.13,0-22.32-25.42-22.53-26.5Zm-101.87-142.61s0,0,0,0c0,0,0,0,0,0Z"/>
      <path class="cls-1" d="M533.16,302.81c.38-5.7,4.76-10.21,13.03-13.38,.1-.04,.19-.08,.29-.1,.84-.23,20.53-5.57,30.51,2.36,4,3.19,5.89,7.88,5.62,13.84-.01,.67-.3,16.52-8.76,23.83-2.83,2.46-6.18,3.69-10.01,3.69-.83,0-1.66-.05-2.51-.17-.39-.05-.77-.18-1.12-.37-2.87-1.57-28-15.82-27.06-29.71Z"/>
      <path class="cls-1" d="M532.21,385.8c19.04,0,39-6.42,40.3-6.84,.07-.02,.15-.05,.22-.08,10.21-4.18,16.14-10.32,17.61-18.23,3.14-16.86-15.83-35.02-16.64-35.79-1.27-1.2-3.28-1.15-4.48,.13-1.21,1.27-1.15,3.28,.12,4.49,.17,.16,17.27,16.56,14.76,30.02-1.05,5.63-5.65,10.16-13.66,13.46-2.47,.78-46.51,14.49-61.75-.18-5.51-5.3-6.52-14.2-3.03-26.43,.04-.14,.07-.29,.09-.44,.19-1.35,5.01-33.03,34.6-29.38,1.73,.22,3.32-1.02,3.54-2.76s-1.02-3.32-2.76-3.54c-34.31-4.21-41.06,31.18-41.63,34.56-4.13,14.58-2.52,25.54,4.78,32.57,6.63,6.39,17.14,8.45,27.93,8.45Z"/>
      <path class="cls-1" d="M331.24,477.92c2.57,0,4.06-.02,4.14-.02,.08,0,.15,0,.23-.01,21.5-1.88,85.43-13.68,91.07-14.73,1.27,.01,2.54,.02,3.78,.02,71.49,0,112.09-24.61,115.09-26.5,34.25-17.94,33.82-61.2,33.78-63.04-.03-1.75-1.49-3.12-3.24-3.11-1.75,.03-3.14,1.48-3.11,3.23h0c0,.41,.36,41.28-30.49,57.35-.08,.04-.16,.09-.24,.14-.42,.26-42.57,26.52-115.81,25.55-.21,0-.42,.01-.62,.05-.69,.13-68.81,12.76-90.66,14.69-2.49,.03-43.83,.41-72.9-4.38-.52-.07-38.93-5.85-62.31-27.63,7.29,2.7,16.72,3.8,27.91,.02,.02,0,12.26-3.56,27.97-1.02,1.66,.28,3.25-.81,3.61-2.45,.36-1.65-.63-3.29-2.25-3.74-.47-.13-43.05-12.25-71.61-41.28,18.13,7.48,50.86,19.54,67.95,17,1.51-.22,2.64-1.49,2.71-3.01s-.97-2.88-2.46-3.22c-.3-.07-25.73-6.17-52.46-26.89,19.92,6.98,53.57,13.96,91.87,1.78,1.09-.36,24.96-8.48,40.15-21.82,4.18,1.22,15.33,4.4,26.9,6.92,27.54,6.02,34.03,3.41,36.61,.46,.7-.8,.95-1.89,.68-2.92-.28-1.02-1.05-1.84-2.05-2.18-5.68-1.92-12.63-4.52-18.83-7.14,13.43,2.14,31.17,3.83,43.92,.88,.5-.11,54.8-11.67,83.05-8.27,1.74,.19,3.32-1.03,3.53-2.77s-1.03-3.32-2.77-3.53c-29.32-3.53-82.93,7.89-85.19,8.38-21.31,4.93-59.78-4.56-60.16-4.65-1.29-.32-2.63,.19-3.39,1.28-.75,1.09-.75,2.53,.01,3.62,3.12,4.46,15.95,10.08,26,13.96-4.52-.37-10.95-1.32-20.1-3.32-14.31-3.13-27.97-7.26-28.1-7.3-1.08-.33-2.26-.06-3.09,.72-14.08,13.14-38.9,21.58-39.15,21.66-57.41,18.25-105.19-9.34-105.67-9.62-1.38-.81-3.14-.47-4.12,.78-.98,1.26-.87,3.05,.25,4.19,16.14,16.25,33.18,26.6,46.5,32.96-24.07-6.08-52.35-19.06-52.74-19.25-1.32-.61-2.89-.24-3.8,.89-.91,1.13-.94,2.74-.07,3.9,18.33,24.34,46.4,39.28,64.97,47.09-6.32,.62-10.3,1.79-10.6,1.88-23.78,8.02-37.63-9.01-38.2-9.74-1.02-1.28-2.85-1.58-4.22-.69-1.37,.9-1.84,2.68-1.08,4.14,19.7,37.37,76.46,45.88,78.87,46.22,24.82,4.09,58.33,4.47,69.93,4.47Z"/>
      <path class="cls-1" d="M317.41,206.39c9.44,9.55,25.26,20.45,48.06,19.65,8.66-1.1,77.99-9.61,95.86,.43,13.09,6.3,29.02,12.82,32.55,12.7,.04-.01,.08-.01,.11-.01,2.69-.57,9.76-2.84,11.7-6.87,.8-1.7,.61-3.66-.61-6.04-.05-.09-.11-.2-.15-.31-.14-.33-13.26-33.09-35.22-36.84-.16-.03-.33-.07-.47-.12-.22-.07-22.06-6.95-40.66-.11-2.71,1.36-29.43,14.44-53.86,12.97-2.44,.16-19.86,1.18-35.4-3.31,3.38,3.05,6.74,5.36,9.36,5.89,.66,.04,1.32,.07,1.95,.08,1.79,.05,3.23,1.48,3.3,3.27,.05,1.78-1.26,3.31-3.04,3.49-.91,.09-1.83,.07-2.78-.07-5.68-.3-19.31-1.32-30.68-4.8Z"/>
      <path class="cls-1" d="M405.87,333.04c-.1,0-.2-.02-.3-.04-28.3-4.79-38.58-26.17-42.22-43.26-3.73-17.51,3.84-35.53,18.84-44.82,23.9-14.81,55.93-12.04,58.82-11.75,36.93,.23,58.23,18.52,69.59,33.85,12.28,16.55,15.77,32.87,15.92,33.56,.12,.57,.08,1.15-.11,1.7-9.63,27.4-65.15,31.49-97.43,31.49-12.74,0-21.87-.64-23.11-.73Zm99.49-62.43c-15.29-20.5-37.01-30.95-64.53-31.08-.11,0-.21,0-.32-.02-.32-.03-32.29-3.24-54.97,10.82-12.73,7.89-19.15,23.2-15.97,38.1,3.23,15.14,12.25,34.05,36.93,38.3,28.23,2.07,102.59,1.37,113.61-25.71-.88-3.49-4.77-17.04-14.74-30.41Z"/>
      <path class="cls-1" d="M472.31,301.94c-13.79-.68-23.4-4.52-28.55-11.43-5.36-7.18-4.35-15.63-3.27-20.03,.68-2.76,2.54-5.09,5.12-6.37,28.11-14.03,45.04,5.72,52.62,18.75h0c2,3.42,2.17,7.61,.48,11.19-1.67,3.54-4.98,6.03-8.83,6.65-6.91,1.12-13.11,1.27-15.95,1.27-.95,0-1.53-.02-1.63-.02Zm20.44-15.89c-7.9-13.56-22.01-27.39-44.3-16.26-.89,.44-1.56,1.27-1.79,2.2-.81,3.31-1.61,9.63,2.19,14.73,3.96,5.31,11.96,8.3,23.71,8.88,.08,0,7.7,.22,16.31-1.17,1.82-.29,3.31-1.42,4.11-3.1,.81-1.71,.73-3.64-.23-5.28h0Z"/>
      <path class="cls-1" d="M463.03,275.14c.88-3.29,3.83-7.47,8.79-7.47,.69,0,1.41,.08,2.17,.25,3.99,.91,7.12,4.08,8.18,8.23,2.44,9.54,1.88,16.11-1.64,19.57-1.1,1.3-3.35,2.93-6.32,2.93-.72,0-1.49-.1-2.29-.32-2.58-.72-4.75-2.7-5.82-5.33-2.27-5.6-4.63-13.2-3.07-17.86Z"/>
      <path class="cls-1" d="M438.21,655.83c1.07,0,2.11-.54,2.71-1.52,.92-1.5,.44-3.45-1.05-4.36-30.87-18.89-24.12-98.93-24.05-99.73,.14-1.57-.9-3.01-2.44-3.37-1.54-.36-3.11,.46-3.68,1.94-1.83,4.7-3.38,8.1-4.65,10.55-.29-22.74-7.1-67.62-7.44-69.86-.25-1.6-1.65-2.74-3.27-2.69-1.62,.07-2.92,1.35-3.03,2.96-.73,10.99-6.5,16.71-8.39,18.3-2.82-2.03-3.96-20.48-2.28-39.14,.16-1.75-1.13-3.29-2.88-3.45-1.74-.15-3.29,1.13-3.45,2.88-.81,8.94-2.84,38.59,4.81,44.72,1.71,1.37,3.84,1.76,5.99,1.07,.3-.09,.58-.23,.84-.41,.27-.18,4.21-2.96,7.46-8.8,2.97,21.87,6.68,54.15,4.84,63.04-.31,1.48,.47,2.97,1.86,3.56,.55,.23,1.69,.53,3.18-.09,1.28-.54,3.04-1.78,5.49-5.75-.36,25.6,2.47,74.18,27.79,89.67,.52,.32,1.09,.47,1.65,.47Z"/>
      <path class="cls-1" d="M432.08,692.15c9.58,0,16.73-2.39,21.37-7.16,7.77-7.99,5.18-19.33,5.06-19.81-.98-4.3-2.54-7.82-4.64-10.43-2.66-3.31-6.15-5.21-10.35-5.63-11.46-1.15-24.46,9.47-25.01,9.93-1.35,1.12-1.54,3.12-.42,4.47,1.12,1.35,3.12,1.54,4.47,.42,3.18-2.62,13.04-9.25,20.33-8.5,2.48,.25,4.46,1.33,6.04,3.29,1.49,1.85,2.64,4.51,3.41,7.89,.02,.1,1.88,8.52-3.47,13.98-5.4,5.51-16.67,6.66-32.6,3.34-.2-.04-.4-.06-.6-.07-14.82-.22-31.61-1.04-34.33-2.03-.63-.39-1.43-.73-2.43-1.14-2.68-1.12-7.17-3-7.8-6.24-.61-3.11,2.08-7.86,7.59-13.41,2.04-1.23,4.11-2.09,5.72-2.54,2.98,.66,4.75,.74,5.07,.74,.03,0,.05,0,.08,0,1.27,0,2.42-.75,2.92-1.92,.51-1.19,.25-2.58-.67-3.5-1.9-1.9-4.51-2.23-7.13-1.85-10.47-2.73-36.35-13.44-66.69-55.21,1.8,1.04,3.65,1.99,5.47,2.76,1.42,.6,3.08,.09,3.91-1.22,.83-1.31,.6-3.02-.55-4.06-.15-.14-15.56-14.11-29.48-29.48-11.86-13.09-17.51-21.51-20.12-26.86,3.6,2.56,8.46,3.85,14.59,1.73,.95-.33,1.7-1.1,1.99-2.06,.3-.97,.12-2.02-.48-2.83-.24-.33-24.17-32.97-20.49-62.93,.21-1.74-1.02-3.32-2.76-3.54-1.74-.21-3.32,1.02-3.54,2.76-3.22,26.18,12.13,53.04,18.78,63.25-6.25-.45-8.91-7.16-9.25-8.07-.4-1.08-1.35-1.87-2.49-2.05-1.14-.18-2.29,.27-3,1.18-3.47,4.46-4.96,13.85,22.09,43.71,3.62,3.99,7.33,7.89,10.86,11.48-.19,.1-.37,.22-.54,.37-1.21,1.03-1.48,2.79-.63,4.13,30.03,47.15,57.22,64.34,72.98,70.61-.12,.07-.22,.14-.31,.19-.2,.13-.39,.27-.56,.44-7.54,7.51-10.68,13.85-9.59,19.39,1.29,6.57,7.98,9.37,11.58,10.88,.56,.23,1.32,.55,1.54,.68,2.45,1.63,14.99,2.64,37.28,2.98,6.25,1.28,11.86,1.93,16.82,1.93Z"/>
      <path class="cls-1" d="M468.79,694.86c14.07,0,20.11-8.45,20.46-8.96,.06-.09,.12-.18,.17-.27,9.28-16.92-1.34-30.25-1.8-30.81-.1-.12-.2-.23-.31-.33-15.02-13.8-31.46-6.09-38.05-.09-1.3,1.18-1.39,3.19-.21,4.48,1.18,1.29,3.18,1.39,4.48,.22,.61-.55,14.91-13.11,29.3-.11,1.04,1.39,7.75,11.12,1.13,23.41-.98,1.27-10.68,12.66-35.5,.6-1.58-.77-3.48-.11-4.24,1.47-.77,1.58-.11,3.48,1.47,4.24,9.36,4.54,17,6.14,23.12,6.14Z"/>
      <path class="cls-1" d="M498.27,694.87c7.29,0,12.85-2.18,16.53-6.48,6.59-7.71,4.28-19.19,4.18-19.67-.02-.08-.04-.16-.06-.24-2.35-8.06-6.71-13.7-12.97-16.76-11.24-5.51-24.34-.44-24.89-.22-1.63,.64-2.43,2.49-1.79,4.12,.64,1.63,2.48,2.42,4.11,1.79h0c.11-.04,11.11-4.25,19.8,.03,4.54,2.23,7.77,6.5,9.6,12.68,.18,.98,1.48,9.17-2.83,14.17-2.64,3.07-7.09,4.48-13.19,4.2-5.73-.83-11.47-2.19-12.6-2.98-1.38-1.08-3.37-.84-4.45,.54-1.08,1.38-.83,3.38,.54,4.46,2.84,2.23,11.96,3.73,15.75,4.28,.1,.01,.19,.02,.29,.03,.67,.03,1.33,.05,1.97,.05Z"/>
      <path class="cls-1" d="M412.56,574.4c.44,0,.88-.09,1.3-.28,37.28-16.76,32.97-96.43,32.77-99.82-.09-1.47-1.17-2.68-2.62-2.94-1.45-.25-2.88,.52-3.46,1.87-2.43,5.63-4.43,8.93-5.92,10.86,2.65-10.84-.05-24.06-.19-24.74-.36-1.71-2.04-2.81-3.75-2.46-1.72,.36-2.82,2.04-2.46,3.75,.04,.18,3.61,17.76-1.6,26.73-.63,1.09-.56,2.45,.18,3.47,.9,1.23,2.87,2.58,5.46,2.28,2.78-.31,5.47-2.34,8.2-6.25-.29,22.69-3.99,70.11-29.21,81.45-1.6,.72-2.31,2.6-1.59,4.2,.53,1.18,1.69,1.87,2.9,1.87Z"/>
      <path class="cls-1" d="M527.11,654.05c-4.98-10.13-19.68-26.47-19.82-26.64-.91-1.01-1.08-2.5-.41-3.69,14.62-25.93,11.69-53.88,7.36-71.36-1.82,3.43-4.38,5.83-6.48,7.11-3.19,2.18-5.71,1.32-6.93,.6-3.33-1.94-6.67-7.39-6.24-33.03,0-.46,.02-.93,.03-1.39-3.32,3.11-6.48,4-6.77,4.08-1.08,.28-2.23-.02-3.03-.8-.8-.78-1.13-1.93-.87-3.01,5.89-24.49-13.99-67.21-14.19-67.63-.75-1.59-.06-3.48,1.52-4.22,1.59-.75,3.48-.07,4.22,1.52,.79,1.67,17.63,37.86,15.73,64.44,1.51-1.73,3.02-4.26,3.96-7.9,.42-6.94,.89-11.9,.9-11.98,.16-1.63,1.53-2.87,3.16-2.87h.06c1.66,.03,3.01,1.33,3.11,2.98,.33,5.26-.11,9.61-1,13.19-1.24,20.9-.32,38.25,2.43,40.99,.09-.05,.22-.12,.37-.23,.05-.04,.12-.08,.18-.12,.99-.61,9.52-6.34,3.97-19.3-.68-1.59,.03-3.43,1.61-4.14,1.58-.71,3.43-.03,4.17,1.53,.95,2,22.7,48.74-.65,92.68,4.01,4.58,14.87,17.38,19.31,26.39,.77,1.57,.13,3.48-1.45,4.25-.45,.22-.93,.33-1.4,.33-1.17,0-2.3-.65-2.85-1.77Z"/>
      <path class="cls-1" d="M553.66,693.6c7.46,0,12.84-1.85,16.25-5.54,7.22-7.83,1.82-20.3,1.3-21.44-4.97-11.88-11.88-18.74-20.53-20.37-15.09-2.84-29.28,11.62-29.88,12.23-1.22,1.26-1.19,3.27,.07,4.49,1.26,1.22,3.26,1.19,4.48-.07h0c.12-.13,12.47-12.63,24.16-10.41,6.42,1.22,11.76,6.82,15.85,16.63,.02,.04,.03,.08,.05,.12,.04,.09,4.28,9.71-.2,14.54-3.26,3.52-13.96,7.5-48.95-5.44-1.65-.61-3.47,.23-4.08,1.88s.23,3.47,1.88,4.08c16.79,6.21,29.93,9.31,39.59,9.31Z"/>
      <path class="cls-1" d="M574.46,695.39c7.95,0,13.96-2.12,17.96-6.36,8.26-8.75,4.28-22.77,4.1-23.36-2.97-11.22-8.41-18.46-16.14-21.45-12.69-4.91-26.46,3.85-27.03,4.23-1.47,.95-1.89,2.92-.94,4.39,.95,1.47,2.92,1.89,4.38,.94h0c.12-.08,11.68-7.38,21.33-3.63,5.71,2.22,9.85,8.01,12.29,17.22,.05,.18,3.15,11.24-2.62,17.32-4.46,4.7-13.67,5.61-26.63,2.61-1.7-.4-3.41,.67-3.81,2.38-.4,1.71,.67,3.41,2.38,3.81,5.48,1.27,10.4,1.9,14.74,1.9Z"/>
      <path class="cls-1" d="M599.26,693.25c4.42,0,8.09-1.2,10.96-3.61,7.87-6.58,6.11-19.44,6.04-19.99-1.74-9.68-5.72-16.22-11.85-19.57-8.87-4.84-18.7-.87-19.12-.69-1.62,.67-2.39,2.53-1.72,4.15,.67,1.61,2.52,2.39,4.14,1.72,.13-.05,7.55-2.97,13.69,.42,4.33,2.39,7.22,7.43,8.58,14.99h0s1.3,9.82-3.86,14.11c-3.27,2.73-8.78,2.83-16.38,.31-1.67-.55-3.46,.35-4.01,2.01-.55,1.66,.35,3.46,2.01,4.01,4.27,1.42,8.11,2.13,11.5,2.13Z"/>
      <path class="cls-1" d="M468.52,649.08c.11,0,.23,0,.34-.02,1.74-.19,3.01-1.75,2.82-3.49-2.48-23.25-26.17-31.78-27.18-32.13-24.03-8.74-28.68-26.18-28.87-26.92-.43-1.7-2.14-2.73-3.84-2.31-1.7,.42-2.74,2.12-2.32,3.82,.21,.87,5.49,21.42,32.9,31.39,.24,.09,20.95,7.61,22.99,26.82,.17,1.63,1.55,2.84,3.15,2.84Z"/>
      <path class="cls-1" d="M109.83,705.47c.42,0,.84,0,1.26,0,26.98-.43,65.88-8.1,98.05-42.22,1.31-1.27,18.07-17.72,32.31-42.34,19.35-33.45,24.43-65.88,14.69-93.8-2.23-9.91-11.6-27.39-31.46-23.88-.08,.01-.17,.03-.25,.06-.26,.07-26.39,7.27-26.06,38.55,.07,6.57-.47,12.95-1.6,18.98-3.9,20.78-17.5,54.27-33.53,74.48-2.56,2.48-45.06,42.62-78.85,14.91-1.05-.83-24.4-19.62-15.37-48.53,.52-1.67-.41-3.45-2.08-3.98-1.67-.52-3.45,.41-3.98,2.08-10.37,33.17,17.18,55.17,17.46,55.38,16.23,13.31,36.63,14.8,58.93,4.24,16.45-7.78,28.01-19.25,28.49-19.73,.08-.08,.16-.17,.24-.27,16.7-20.96,30.87-55.82,34.93-77.42,1.21-6.43,1.78-13.23,1.71-20.21-.27-25.43,19.6-31.84,21.22-32.32,18.82-3.2,23.85,18.29,24.05,19.21,.03,.12,.06,.25,.11,.37,22.31,63.47-44.73,129.04-45.41,129.69-.04,.04-.07,.07-.11,.11-30.66,32.55-67.81,39.87-93.58,40.28-17.06,.25-33.93-5.48-47.4-16.2C17.15,645.98-1.23,599.55,8.96,544.9c7.63-40.95,29.24-71.29,29.45-71.59,50.8-68.74,159.25-63.39,160.34-63.33,1.72,.12,3.25-1.24,3.35-2.99,.1-1.75-1.24-3.25-2.99-3.35-1.14-.06-28.49-1.51-62.73,5.78-31.76,6.77-75.43,22.7-103.1,60.14-.94,1.31-22.68,31.84-30.57,74.17-7.32,39.28-3.39,96.18,56.92,144.15,14.29,11.36,32.07,17.58,50.19,17.58Z"/>
      <path class="cls-1" d="M205.69,525.97c.84,0,1.68-.33,2.3-.98,1.21-1.27,1.16-3.28-.11-4.49-2.41-2.3-59.66-56.13-115.73-43.46-1.71,.39-2.78,2.09-2.4,3.8s2.09,2.78,3.8,2.4c52.72-11.93,109.38,41.32,109.94,41.86,.61,.59,1.4,.88,2.19,.88Z"/>
      <path class="cls-1" d="M233.1,672.24c.71,0,1.42-.23,2.01-.72,1.36-1.11,1.56-3.11,.45-4.47-5.8-7.1-6.3-23.2-6-28.81,.09-1.75-1.25-3.24-3-3.34-1.78-.07-3.25,1.25-3.34,3-.05,.92-1.12,22.7,7.42,33.16,.63,.77,1.54,1.17,2.46,1.17Z"/>
      <path class="cls-1" d="M229.84,709.43c22.59,0,36.58-4.17,41.64-12.4,3.52-5.73,1.47-11.32,.78-12.86-3.41-12.95-9.18-20.5-17.16-22.41-14.68-3.52-30.48,14.09-31.15,14.84-1.16,1.31-1.04,3.32,.27,4.48,1.31,1.16,3.32,1.04,4.48-.27,3.85-4.33,15.82-15.06,24.92-12.87,5.58,1.35,9.8,7.44,12.57,18.12,.06,.24,.15,.47,.27,.69,.06,.12,1.75,3.57-.44,7.04-2.32,3.69-10.54,9.8-39.64,9.27-13.67-.31-51.62-3.28-62.67-13.19-1.31-1.17-3.31-1.06-4.48,.24-1.17,1.3-1.06,3.31,.24,4.48,15.05,13.5,64.67,14.76,66.78,14.81,1.22,.02,2.42,.03,3.59,.03Z"/>
      <path class="cls-1" d="M270.45,706.17c11.98,0,19.92-2.8,23.7-8.36,4.64-6.84,1.18-15.05,.27-16.94-2.98-11.67-8.25-18.94-15.66-21.63-11.07-4-22.31,4.08-22.78,4.43-1.41,1.04-1.72,3.02-.69,4.44,1.03,1.41,3.02,1.72,4.43,.69,.11-.08,9.04-6.45,16.9-3.57,5.36,1.95,9.3,7.85,11.72,17.53,.06,.25,.16,.5,.28,.73,.03,.05,3.28,6.37,.25,10.79-3.37,4.91-13.75,6.64-29.23,4.87-1.74-.22-3.32,1.05-3.51,2.79-.2,1.74,1.05,3.32,2.79,3.51,4.18,.48,8.03,.72,11.53,.72Z"/>
      <path class="cls-1" d="M305.21,704.33c3.83,0,6.96-1.02,9.37-3.05,7.42-6.27,4.3-19.33,4.16-19.89-.05-.2-.12-.4-.21-.59-5.38-11.46-11.88-17.91-19.33-19.17-8.79-1.49-15.18,4.94-15.45,5.21-1.23,1.25-1.2,3.26,.05,4.49,1.25,1.22,3.25,1.2,4.48-.04,.09-.09,4.46-4.35,9.91-3.39,5.12,.9,10.12,6.18,14.45,15.3,.65,2.93,1.37,10.25-2.17,13.23-3.1,2.61-9.77,1.9-18.77-2-1.6-.7-3.48,.04-4.17,1.65-.7,1.61,.04,3.48,1.65,4.17,6.25,2.71,11.61,4.07,16.03,4.07Z"/>
      <path class="cls-1" d="M253.08,664.48c.7,0,1.4-.23,1.99-.7,28.89-23.21,82.51-35.68,83.05-35.8,1.71-.39,2.78-2.09,2.39-3.8-.39-1.71-2.09-2.78-3.8-2.39-2.26,.52-55.56,12.92-85.61,37.04-1.37,1.1-1.58,3.1-.49,4.46,.63,.78,1.55,1.19,2.48,1.19Z"/>
      <path class="cls-1" d="M250.78,259.39c3.5,0,6.68-.78,9.52-2.34,12.98-7.13,13.18-27.69,13.18-28.56,0-.11,0-.22-.02-.32-4.85-48.38-74.31-82.96-77.26-84.41-1.57-.77-3.47-.12-4.25,1.45-.77,1.57-.12,3.47,1.45,4.25,.69,.34,69.06,34.38,73.72,79.16-.04,1.7-.66,17.82-9.9,22.88-6.11,3.34-15.09,1.31-26.7-6.04-1.48-.94-3.44-.5-4.38,.99-.94,1.48-.5,3.44,.98,4.38,9.02,5.71,16.93,8.57,23.64,8.57Z"/>
      <path class="cls-1" d="M573.9,391.97s-88.04,29.02-211.35,2.15c0,0-42.51-16.39-37.38,9.09,0,0,7.48,16.96,40.41,14.99,0,0,70.54-1.56,114.5,.19,13.13,.52,26.24-1.27,38.74-5.31,14.57-4.71,34.56-9.4,50.14-6.42l4.93-14.7Z"/>
      <path class="cls-1" d="M377.34,132.76c1.11,1.32,2.82,1.09,4.39,1.07,1.47-.01,2.94-.02,4.41-.03,2.94-.02,5.88-.02,8.82-.02,6.09,0,12.18,0,18.26-.03,2.22,0,3.22-3.2,1.16-4.29-2.93-1.55-5.87-3.08-8.81-4.62-.26-.3-.6-.53-1-.69-.38-.16-.75-.29-1.13-.43-2.94-1.55-5.88-3.12-8.78-4.74-2.64-1.48-5.31-3.02-7.62-5-1.06-.91-2.08-1.9-2.95-3-.92-1.16-1.61-2.47-2.57-3.59-1.22-1.43-3.03,.17-2.81,1.64,.25,1.68,1.19,3.3,2.33,4.75-2.11,3.73-3.4,7.74-3.99,11.96,0,.01,0,.02-.01,.03,0,0,0,0,0,0-.03,.21-.06,.41-.09,.62-.09,.76,.18,1.32,.63,1.7,0,.31,0,.62,.02,.93,.02,.3,.09,.57,.18,.82-.16,.12-.32,.26-.46,.44-.65,.78-.65,1.71,0,2.48Z"/>
      <path class="cls-1" d="M267.27,157.61c1.09,1.82,1.9,3.73,2.59,5.7,.25-.03,.49-.03,.72,.05,.93,.31,1.4,.99,2.02,1.69,.46,.52,.93,1.04,1.4,1.54,.95,1.01,1.92,2.02,2.92,2.98,.98,.94,1.98,1.85,3.02,2.72,.23,.19,.44,.4,.66,.61,.49-.65,1.19-1.04,2.12-.92,1.07,.14,2.09,1.12,2.01,2.27-.73,10.13-3.32,20.1-7.91,29.18-1.18,2.33-4.47,1.03-4.61-1.25-.45-7.46-1.37-14.86-2.78-22.2-.68-3.58-1.41-7.14-2.28-10.68-.9-3.68-1.95-7.26-2.32-11.04-.13-1.35,1.82-1.7,2.44-.66Z"/>
      <path class="cls-1" d="M364.65,178.92c1.6,1.4,3.58,2.03,5.55,1.99,2.18,1.54,5.11,1.89,8,.45,2.47-1.23,4.45-3.34,6.32-5.32,1.9-2,3.71-4.08,5.5-6.17,3.51-4.11,6.94-8.31,10.85-12.06,1.3-1.25,2.66-2.45,4.08-3.56,.06-.02,.12-.03,.18-.05,1.71-.65,3.24-1.61,4.83-2.52,0,0,0,0,0,0,.04,0,.08,0,.11,0,1.7,.05,3.36,.54,5,.95,3.62,.9,7.22,1.92,10.78,3.04,1.66,.52,3.32,1.08,4.96,1.65-1.7,1.02-3.36,2.07-4.97,3.13-1.9,1.25-5.25,3.37-7.18,5.87-2.67,1.9-4.82,4.39-4.92,7.93-.11,4.37,3.22,7.84,7.68,7.21,2.48-.35,4.87-1.56,7.17-2.5,2.29-.94,4.57-1.9,6.83-2.9,6.21-2.74,12.32-5.74,18.29-8.97,2.9,1.47,5.76,3.02,8.58,4.64,4.9,2.82,9.64,5.89,14.26,9.13-2.09,.36-4.16,.84-6.2,1.5-1.34,.44-2.08,1.84-1.52,3.17,.59,1.41,2.05,1.69,3.33,1.12,.27-.12,.55-.22,.82-.33,.14,.14,.31,.27,.51,.37,2.71,1.33,5.44,2.66,7.95,4.34,2.29,1.53,4.24,3.49,6.45,5.14,4.09,3.04,10.27,4.5,14.25,.44,1.01-1.03,.84-2.43,0-3.47-2.36-2.92-4.92-5.67-7.64-8.24,1.24-.57,1.32-2.5-.21-3-1.46-.47-3-.7-4.55-.81-.16-.21-.39-.38-.73-.45-1.73-.34-3.44-.49-5.15-.5-1.55-1.19-3.12-2.36-4.71-3.49-6.5-4.59-13.29-8.73-20.31-12.45,1.28-.74,2.57-1.46,3.83-2.22,2.17-1.31,1.12-4.37-1.23-4.54-.97-.07-1.94-.1-2.91-.1-.18-.13-.37-.25-.58-.31,.15-1.56-1.48-3.18-3.36-2.48-.98-2-3.56-2.9-5.61-3.21-2.74-.42-5.51,.06-8.1,1.01-1.43,.52-2.85,1.14-4.25,1.81-4.95-1.87-9.99-3.53-15.08-4.97-1.62-.46-3.25-.94-4.9-1.36l1.74-1c1.26-.73,2.64-1.41,3.44-2.69,.91-1.47,.66-3.43-.54-4.65-.88-.9-2.13-1.44-3.37-1.63-3.34-.54-6.71-.34-9.93,.5-2.11-1.14-4.66-1.23-6.93-.36-2.75,1.06-5.09,2.96-7.46,4.66-1.79,1.28-3.56,2.6-5.32,3.93-.48-.03-.97,.1-1.44,.44-.19,.14-.36,.29-.55,.42,0,0,0,0,0,0,0,0,0,0-.01,.01-1.51,1.13-2.97,2.32-4.39,3.56-1.18,.63-2.28,1.5-3.28,2.18-1.99,1.36-3.91,2.82-5.75,4.36-3.38,2.82-6.93,6.01-9.35,9.72-2.4,3.67-2.33,8.62,1.13,11.63Zm53.79-4.56c.19,.69,.58,1.34,1.24,1.91,.16,.14,.33,.26,.5,.37-.55-.05-1.02-.29-1.32-.84-.27-.5-.39-.97-.42-1.43Zm-46.91-1.94c.08-.39,.19-.78,.33-1.16,.36-.59,.7-1.18,1.07-1.76-.39,.81-.75,1.66-1.03,2.54-.12,.13-.24,.25-.37,.38Z"/>
      <path class="cls-1" d="M218.22,276.82c1.04,1.01,2.11,1.98,3.18,2.95,.63,.77,1.42,1.45,2.12,2.16,1.33,1.34,2.68,2.66,4.07,3.95,2.76,2.58,5.64,5.03,8.6,7.38,10.43,8.23,21.86,15.13,34.07,20.4,6.21,2.68,12.55,4.95,19.07,6.74,6.44,1.77,13.12,3.43,19.81,3.59,.17,0,.33-.02,.48-.05,2.63,.57,4.43-2.8,1.93-4.54-.91-.63-1.84-1.2-2.79-1.73-.62-.52-1.16-1.11-1.64-1.76,8.1-1.12,16.19-2.23,24.29-3.35,7.93-1.09,16.24-1.89,23.15-6.33,1.71-1.1,1.76-4.42-.63-4.79-10.47-1.63-20.96-3.13-31.39-5-17.79-3.19-35.49-7.29-52.4-13.77-15.86-6.07-30.69-14.41-44.08-24.86-1.98-1.54-4.78,1.03-2.84,2.84,.25,.23,.5,.45,.75,.67-1.52,3.18-2.33,6.57-2.37,10.11,0,1.03,.59,1.78,1.37,2.15,.1,.41,.3,.72,.55,.97-.07,.15-.13,.32-.16,.48-.59-.52-1.18-1.04-1.76-1.58-2.25-2.07-5.58,1.23-3.37,3.37Zm97.22,28.43c.66,.1,1.31,.19,1.97,.29-.91,.12-1.81,.27-2.71,.39,.22-.2,.45-.39,.66-.59,.03-.03,.05-.06,.08-.09Zm-83.73-33.6c.31,.26,.64,.49,.95,.75-.27,.05-.53,.11-.78,.2-.16-.03-.31-.05-.47-.06,.1-.3,.21-.59,.3-.89Z"/>
      <path class="cls-1" d="M212.95,306.58c-.87,3.62-.93,7.22-.26,10.88,.11,.6,.42,1.04,.82,1.34,0,.2,0,.41,0,.61,0,.89,.36,1.53,.9,1.94-.3,3.18-.61,6.35-.91,9.53-.08,.87,.44,1.65,1.15,2.12-.27,2.01-.55,4.01-.82,6.01-.19,1.39,.3,2.77,1.76,3.22-.12,.43-.18,.89-.16,1.37,0,.05,.01,.09,.01,.13-.32,.36-.57,.78-.71,1.25-.51,1.76,.44,3.57,1.9,4.54,1.32,.88,2.87,1.02,4.4,1.23,2.1,.29,4.19,.57,6.29,.85,7.97,1.07,15.95,2.08,23.94,3.04,7.15,.86,14.31,1.65,21.48,2.37,3.53,.36,7.06,.7,10.6,1.04,2.78,.26,5.52,.67,8.29,.23,.44-.07,.87-.17,1.3-.3,.17,.02,.34,.05,.51,.07,2.22,.24,4.52-.14,6.72-.44,2.57-.36,5.11-.88,7.61-1.56,1.97-.54,2.4-3.4,.58-4.41-3.85-2.12-7.99-3.37-12.24-4.18-.06-.07-.11-.15-.17-.21-2.38-2.39-5.71-2.7-8.91-2.75-3.05-.04-6.08-.25-9.09-.77-12.37-2.14-23.73-8.03-33.71-15.49-5.26-3.93-10.18-8.34-14.92-12.88-4.78-4.58-9.29-9.4-14.22-13.82-1.73-1.55-3.85,.74-2.48,2.48,.35,.45,.72,.88,1.07,1.33-.33,.28-.59,.68-.71,1.22Zm11.09,15.33c.02-.09,.05-.17,.07-.26,.28,.3,.55,.59,.83,.88-.1,.19-.19,.4-.24,.64-.08,.34-.17,.66-.26,1,0-.36,0-.73-.02-1.09-.02-.43-.16-.83-.38-1.17Z"/>
      <path class="cls-1" d="M454.61,524.38c1.59-1.2,3.4-1.97,5.22-2.72,.25,.02,.51,.01,.77-.04,.66-.14,1.18-.49,1.61-.97,1.08-.49,2.14-1.03,3.12-1.72,2.8-1.4,5.31-3.58,7.48-5.69,3.11-3.04,5.92-6.5,8.19-10.22,1.85-3.02,3.59-6.53,3.7-10.15,.03-1.11-.05-2.24-.2-3.36,.33-1.02,.64-2.06,.9-3.12,.32-1.26-1-1.96-1.9-1.55-.67-2.35-1.52-4.66-2.31-6.84-1.89-5.18-4.06-10.31-5.2-15.72-.5-2.37-4.16-2.29-4.71,0-2.62,11.04-5.17,22.13-8.15,33.08-1.33,4.89-2.96,9.66-5.43,14.1-2.26,4.07-4.83,8.02-6.25,12.48-.54,1.68,1.64,3.58,3.16,2.43Z"/>
      <path class="cls-1" d="M461.29,592.29c18.81-6.63,34.91-21.57,40.64-40.96,.41-1.38-1.78-2.35-2.37-1-.95,2.18-2,4.32-3.15,6.41-.05-.09-.1-.18-.16-.26,.58-1.47,1.31-2.86,2.2-4.21,.93-1.41,.13-2.75-1.08-3.28,1.14-7.5,1.59-15.1,1.35-22.68-.08-2.53-3.38-3.43-4.73-1.28-2.89,4.61-5.34,9.45-7.59,14.4-7.69,16.96-13.37,36.04-27.26,49.19-1.54,1.46,.04,4.4,2.13,3.66Zm22.16-33.15c.5-1.13,.99-2.26,1.47-3.39,.04,.18,.11,.35,.19,.5-.57,.95-1.12,1.91-1.66,2.88Zm8.01-18.38c.7-1.5,1.42-3,2.16-4.48-.02,.38-.03,.75-.05,1.13-.19,.17-.37,.36-.52,.61-.55,.9-1.06,1.82-1.58,2.73Zm-20.25,42.28c-.64,.37-1.28,.74-1.94,1.09,.69-.87,1.36-1.76,2.01-2.66,.09,.08,.19,.16,.29,.23-.3,.44-.4,.9-.37,1.34Z"/>
      <path class="cls-1" d="M419.61,595.05c5.5-6.06,11.36-11.79,17.46-17.25,1.81-1.63,4.56-.04,4.03,2.35-1.11,5.06-2.43,10.06-4.05,14.98-.8,2.42-1.65,4.82-2.63,7.17-1.02,2.43-2.24,4.68-3.55,6.97-.75,1.32-2.85,.44-2.45-1.03,.32-1.16,.62-2.32,.93-3.48-.69,.36-1.5,.39-2.21-.15l-3.95-3.02c-.89-.68-1.21-1.53-1.14-2.32-.22,.03-.43,.06-.66,.08-2.31,.17-3.14-2.79-1.78-4.29Z"/>
      <path class="cls-1" d="M273.81,482.73c5.28,3.22,10.6,6.31,16.22,8.91,5.62,2.59,11.39,4.82,17.1,7.19,5.71,2.38,11.4,4.85,16.74,8,5.81,3.42,10.69,7.78,15.72,12.21,5.8,5.1,12.38,8.83,19.98,10.48,3.39,.78,1.93,5.82-1.43,5.17-1.21-.23-2.41-.55-3.6-.9-10.71-2.67-21.45-5.2-32.18-7.78-5.91-1.42-11.83-2.84-17.74-4.27-4.95-1.19-10.06-2.14-14.81-4.03-4.6-1.83-9.15-4.65-11.16-9.39-.31-.72-.38-1.5-.17-2.19-.04-.08-.08-.17-.1-.26-.01-.05-.02-.1-.03-.15-1.1,.17-2.26-.31-2.48-1.65-.16-.97-.35-1.94-.54-2.9-1.09,.22-2.27-.23-2.52-1.59-.58-3.16-.76-6.32-.43-9.52,.12-1.18,.92-1.93,1.82-2.14-.89-.75-1.77-1.53-2.59-2.36-1.41-1.44,.41-3.91,2.18-2.83Z"/>
      <path class="cls-1" d="M284.22,551.59c.03,.87,.53,1.68,1.28,2.24,3.42,2.53,5.72,6.28,8.79,9.18,.81,.77,1.68,1.5,2.6,2.14,.4,.61,.84,1.19,1.34,1.74,2.2,2.41,5.26,3.4,8.34,4.15,3.37,.82,6.65,1.87,9.85,3.22,6.61,2.8,12.8,6.52,19.02,10.08,12.72,7.27,26.58,14,41.64,11.95,2.54-.35,2.31-4.38,0-4.91-7.38-1.68-14.47-4.36-21.23-7.73-12.08-6.03-23.12-13.88-34.27-21.43-5.69-3.85-11.45-7.72-17.48-11.03-6.17-3.38-13.48-5.96-20.44-3.53-2.23,.78-1.54,4.07,.56,3.93Zm28.97,10.95c1.7,1.14,3.4,2.29,5.09,3.45-.14-.05-.28-.11-.42-.16-1.49-.85-3.01-1.74-4.56-2.56,0-.24-.04-.49-.11-.74Zm24.26,16.39c3.66,2.34,7.37,4.59,11.16,6.67-3.88-1.86-7.64-3.96-11.37-6.1,.09-.18,.16-.37,.21-.57Z"/>
      <path class="cls-1" d="M326.74,612.96c1.81,1.06,3.68,2,5.57,2.9-.1,.6-.02,1.22,.34,1.72,.35,.48,.69,.97,1.04,1.45-.23,.84-.1,1.8,.6,2.58,2.52,2.81,5.64,4.99,9.09,6.46-.63,1.46,.1,3.63,1.79,3.86,13.09,1.76,26.43,1.98,39.59,.94,.5-.03,.99-.07,1.49-.11,.21-.02,.42-.03,.63-.05,0,0,0-.01,0-.02,.24-.03,.48-.05,.73-.08,3.05-.41,2.3-5.62-.72-5.35-1.55,.14-3.09,.25-4.64,.35-8.44-.01-16.69-3.49-24.37-6.62-4.96-2.02-9.92-4.05-14.88-6.07-4.88-1.99-9.73-3.98-14.82-5.35-2.05-.55-3.26,2.34-1.43,3.4Zm33,14.68c-1.68-.09-3.35-.21-5.03-.34,.44-.37,.73-.85,.89-1.37,.54,.23,1.09,.46,1.63,.69,.84,.35,1.67,.69,2.51,1.02Z"/>
      <path class="cls-1" d="M109.53,421.74c3.83,3.82,8.76,5.86,13.89,7.44,4.85,3.33,9.39,7.08,13.76,11.04,11.64,10.56,22.16,22.41,35.05,31.52,12.72,8.99,27.99,15.5,43.84,13.68,2.52-.29,3.34-3.86,.63-4.63-6.92-1.97-13.46-4.91-19.61-8.62-11.29-6.81-21.04-15.78-29.64-25.72-4.62-5.33-8.91-10.93-13.06-16.63-4.15-5.71-7.91-11.76-12.36-17.24-1.56-1.93-4.45,.55-3.32,2.56,.05,.08,.1,.16,.14,.25-.62,.08-1.24,.18-1.85,.27-.4-.97-1.3-1.78-2.41-1.81-2.94-.09-5.67,.56-8.33,1.78-.85,.39-1.27,1.33-1.27,2.25-.44,.19-.87,.39-1.31,.58-1.04-.08-1.89,.46-2.34,1.22-3.1-.86-6.27-1.5-9.4-2.08-2.34-.43-4.29,2.29-2.42,4.16Z"/>
      <path class="cls-1" d="M171.56,410.3c2.58,5.81,5.46,11.5,8.61,17.03,11.03,19.39,25.66,36.8,42.9,50.95,2.32,1.91,5.84-.47,4.27-3.3-2.97-5.37-6.6-10.31-10.44-15.1-.11-.27-.25-.53-.46-.79l-5.74-6.72c-.51-.6-1.1-.85-1.68-.85-.98-.91-1.96-1.8-2.97-2.67-1.42-1.23-3.22-.55-4,.66-5.99-7.27-11.42-15-16.23-23.1,.9-.13,1.73-.76,2.07-1.62,.36-.02,.7-.14,1.02-.31-.17,.77-.36,1.54-.53,2.31-.49,2.24,2.66,3.27,3.53,1.43,1.68,2.6,3.36,5.2,5.05,7.8,1.55,2.4,5.02,.81,4.48-1.89-.06-.28-.13-.55-.19-.83,2.36,1.78,4.73,3.57,7.1,5.34,1.67,1.25,4.1-1.22,2.88-2.88-5.33-7.32-9.32-15.26-13.17-23.38-.03-.5-.06-.99-.08-1.48-.06-1.82-.13-3.64-.22-5.46-.12-2.36-3.64-3.01-4.23-.57-.3,1.22-.59,2.45-.89,3.67-.54-1.1-1.48-2.01-2.81-2.43-.23-.07-.47-.09-.71-.07-1.06-.93-2.96-.96-3.91,.49-.32,.5-.61,1.01-.87,1.54-.72,0-1.44,.31-1.96,.82-.4-.24-.79-.51-1.19-.74-1.06-.62-2.05-.27-2.62,.47-.45,.07-.87,.24-1.24,.49-.54-.67-1.1-1.33-1.67-1.98-.87-1-2.45-.94-3.44-.2-1.12,.84-1.2,2.18-.67,3.38Zm28.36,15.01c.46,.89,.93,1.78,1.41,2.65-.34-.26-.68-.53-1.02-.79-.13-.62-.26-1.24-.39-1.87Z"/>
      <path class="cls-1" d="M66.41,446.73c3.62-.02,7.24,.06,10.85,.25,.26,.01,.51,.04,.77,.05,7.1,1.5,13.75,4.99,20.25,8.09,9.02,4.31,18.04,8.62,27.06,12.93,1.26,.58,2.75,.37,3.5-.92,.66-1.12,.33-2.91-.92-3.5-7.64-3.5-14.62-8.35-20.57-14.29-2.96-2.96-5.66-6.17-8.02-9.62-1.62-2.37-3.01-4.85-4.4-7.34,0-.01,0-.03,0-.04,.96-1.63-.56-3.91-2.31-3.92-1.31-1.33-3.95-.09-3.37,1.9-5.91,4.17-12.06,7.94-18.55,11.15-.36,.18-.63,.41-.83,.68-1.15-.04-2.31-.1-3.46-.12-3.03-.06-3.02,4.71,0,4.7Zm13.74-4.45c.29-.17,.58-.34,.88-.51,.99,.5,1.99,.97,2.99,1.43-.3-.03-.6-.07-.9-.1-.98-.3-1.97-.58-2.97-.83Z"/>
      <path class="cls-1" d="M94.35,556.12c1.67-2.04,3.22-4.14,4.69-6.3,0-.02,0-.04,.01-.06,3.35-11.41,6.64-22.84,9.88-34.28,1.59-5.62,3.19-11.24,4.79-16.86,.8-2.81,1.59-5.62,2.39-8.43,.4-1.41,.81-2.81,1.26-4.2,.48-1.5,.84-2.92,2.18-3.85,.54-.37,1.38-.27,1.91,.16,0-.17,0-.34,0-.51-.03-2.16,2.53-2.66,3.75-1.5,.49-.54,1.13-.93,2.02-1.1,2.48-.46,5.51,1.21,7.7,2.21,2.14,.98,4.42,2.11,6.22,3.61,.58-.83,2.02-1.03,2.69,.04,3.25,5.19,3.02,11.91,1.51,17.65-1.63,6.22-4.81,11.7-8.25,17.08-7.61,11.9-15.4,23.69-23.13,35.52-1.03,1.58-2.07,3.17-3.1,4.75-1.04,1.59-1.98,3.64-3.96,4.16-1.92,.5-3.89-.63-5.64-1.3l-5.72-2.2c-2.03-.78-2.59-2.91-1.21-4.59Z"/>
      <path class="cls-1" d="M132.5,590.81c4.81-5.48,9.65-10.96,13.8-16.96,2.74-3.96,5.08-8.12,7.07-12.46,.73-2.16,1.57-4.28,2.57-6.36,.03-.07,.07-.12,.11-.18,.02-.05,.04-.09,.05-.14,2.5-6.94,4.33-14.1,6.12-21.25,1.94-7.75,3.87-15.49,5.81-23.24,.53-2.1,.95-4.26,1.59-6.33,.54-1.72,1.82-3.55,3.83-3.55,.83,0,1.59,.36,2.15,.9,1.17-.31,2.57,.12,3.12,1.27,.45-.06,.91,0,1.32,.17,.21,.09,.38,.2,.54,.33,1.37-.2,2.93,.93,3,2.39,.49,.07,.97,.28,1.35,.61,1.34,.19,2.48,1.48,2.17,3.09,1.7-.84,3.82,.88,3.08,3.02,.5,0,.99,.2,1.4,.51,1.04-.22,2.32,.88,2.11,2.14-1.13,6.88-3.69,13.54-6.19,20.03-2.53,6.55-5.31,13.03-8.42,19.33-6.15,12.45-13.43,24.6-21.87,35.65-1.09,1.42-2.3,2.78-3.95,3.56-1.83,.87-3.82,1.04-5.81,1.18-4.34,.32-8.69,.63-13.03,.94-2.53,.18-3.37-3.02-1.93-4.66Z"/>
      <path class="cls-1" d="M142.52,626.88c15.48,2.1,31.11-4.47,39.83-17.58,1.04-1.57,.09-3.08-1.28-3.63,.28-.17,.55-.42,.78-.77,2.69-4.17,4.89-8.62,6.65-13.25,.19-.33,.38-.66,.57-.99,1.48-1.98,2.98-3.94,4.5-5.89,.43-.56,.39-1.2,.12-1.7,.23-.36,.45-.72,.68-1.07,1.04-1.57-.19-3.01-1.63-3.21,2.44-3.34,4.54-6.9,5.51-10.96,.37-1.56-1.9-2.64-2.67-1.12-2.5,4.95-5.7,9.3-9.36,13.45-13.62,15.5-28.86,29.7-44.73,42.86-1.25,1.04-.66,3.65,1.02,3.88Zm6.55-4.18c.67-.56,1.33-1.14,2-1.71-.26,.53-.32,1.08-.2,1.6-.6,.05-1.2,.09-1.8,.11Z"/>
      <path class="cls-1" d="M203.5,536.62c.61-.32,1.16-.53,1.73-.67-.06-1.59,.11-3.16,.47-4.67-1.4-.61-2.22-2.25-1.33-3.74,1.72-2.86,3.93-5.23,6.55-7.26,.05-.06,.09-.12,.15-.18,1.43-1.39,2.92-2.7,4.46-3.96,.66-.89,1.32-1.79,1.98-2.68,.67-.91,1.3-2.02,2.12-2.79,1.33-1.25,3.52-1.68,4.9-.53,.76-1.06,1.74-1.96,2.8-2.5,2.29-1.16,5.03-1.34,7.38-.47,.34,.1,.67,.24,.96,.42,.65,.34,1.24,.78,1.78,1.3,2.7-.13,5.34,.68,7.09,3.06,1.26,1.7,1.77,3.54,1.72,5.37,.11,.1,.23,.18,.33,.29,1.5,1.41,2.84,3.23,3.7,5.22,2.22,1.85,3.52,4.64,3.7,7.51,.65,1.62,.7,3.42,.17,5.03,.19,.66,.26,1.34,.24,2.02,.79,.86,1.33,1.92,1.49,3.06,.51,1.09,.71,2.35,.54,3.56,.37-.21,.75-.42,1.13-.63,1.31-.73,3.23,.84,2.22,2.22-6.56,8.99-20.09,10.67-30.31,9.22-5.94-.84-11.62-2.78-17.09-5.21-4.69-2.09-9.73-4.96-10.24-10.61-.08-.9,.57-1.95,1.36-2.37Z"/>
      <path class="cls-1" d="M191.3,591.81c.6,2.17,3.12,3.55,4.88,4.71,2,1.31,4.12,2.44,6.31,3.39,4.4,1.9,9.04,3.16,13.77,3.86,10.68,1.57,21.72,.93,32.24-1.4,1.7-.38,1.22-2.86-.4-2.92-.36-.01-.72-.01-1.08-.02,1.04-.54,1.85-1.4,2.39-2.74,.81-2.04,1.43-4.19,2.1-6.29,.53-.5,1.05-.99,1.57-1.46,.92-.81,1.03-2.35,.44-3.37-.31-.53-.74-.87-1.23-1.09,1.25-.62,2.43-1.38,3.45-2.36,1.7-1.64-.48-4.31-2.47-3.2-3.82,2.14-7.59,3.09-11.94,3.46-5.03,.43-10.08,.84-15.13,.82-4.79-.01-9.56-.45-14.18-1.77-2-.57-3.93-1.32-5.77-2.28-.86-.45-1.65-.98-2.44-1.52-.47-1.25-1.62-1.92-2.76-1.86-.18-.11-.36-.24-.55-.35-2.75-1.59-5.36,2.04-3.3,4.28,.12,.14,.26,.26,.4,.39-.79,1.68-1.72,3.29-2.79,4.81-1.45,2.05-4.28,4.04-3.5,6.89Zm37.43,3.09c2.56,.26,5.13,.43,7.7,.49-2.02,.02-4.05-.02-6.06-.14-.5-.03-.99-.08-1.49-.12-.04-.08-.1-.15-.15-.23Z"/>
      <path class="cls-1" d="M172.47,639.61c2.08,4.8,6.21,8.26,10.4,11.2,4.47,3.15,9.35,5.66,14.46,7.61,2.47,.94,5.03,1.82,7.62,2.35,3.08,.63,5.48-.05,7.7-2.25,3.98-3.95,7.32-8.73,10.04-13.61,.58-1.04,.31-2.33-.42-3.16,.31-1.14-.56-2.48-2.13-2.2-7.44,1.35-14.9,2.24-22.46,1.72-7.45-.51-14.83-2.21-21.69-5.16-2.43-1.05-4.56,1.08-3.51,3.51Z"/>
      <path class="cls-1" d="M121.62,669.91c.61,1.79,1.29,3.55,2,5.3,2.92,7.14,6.62,13.91,10.99,20.27,.56,.81,1.33,1.18,2.12,1.23,.11,.24,.21,.49,.32,.73,.45,1.01,1.71,1.21,2.66,1.08,6.61-.93,12.85-2.94,18.86-5.83,2.03-.98,.89-3.9-1.08-3.99-1.32-.06-2.41-1.16-3.31-2.04-1.15-1.11-2.19-2.35-3.22-3.56-2.04-2.39-3.99-4.85-5.81-7.42-3.79-5.34-6.75-11.04-9.74-16.85-.92-1.78-3.63-.96-3.9,.69-2.03-.5-4.21-.21-5.74,1.03-.82-.24-1.75-.15-2.55,.19-1.52,.66-2.39,2.11-2.64,3.7-.29,1.84,.46,3.75,1.04,5.47Zm9.25,.36c-.42-.99-.84-1.98-1.24-2.97-.22-.54-.95-1.86-.76-2.54,.65,1.85,1.32,3.69,2.01,5.52Zm13.29,17.9c.77,.92,1.56,1.82,2.38,2.7-.3,.14-.62,.24-.94,.34-.49-1.01-.96-2.02-1.44-3.04Zm-3.59,5.54c-.7-1.75-1.4-3.49-2.12-5.23,.79,1.74,1.61,3.47,2.44,5.2-.11,.01-.21,.02-.32,.04Z"/>
      <path class="cls-1" d="M69.86,687.99c1.81-12.6,3.05-26.43,11.7-36.43,1.08-1.25,2.76,.08,2.51,1.44,1.12-1.47,3.67-.69,3.21,1.45-.11,.51-.22,1.02-.33,1.54,.57-.33,1.44-.16,1.74,.45,.69,1.42,.54,2.83,.45,4.37,0,.05,0,.1-.01,.15,.22-.74,.48-1.46,.83-2.13,.66-1.3,2.93-1.05,3.21,.42,.57,2.96-.1,6.16-.33,9.14-.24,3.11-.42,6.23-.56,9.34-.13,3.12-.19,6.24-.18,9.36,0,1.46,.03,2.91,.07,4.37,.02,.83,0,1.67,.06,2.5,.03,.34,.21,.77,.13,.85,.24,.22,.47,.47,.67,.82,1.23,2.16-1.3,4.98-3.53,3.53-1.35-.88-1.99-2.14-2.3-3.54-.12,.42-.34,.84-.67,1.21-.76,.87-1.99,.8-2.93,.38-.81-.36-1.26-1.02-1.49-1.78-1.42,1.21-4.09,.78-4.3-1.85-.07-.87-.12-1.73-.15-2.61-.21,.22-.46,.42-.77,.59-.61,.31-1.37,.39-1.97,0-.21-.14-.39-.29-.55-.44-1.32,1.84-4.74,1.45-4.75-1.4,0-.63,.08-1.18,.24-1.72Z"/>
      <path class="cls-1" d="M22.16,637.98c6.93-2.27,13.81-4.58,20.59-7.29,3.3-1.32,6.59-2.68,9.86-4.11,1.67-.73,3.33-1.48,5.01-2.18,1.7-.7,3.41-1.58,5.26-1.7,1.03-.07,1.66,.65,1.82,1.5,.1-.07,.2-.14,.3-.21,1.62-1.17,3.5,1.38,2.11,2.73-.51,.49-1.02,.97-1.53,1.44,.42,.62,.48,1.57-.05,2.16-.29,.32-.61,.61-.92,.92,1.01-.4,2.03-.71,3.06-.83,1.71-.19,2.16,2.02,1.27,3.07-.51,.61-1.15,1.11-1.83,1.57,.18-.02,.36-.04,.54-.04,1.24-.01,2.34,1.55,1.53,2.66-.35,.48-.78,.91-1.24,1.32,.38-.07,.77-.13,1.16-.16,1.5-.13,2.5,2.13,1.28,3.1-2.48,1.98-5.56,3.17-8.3,4.76-2.78,1.6-5.47,3.39-7.97,5.39-2.5,1.99-4.87,4.16-7.07,6.48-1.12,1.18-2.16,2.77-3.79,3.26-1.65,.5-3.87-.46-4.24-2.2-2.26,1.39-5.4-1.39-3.92-3.71-.29-.04-.57-.12-.81-.28-1.01-.69-1.91-1.54-2.66-2.51-.08,0-.15,0-.23,0-1.23-.06-2.24-.81-2.61-1.99-.54-1.71-.28-3.45,.58-4.95-1.63-.37-2.55-2.1-2.25-3.55-.29,.1-.58,.2-.88,.3-.48,1.03-1.65,1.76-2.82,1.37-.68-.23-1.34-.46-1.97-.83-2.33-1.35-1.69-4.73,.72-5.52Z"/>
      <path class="cls-1" d="M25.9,481.64c.1,.42,.57,.65,.97,.55,.8-.21,1.59-.55,2.29-.99-.53,1.21,.21,2.88,1.54,3.16,12.8,2.62,25.42,6.02,37.76,10.31,2.53,.88,4.1-3.04,1.8-4.27-5.49-2.94-10.74-6.38-15.5-10.4-2.42-2.05-4.73-4.23-6.91-6.53-1.94-2.05-3.87-4.59-6.59-5.54-.5-.17-1.11,.29-1.07,.82,.05,.67,.22,1.32,.46,1.95-2.44-.87-4.66,.28-6.14,2.37-1.25,1.76-2.42,3.58-3.6,5.39-.02-.02-.04-.03-.06-.05-.17-.13-.52-.13-.69,0-.08,.06-.16,.12-.24,.19,0,0,0,0-.01,0-.07,.05-.14,.1-.21,.15-.2,.14-.36,.3-.54,.46-.07,.06-.14,.13-.22,.19-.03,.03-.06,.05-.1,.08-.01,0-.07,.05-.09,.07-.01,0-.02,.01-.02,.02-.04,.03-.08,.06-.13,.09-.07,.05-.14,.1-.21,.14-.32,.21-.65,.39-1,.55-.04,.02-.08,.04-.13,.06,0,0,0,0,0,0-.09,.03-.18,.07-.27,.1-.18,.06-.36,.12-.54,.17-.43,.12-.65,.55-.55,.97Z"/>
      <path class="cls-1" d="M726.44,661.84c.69-40.22-1.43-81.06-3.48-120.55-.31-6.03-.63-12.06-.93-18.09-2.75-54.53-4.74-109.84-5.94-164.4l-3.18,.07c1.19,54.59,3.19,109.93,5.94,164.49,.3,6.03,.62,12.06,.93,18.09,2.05,39.44,4.17,80.22,3.48,120.33l3.18,.05Z"/>
      <path class="cls-1" d="M712.2,320.61l3.18-.05c-1.62-106.37-.29-214.18,3.98-320.43l-3.18-.13c-4.27,106.32-5.6,214.18-3.98,320.61Z"/>
      <path class="cls-1" d="M846.33,194.79l2.39-2.64c13.6-15.02,19.87-31.21,18.64-48.12-1.78-24.47-18.56-43.57-26.38-51.22,14.19,2.84,23.85,10.3,23.95,10.39l2.96,2.32-.39-3.74c-2.14-20.31-28.04-25.64-37.68-26.92,5.37-3.46,15.96-4.49,20.22-4.59l3.1-.07-1.86-2.48c-9.62-12.83-35.07-4.64-40.05-2.88-26.94-19.16-51.64-19.21-67.67-15.85-17.53,3.68-28.47,11.9-28.92,12.25l1.93,2.53c.11-.08,10.92-8.19,27.79-11.7,15.51-3.22,39.5-3.09,65.71,15.83l.7,.5,.8-.3c.26-.1,24.14-9.01,34.86-.82-5.94,.51-17.54,2.21-21.53,7.86l-1.64,2.32,2.83,.19c.34,.02,31.85,2.35,37.51,20.76-4.86-3.05-14.72-8.21-27.38-9.56l-5.26-.56,4.08,3.37c.27,.22,26.99,22.63,29.16,52.61,1.09,15.08-4.17,29.61-15.64,43.23-1.56-7.48-7.08-25.94-25.37-43.58l-2.63-2.53-.07,3.65c-.05,2.87-.15,14.56,1.6,21.54-8.54-4.79-29.26-17.74-46.41-38.94l-1.8-2.22-.94,2.7c-.32,.92-7.08,20.55-3.66,35.55-6.64-5.54-19.61-18.21-23.68-35.39l-.38-1.61-1.6,.45c-.13,.04-12.43,3.68-12.47,18.23-4.51-3.6-13.22-10.88-15.74-15.42l-2.78,1.55c3.77,6.78,18.74,18.1,19.38,18.58l3,2.26-.47-3.73c-1.47-11.75,5.27-16.33,8.41-17.8,6.44,23.52,27.63,38.01,28.55,38.63l4.59,3.09-2.25-5.05c-4.99-11.22-.72-28.78,1.24-35.51,22.23,26.37,49.32,39.51,49.6,39.64l10.17,4.86-8.43-7.49c-1.7-1.52-2.68-10.92-2.77-20.03,19.81,20.69,22.29,42.11,22.31,42.34l.37,3.54Z"/>
      <path class="cls-1" d="M770.42,267.45c13.6,0,25.81-3,36.54-9.02,35.58-19.93,42.1-66.67,42.16-67.14l-3.16-.42c-.06,.45-6.4,45.65-40.58,64.78-23.34,13.06-54.16,11.24-91.59-5.44l-1.3,2.91c21.42,9.54,40.78,14.31,57.92,14.31Z"/>
      <path class="cls-1" d="M842.31,228.24c12.3,0,18.92-14.15,19-14.31,8.19-19.39-6.35-31.68-6.49-31.8l-2.02,2.46,1.01-1.23-1.02,1.23c.53,.44,12.84,10.94,5.61,28.07-.3,.65-7.93,16.85-21.84,11.2l-1.2,2.95c2.49,1.01,4.81,1.44,6.95,1.44Z"/>
      <path class="cls-1" d="M733.85,281.66l3.13-.6c-2.28-11.87,3.02-18.63,3.25-18.91l-2.47-2.01c-.27,.32-6.48,8.12-3.9,21.52Z"/>
      <path class="cls-1" d="M763.7,377.95c12.88,0,25.79-2.76,26.6-2.94l2.42-.53-1.48-1.98c-4.6-6.17-13.75-48.18-16.89-63.85l-.14-.7-.62-.36c-7.58-4.39-33.29-27.2-33.55-27.43l-.7-.62-.88,.31c-16.99,5.91-23.6-9.37-23.88-10.02l-2.94,1.23c.08,.18,7.82,18.14,26.97,12.1,4.14,3.66,24.96,21.97,32.75,26.82,1.28,6.34,10.29,50.29,16.11,62.35-6.93,1.29-28.97,4.82-40.52-.13l-1.25,2.93c4.94,2.11,11.46,2.82,17.99,2.82Z"/>
      <path class="cls-1" d="M754.72,390.84l1.64-2.73c-9.52-5.71-17.57-49.58-19.92-66.36,1.09-5.6,.16-9.68-2.76-12.15-6.42-5.43-20.02-.28-20.59-.06l1.14,2.97c3.44-1.32,13.27-3.97,17.39-.48,2.01,1.7,2.56,4.85,1.64,9.35l-.05,.27,.04,.27c.87,6.26,8.86,61.35,21.48,68.92Z"/>
      <path class="cls-1" d="M750.55,448.8c1.28,0,2.56-.31,3.82-.95,15.98-7.99,24.23-69.46,24.57-72.07l-3.16-.41c-2.28,17.33-10.82,63.63-22.84,69.64-1.75,.88-3.42,.8-5.25-.23-.27-.15-22.79-12.97-23.83-87.77l-.04-2.54-2.27,1.14c-.42,.21-10.33,5.01-16.81-2.7-3.52-8.01-10.2-28.77-1.42-34.29,2.19,1.31,8.22,4.51,13.37,3.31,2.47-.57,4.4-2.04,5.73-4.37l-2.76-1.58c-.88,1.54-2.08,2.48-3.68,2.85-4.94,1.15-11.64-3.33-11.71-3.38l-.76-.51-.83,.4c-14.77,7.16-1.34,37.76-.76,39.06l.09,.19,.13,.16c6.03,7.38,14.55,5.86,18.57,4.57,1.5,75.17,24.49,87.75,25.48,88.25,1.44,.81,2.9,1.22,4.36,1.22Z"/>
      <path class="cls-1" d="M765.19,249.5c4.08,0,7.94-.42,11.48-1.06,17.08-3.09,29.76-11.66,30.29-12.03l-1.8-2.63c-.13,.09-12.72,8.59-29.16,11.54-21.79,3.91-39.72-3.33-53.28-21.51l-2.55,1.9c13.91,18.66,30.75,23.78,45.02,23.78Z"/>
      <path class="cls-1" d="M782.39,189.48c0-13.05,10.62-23.67,23.67-23.67,13.05,0,23.67,10.62,23.67,23.67s-10.62,23.67-23.67,23.67c-13.05,0-23.67-10.62-23.67-23.67Zm3.18,0c0,11.3,9.19,20.48,20.48,20.48,11.3,0,20.49-9.19,20.49-20.48s-9.19-20.48-20.49-20.48c-11.29,0-20.48,9.19-20.48,20.48Z"/>
      <path class="cls-1" d="M733.26,203.84c13.05,0,23.67-10.62,23.67-23.67s-10.62-23.67-23.67-23.67c-9.1,0-17.24,5.08-21.26,13.25l2.86,1.4c3.47-7.07,10.52-11.47,18.4-11.47,11.3,0,20.49,9.19,20.49,20.49s-9.19,20.48-20.49,20.48c-8.03,0-15.36-4.73-18.68-12.05l-2.9,1.31c3.83,8.46,12.29,13.92,21.58,13.92Z"/>
      <path class="cls-1" d="M760.01,216.25l2.81-1.49c-1.38-2.6-1.67-4.67-.86-6.17,1.16-2.16,4.56-2.94,5.77-3.06l-.3-3.17c-.25,.02-6.05,.6-8.27,4.7-1.35,2.49-1.06,5.58,.85,9.18Z"/>
      <ellipse class="cls-1" cx="802.88" cy="192.98" rx="14.27" ry="7.98" transform="translate(480.35 953.13) rotate(-80.52)"/>
      <ellipse class="cls-1" cx="732.03" cy="183.35" rx="7.98" ry="14.27"/>
      <path class="cls-1" d="M534.41,351.58c-70.58,8.47-148.6,1.75-213.06-29.67-3.77-1.74-9.22-4.78-12.92-6.71,3.65,2.12,8.96,5.33,12.68,7.18,62.61,33.14,143.98,40.39,213.3,29.2h0Z"/>
      <path class="cls-1" d="M536.77,351.07c-76.57,13.85-174.77,22.72-247.86-7.7,9.47,4.5,19.38,8.06,29.45,11.05,0,0,7.61,2.06,7.61,2.06,12.49,3.03,25.99,5.46,38.78,6.8,57.43,5.84,115.81,.33,172.02-12.2h0Z"/>
      <path class="cls-1" d="M534.41,351.58c-68.68,16.79-218.99,49.38-278.82,7.86,9.48,7.27,20.76,11.84,32.2,15.05,69.59,18.14,177.45-3.4,246.62-22.91h0Z"/>
    </g>
  </g>
</svg>