<?xml version="1.0" encoding="UTF-8"?>
<svg id="_圖層_2" data-name="圖層 2" xmlns="http://www.w3.org/2000/svg" viewBox="0 0 281.7 149.91">
  <defs>
    <style>
      .cls-1 {
        fill: #fff;
      }
    </style>
  </defs>
  <g id="_圖層_8" data-name="圖層 8">
    <g>
      <path class="cls-1" d="M257.1,65.83c4.43,10.05,2.02,20.03-6.17,20.69-13,1.05-26.15,1.35-39.06-.79-4.15-.69-7.74-10.09-11.59-15.5,.48-1.42,.95-2.83,1.43-4.25-6.55,.47-13.11,.94-19.79,1.42-1.16,18.43-1.64,36.54-3.6,54.23-1.79,16.18-9.94,24.96-19.83,22.37-2.97-.78-6.8-5.42-7.76-9.74-.7-3.13,2.11-11.4,4.35-12.62,10-5.47,11.35-18.44,12.18-32.27,.63-10.5,1.08-21.03,1.51-31.55,1.38-34.13,2.73-25.4,19.82-31,4.12-1.35,8.54-.2,13.13-.2,.64-6.09,.59-10.76,1.64-14.66,2.25-8.37,4.09-14.25,12.27-11.07,10.3,4.01,21.57,1.3,32.4,1.99,4.76,.31,9.49,1.86,14.34,5.35-13.1,16.99-29.67,4.85-43.55,14.26,13.17,1.36,26.33,2.69,39.5,4.07,15.84,1.67,18.85,6.5,19.55,31.81,.21,7.53,.17,15.1,.07,22.64-.2,16.04-1.91,18.34-13.18,17.21,.53-11.2,1.3-22.4,1.54-33.63,.32-14.98-4.21-24.25-13.62-24.67-12.32-.55-24.65,.14-36.97,3.66,14.38,12.62,29.98,1.6,45.75,11.86-3.13,2.56-6.16,6.87-9.4,7.34-7.97,1.17-16.04,.34-24.06,.78-3.57,.2-7.12,1.51-10.57,4.37,13.37,6.02,26.58,7.82,39.66-2.09Zm-54.05-25.2c-6.99,1.45-13.98,2.9-20.96,4.35,8.81,10.72,17.24,8.99,20.96-4.35Z"/>
      <path class="cls-1" d="M272.9,107.71c3.04,6.62,7.13,12.17,8.36,19.05,1.61,9.01-1.2,17.62-7.68,18.61-8.88,1.36-18,2.78-26.76,.92-6.66-1.42-11.65-9.7-10.92-22.53,.57-9.97-2.86-14.16-8.08-14.42-4.85-.24-10.43-.68-14.37,2.83-3,2.68-4.39,11.18-5.7,17.53-2.29,11.07-13.98,23.02-20.97,19.62-2.28-1.11-4.77-5.15-5.56-8.77-.51-2.32,1.46-8.26,3.09-9.24,7.54-4.58,11.04-12.68,11.81-25.65,.21-3.46,4.1-8.9,6.42-9.06,13.18-.92,26.42-1.23,39.57,.07,2.48,.24,5.89,8.21,6.66,13.47,1.12,7.71-.34,16.81,7.28,16.59,6.6-.19,13.52,.55,14.48-14.5,.05-.79,.74-1.47,2.37-4.52Z"/>
    </g>
    <g>
      <path class="cls-1" d="M61.27,113.12c3.09-13.17,7.33-25.98,8.97-39.6,1.82-15.14,1.62-31.02,1.66-46.58,.04-14.83,5.23-18.92,13.03-18.67,15.44,.49,30.88,.66,46.29,2.02,3.67,.32,7.19,4.8,10.78,7.37-3.62,4.6-7.01,12.48-10.89,13.17-10.43,1.85-21.06,.48-31.62,.71-2.74,.06-6.5-.21-7.98,2.38-2.68,4.69-3.99,11.42-5.88,17.3,2.85,2.25,5.67,6.33,8.55,6.43,14.44,.52,28.89,.32,43.33-.43,2.8-.15,5.53-3.9,8.29-5.99,4.73,20.87,1.75,27.9-12.04,28.27-7.73,.21-10.1,8.68-8.22,23.59,1.03,8.2,.57,17.54-.81,25.65-.74,4.33-4.86,7.16-7.45,10.66-1.99-4.67-5.12-8.99-5.71-14.09-.91-7.73-.35-16.04,.11-24.03,.84-14.62-4.65-19.8-12.07-21.36-7.93-1.67-12.65,3.21-14.19,17.42-1.13,10.44-4.13,20.7-7.32,30.12-3.31,9.78-8.76,11.82-15.09,6.14-6.73-6.05-2.4-13.72-1.41-20.95l-.32,.48Z"/>
      <path class="cls-1" d="M0,89.23c11.75-14.26,29.55-5.36,41.81-28.41-8.84,.9-15.5,2.58-22.06,1.87-3.79-.41-7.42-4.66-11.12-7.19,2.7-4.57,5.09-12.37,8.15-13.14,10.94-2.76,22.12-4.09,33.2-3.85,3.47,.08,7.89,5.79,9.87,10.95,.93,2.42-2.11,11.63-4.71,14.35-14.66,15.33-14.05,39.08-14.56,62.77-.33,15.58-1.56,17.24-11.31,21.12-1.29-13.63-2.56-27.07-4-42.32-7.37-4.44-20.07,6.23-25.26-16.15Z"/>
      <path class="cls-1" d="M36.55,3.6c.62,0,1.24-.05,1.85,0,5.92,.57,14.27-2.38,14.06,12.13-.2,13.66-8.73,12.01-14.47,12.2-5.74,.19-11.58-1.95-17.25-4.02-1.71-.62-4.29-4.63-4.16-6.71,.21-3.27,2-7.99,3.78-8.97,5.16-2.84,10.65-4.13,16-6.03,.06,.46,.13,.93,.19,1.39Z"/>
      <path class="cls-1" d="M61.59,112.63c-4.31,4.07-8.5,8.51-11.74-2.53-2.69-9.18-7.77-18.2,1.02-26.74,6.46,7.41,10.75,16.4,10.39,29.76,0,0,.33-.49,.33-.49Z"/>
    </g>
  </g>
</svg>