<?xml version="1.0" encoding="UTF-8"?>
<svg id="_圖層_2" data-name="圖層 2" xmlns="http://www.w3.org/2000/svg" viewBox="0 0 963.26 624.75">
  <defs>
    <style>
      .cls-1 {
        fill: #e1a442;
      }
    </style>
  </defs>
  <g id="_圖層_5" data-name="圖層 5">
    <g>
      <path class="cls-1" d="M428.65,220.36l-.25-.16c-7.23-4.04-13.54-4.94-18.77-2.67-6.78,2.95-9.14,10.2-9.57,11.71-1.67,3.8-2.42,15.74,3.66,22.75,2.37,2.74,6.36,5.38,12.92,5.38,3.15,0,6.9-.61,11.34-2.12,8.6-2.92,13.39-7.22,14.25-12.8,1.66-10.83-12.95-21.64-13.57-22.1Zm8.63,21.34c-.55,3.59-4.22,6.56-10.91,8.82-4.35,1.48-8.09,2.08-11.21,1.81,.55-.22,1.14-.61,1.75-1.21,9.59-9.29,0-23.23,0-23.23-9.46-5.87-9.88,19.23-4.57,23.9-1.94-.59-3.57-1.61-4.85-3.09-4.7-5.42-3.83-15.57-2.85-17.49l.13-.26,.07-.27c.02-.06,1.67-6.39,6.81-8.6,1.23-.53,2.57-.79,4.03-.79,2.93,0,6.32,1.06,10.14,3.18,3.64,2.69,12.45,10.76,11.46,17.21Z"/>
      <path class="cls-1" d="M271.21,228.75c-6.75-6.2-13.35-8.93-19.59-8.14-7.11,.91-11.22,6.14-12.09,7.37-2.52,2.66-6.41,11.97-3.35,20.04,2.1,5.53,8.13,12.17,24.96,12.41,.27,0,.54,0,.8,0,9.52,0,15.5-2.48,17.77-7.37,4.29-9.24-7-22.61-8.3-24.11l-.19-.2Zm3.96,22.2c-1.74,3.76-8.28,4.52-13.63,4.47,.42-.23,.85-.56,1.3-1,9.59-9.29,0-23.23,0-23.23-9.61-5.96-9.89,20.06-4.3,24.11-7.18-.46-15.2-2.51-17.69-9.08-2.39-6.3,1.16-13.78,2.28-14.81l.24-.22,.17-.26s3.18-4.71,8.76-5.39c.47-.06,.94-.09,1.42-.09,4.3,0,9,2.3,13.99,6.86,2.81,3.27,9.91,13.31,7.45,18.62Z"/>
      <path class="cls-1" d="M408.67,492.19c14.59-12.55,30.52-38.47,30.72-41.37,.08-1.13-.63-2.23-1.7-2.6-2.02-.69-3.01,.78-4.99,3.71-6.27,9.29-12.78,11.42-16.45,11.8,1.46-2.08,4.36-4.45,8.16-7.55,2.62-2.14,5.58-4.56,8.94-7.57,7.43-6.66,12.52-16.21,15.28-22.41,6.12,16.69,22.58,63.43,21.98,82-3.73,.55-8.29,1.91-11.15,5.16-4.33,4.92-6.48,11.14-5.89,17.08,.5,5.05,2.9,9.35,6.95,12.43,2.8,2.13,5.2,3.17,8.1,3.17,2.46,0,5.27-.75,8.97-2.21,1.28-.51,1.91-1.96,1.4-3.24-.51-1.28-1.96-1.92-3.24-1.4-7.45,2.95-9.21,1.99-12.2-.29-2.91-2.22-4.64-5.31-5-8.94-.45-4.49,1.3-9.45,4.67-13.28,3.15-3.57,10.68-3.97,13.31-3.81,1.38,.08,2.56-.97,2.64-2.34,.08-1.38-.97-2.56-2.34-2.65-.09,0-.52-.03-1.2-.03,.04-2.53-.19-5.47-.63-8.71,.52-.41,1.08-.75,1.68-1.05-.25-3.16-.72-6.28-1.24-9.44-.37-2.26-.74-4.52-1.25-6.74-.34-1.46-.62-3.6-1.72-4.7-.04-.04-.07-.08-.1-.12-.1,0-.19,0-.29,0-.56,0-1.16,0-1.71,.14-6.16-23.41-15.88-49.72-18.61-56.98,15.55-11.18,24.68-38.85,23.69-43.54-.32-1.51-1.42-2.18-2.35-2.31-2.12-.29-3.35,1.67-4.52,3.89-1,1.9-1.96,3.56-2.86,5.02,1.83-8.1,2.04-15.69,2.05-18.56,12.38-9.2,20.75-19.31,26.39-28.72,2,.25,4,.5,6,.71,.08-.1,.15-.21,.23-.31,.26-.37,.51-.74,.75-1.12,.48-.75,.91-1.52,1.3-2.32-2.05-.2-4.1-.44-6.16-.67,.05-.09,.1-.18,.15-.27,3.87-7.25,6.44-14.32,8.14-20.75,3.07-.52,6.14-1.09,9.21-1.73,.33-1.4,.61-2.81,.86-4.22-3.26,.71-2.9,.73-6.18,1.33-.96,.16-1.92,.29-2.88,.45,1.58-7.28,2.06-13.51,2.14-17.93,2.76-1.05,5.48-2.15,8.18-3.3-.05-.9-.12-1.8-.2-2.71-.05-.5-.1-1-.15-1.5,0-.02,0-.05,0-.07-2.6,1.13-5.23,2.2-7.87,3.24-.07-1.53-.17-2.46-.19-2.64-.14-1.25-1.2-2.2-2.45-2.21h-.03c-1.25,0-2.3,.92-2.47,2.15-.27,1.91-.59,3.56-.94,4.98-1.21,.43-2.41,.88-3.62,1.29,2.18-6.71,3.98-14.92,5.3-21.9,1.48-7.83,2.35-14.13,2.75-17.19,1.06-8.29,.75-8.83,.31-9.57-.52-.88-1.57-1.39-2.58-1.23-1.86,.29-2.24,1.93-2.71,4.01-1.1,4.83-3.8,10.73-6.78,16.26,3.62-20.8,1.51-44.72,1.38-46.08-.11-1.23-1.11-2.19-2.34-2.27-1.24-.08-2.34,.77-2.59,1.98-.88,4.15-1.8,8.04-2.74,11.7-6.68-35.62-33.5-67.54-37.67-72.33,0,0,.02,0,.02,0,36.97-23.42,28.46-48.58,28.46-48.58-8.18,31.18-24.39,31.16-24.39,31.16-6.77-.19-2.52-4.52-2.52-4.52,12.39-11.87,10.32-33.55,10.32-33.55-4.04,8.88-7.82,15.64-11.22,20.81,.26-1.64,.47-3.55,.54-5.71,.03,.02,.06,.05,.09,.07,1.04,.81,2.74,.38,2.74-1.14,0-.83,.03-1.46-.28-2.25-.25-.63-.46-1.27-.65-1.91-.37-1.27-.64-2.57-.81-3.88-.35-2.64-.4-5.31-.45-7.97-.05-2.8-.11-5.61-.41-8.39-.08-4.9-1.4-9.72-3.47-14.16-4.55-9.76-12.79-17.07-21.57-22.99-4.4-2.97-9.03-5.56-13.56-8.31-4.45-2.7-9.01-5.57-12.5-9.47-1.49-1.66-3.73,.73-2.4,2.4,3.68,4.62,8.29,8.02,13.29,11.09,.63,.39,1.26,.77,1.9,1.15,.08,.24,.2,.48,.39,.71,2.95,3.42,5.94,6.8,8.96,10.16,.15,.48,.45,.91,.92,1.12,.06,.03,.11,.06,.17,.08,.47,.52,.94,1.04,1.42,1.56,.61,1.75,1.04,3.56,1.34,5.41-1.29,.39-2.77,1.25-4.26,3.02-.89,1.06-1.83,2.77-2.88,4.96-3.39-2.76-6.87-5.39-10.46-7.88-7.52-5.21-15.31-10.2-23.41-14.47-1.88-.99-3.87-1.91-5.96-2.35-1.62-.34-3.27-.42-4.91-.55-1.18-.32-2.34-.68-3.47-1.15-2.99-1.25-5.74-3.07-8.11-5.27-1.71-1.59-4.71,.5-3.33,2.57,2.53,3.81,6.46,6.66,10.99,7.54,.74,.14,1.49,.23,2.24,.3,3.16,.91,6.45,1.47,9.26,3.26,5.38,3.43,8.31,9.69,12.47,14.34,2.49,2.78,5.45,5.13,8.53,7.24,3,2.06,6.18,4.19,9.48,5.74,.72,.34,1.47,.6,2.24,.74-2.23,5.08-5.18,11.54-8.07,15.91-.26-1.18-.81-2.49-1.84-3.87-.48-.64-1.26-1.01-2.02-1-.79,0-1.54,.39-2,1.03-3.79,5.23-8.61,10.06-10.38,10.45-.08-.07-.21-.17-.38-.3-.28-.88-1-1.28-1.73-1.28-4.59-3.24-16.45-10.49-36.72-15.67-23.75-6.07-64.09-10.28-121.8,3.91-1-1.53-2.7-3.97-4.93-6.59,.28-.04,.57-.12,.83-.27,.56-.3,5.11-2.77,11.62-6.52,0,.08-.01,.17,0,.25-1.55,1.57,.18,4.53,2.34,3.81,7.58-2.55,15.17-5.08,22.75-7.63,1.79-.45,3.58-.9,5.37-1.33,8.13-1.96,16.29-3.75,24.49-5.37,7.35-1.46,14.74-2.9,22.16-3.92,5.19,.25,10.36,.79,15.48,1.68,3.66,.63,7.29,1.44,10.87,2.41,8.34,2.9,16.49,6.33,24.4,10.31,2.86,1.84,5.71,3.69,8.57,5.53,1.69,1.09,3.35,2.07,5.12,3,1.61,.84,3.07,1.76,4.81,2.33,1.46,.48,2.36-1.43,1.43-2.45-1.44-1.57-3.24-2.69-4.85-4.06-1.63-1.39-3.63-2.45-5.43-3.61-3.47-2.24-6.94-4.48-10.41-6.71-3.04-1.96-6.09-3.91-9.23-5.68-5.95-5-13.19-7.45-20.86-8.26-1-.11-2-.18-3-.23-2-.45-4-.9-5.99-1.35-7.38-1.69-14.75-3.46-22.14-5.07-4.35-.95-8.76-1.9-13.2-2.46-.7-.18-1.4-.34-2.11-.48-1.74-.34-3.48-.54-5.22-.61,1.74-1.44,3.34-2.85,4.77-4.22,2.87-2.75,6.09-5.53,9.5-8.28,.94-.21,1.89-.43,2.83-.64,.14-.03,.28-.06,.42-.09,4.68,1.17,9.29-.4,13.56-2.35,.69-.31,1.37-.64,2.05-.96,1.89-.19,3.79-.15,5.68-.11,4.83,.12,9.65-.1,14.44-.69,6.8-.84,13.61-2.11,20.31-3.74,2.85-.36,5.66-1.01,8.37-2.15,.99-.41,1.63-1.18,1.5-2.29-.12-1.02-1.02-1.81-2.05-1.81-15.49-.03-30.99-.23-46.47,.25,12.09-7.53,23.82-13.13,30.81-14.14,.95-.14,2-.3,3.14-.48,11.46-1.81,31.73-4.99,51.18,4.66-.21,.06-.41,.13-.59,.24-.99-.05-1.98-.09-2.95-.11-8.46-.17-16.93,.15-25.35,.98-2.68,.27-2.69,3.93,0,4.17,4.72,.42,9.43,1.01,14.1,1.81,3.27,.55,6.52,1.22,9.75,1.95,.32,.33,.75,.56,1.3,.59,.72,.04,1.44,.13,2.15,.21,3.42,.84,6.81,1.78,10.17,2.82,1.07,.51,2.14,1.02,3.2,1.55,2.02,2.33,3.34,5.21,5.56,7.4,2.43,2.4,5.4,3.58,8.8,3.04,.24-.04,.45-.14,.64-.28,19.01,23.98,31.56,33.28,53.19,49.3,1.32,.97,2.68,1.98,4.07,3.02,.01,.01,.02,.03,.03,.04,.85,1,1.67,2.01,2.49,3.03,1.87,3.08,2.55,6.81,2.28,10.45-.44,5.76-3.3,11.11-6.33,15.89-1.2,1.89,1.49,3.81,3.02,2.33,5.2-5.05,9.08-11.3,11.38-18.15,.56-.44,.9-1.21,.78-2.01-.01-.1-.04-.2-.07-.29,.14-.72-.19-1.27-.69-1.58-.02-.03-.04-.06-.06-.09,1.2,.91,2.41,1.84,3.66,2.8,2.9,3.85,16.79,21.87,31.73,34.1-.44,.39-.75,.95-.81,1.59-.41,4.43-4.48,7.45-8.07,9.41-4.91,2.69-10.48,4.33-15.97,5.35-1.1,.2-1.72,1.53-1.44,2.54,.32,1.17,1.44,1.6,2.54,1.44,6.1-.87,12.11-2.28,17.95-4.23,2.97-.99,5.89-2.11,8.76-3.38,2.7-1.19,5.67-2.38,7.94-4.28,.22-.18,.36-.4,.42-.63,4.99,2.7,9.81,4.19,14.1,3.7,11.68,3.14,28.94,8.97,38.46,14.54-.3,0-.6,0-.89,.02-.28,.02-.55,.1-.78,.22-.18-.12-.39-.21-.63-.25-5.39-.88-10.7-.18-15.68,2.07-.47,.21-.77,.61-.91,1.07-.47,.1-.94,.19-1.41,.28-3.88-.03-7.77-.01-11.64,.16-1.06,.05-1.71,.7-1.96,1.48,5.16,.67,10.32,1.33,15.48,1.79,11.71,1.03,23.58,.63,35.25,1.98,.05-.27,.04-.56-.08-.86-.66-1.66-2.54-2.75-4.01-3.69-.59-.38-1.2-.73-1.81-1.06-.03-.06-.05-.13-.08-.19-6.02-10.94-44.18-21.37-48.51-22.52-.34-.09-.69-.11-1.03-.05-14.89,2.35-43.39-30.87-53.13-43.87-.14-.18-.3-.34-.48-.48-7.93-6.1-14.82-11.21-20.89-15.71-22.78-16.87-35.32-26.17-56.28-53.57C403.54-6.3,366.66-.49,350.91,2c-1.12,.18-2.14,.34-3.07,.47-12.98,1.87-36.82,16.1-54.05,29.97-1.42,.36-2.76,.93-3.43,2.21-.15,.29-.25,.58-.29,.87-2.11,1.8-4.1,3.58-5.91,5.3-3.12,2.98-7.15,6.22-11.65,9.52-.44,.18-.89,.35-1.32,.56-.48,.23-.8,.64-.99,1.11-19.64,14.01-46.34,28.49-46.69,28.68-.66,.36-1.08,.97-1.24,1.64-1.63-1.64-3.44-3.23-5.4-4.6-2.13-4.52-10.01-20.05-18.08-21.67-1.11-.25-2.77-.05-3.81,1.32-1.69,2.22-.32,5.49,1.06,8.09,.2,.37,.38,.72,.57,1.04-11.22-6.52-30.88-15.2-46.99-7.98-.02,0-.03,.02-.04,.03-.16,.08-.32,.17-.47,.28-.01,0-.02,.02-.03,.03-.13,.1-.25,.22-.35,.35-.01,.02-.03,.03-.04,.04-.23,.29-5.57,7.21-5.54,19.24,.03,14.5,7.54,29.65,22.3,45.11-25.57-10.25-29.7-24.67-29.7-24.67,0,24.77,23.94,35.03,23.94,35.03-27.87,4.13-46.39-32.71-46.39-32.71-3.25,27.11,17.58,43.46,38.09,52.89-2.43,2.5-10.61,11.54-18.28,27.29-7.77,15.97-16.32,41.98-14.37,76.87-8.98-7.49-14.33-13.33-14.49-13.5-.56-.62-1.38-.91-2.21-.8-.82,.12-1.53,.63-1.9,1.38-.43,.89-.78,1.85-1.02,2.84-3.23,13.04,10.91,32.33,20.39,43.44-2.94-1.08-5.85-2.2-8.75-3.38-8.84-10.8-12.09-24.11-12.13-24.31-.3-1.27-1.51-2.09-2.82-1.9-1.29,.2-2.21,1.36-2.11,2.66,.46,6.14,1.6,11.94,3.16,17.36-28.28-13.68-53.69-32.93-74.02-59.12,18.97,27.64,45.56,49.13,75.52,63.85,5.29,15.31,13.64,26.97,18.67,33.09-2.4-.4-4.8-.81-7.19-1.26-5.27-5.85-11.57-14.55-16.68-22.89-.55-.89-1.59-1.35-2.62-1.15-1.03,.2-1.82,1.02-1.98,2.06-.93,5.79-1.04,11.53-.37,17.21-18.09-4.63-35.76-10.8-52.79-18.64-12.29-5.3-23.84-12.1-35.4-18.9,0,0,8.36,5.59,8.36,5.59,2.58,1.72,5.8,3.83,8.54,5.34,5.18,3.1,12.26,7.11,17.65,9.74,17.23,8.74,35.47,15.57,54.2,20.61,2.45,13.51,9.43,26.55,20.74,38.66-19.95,.21-39.35-1.68-57.6-6.31-8.44-2.11-16.72-4.94-24.71-8.41-3.59-1.62-7.24-3.35-10.73-5.18,28.25,17.05,61.64,23.74,96.57,23.52,1.96,1.91,4.02,3.8,6.19,5.66,.64,.55,1.28,1.08,1.93,1.61-2.4,10.31,13.72,48.16,29.61,81.87-5.16-3.97-10.72-9.03-11.92-12.84-.38-1.23-1.64-1.97-2.9-1.7-1.26,.26-2.11,1.44-1.98,2.72,.08,.78,2.39,18.82,36.38,56.38-1.61-.55-3.53-1.43-5.7-2.84-.98-.63-2.26-.51-3.09,.3-.83,.81-1,2.08-.41,3.08,.29,.48,28.96,47.79,84.37,85.1-8.66,8.87-12.41,19.29-10.04,28.38,2.14,8.2,8.84,13.98,18.86,16.28,.45,.1,.9,.2,1.33,.28,2,.38,3.9,.57,5.72,.57,4.51,0,8.42-1.18,11.69-3.54,.95-.68,1.78-1.43,2.53-2.22,4.28,3.29,8.73,4.96,13.29,4.96,.33,0,.67,0,1-.03,7.13-.38,12.2-4.74,13.88-6.39l4.68,1.79s.09,.03,.14,.05c4.87,1.54,9.21,2.31,12.99,2.31,4.58,0,8.33-1.14,11.24-3.4,.35,.51,.89,.89,1.54,1.02,2.52,.51,4.84,.77,6.96,.77,5.15,0,9.11-1.51,11.8-4.52,6.69-7.47,2.4-21.12,2.22-21.67-2.17-6.99-5.6-11.18-10.18-12.46-4.77-1.34-9.33,.97-11.73,2.56-1.95-2.54-4.3-4.45-7.05-5.73-4.69-2.18-9.68-2.09-13.76-1.33-20.22-34.14-32.81-61.01-40.18-78.81,2.98,1.22,7.06,2.59,12.65,4.17,3.2,1.99,7.15,3.63,12.05,4.71,.18,.04,.36,.06,.54,.06,1.15,0,2.18-.8,2.44-1.96,.3-1.35-.56-2.68-1.9-2.98-25.31-5.57-20.98-27.9-20.77-28.88,.29-1.35-.57-2.67-1.92-2.96-1.35-.28-2.68,.57-2.97,1.92-.04,.18-2.43,12.14,4.34,22.26-4.78-1.73-6.63-2.89-7.31-3.44,.03-.59-.14-1.2-.54-1.71-.06-.08-.13-.14-.2-.21-3.27-8.5-4.89-13.72-5.33-15.22,4.74-41.37-3.3-52.92-3.65-53.39-.66-.9-1.83-1.26-2.88-.87-1.05,.39-1.71,1.42-1.63,2.53,.19,2.47,.12,4.74-.12,6.8-.36-8.62-2.13-15.97-2.26-16.48-.33-1.34-1.68-2.16-3.02-1.83s-2.16,1.68-1.83,3.02c.05,.2,4.84,20.12,.06,31.6-.46,1.1-.08,2.37,.91,3.04,.99,.67,2.31,.54,3.16-.3,.26-.26,4.57-4.63,6.84-12.75,1.1,7.78,1.56,20.02-.6,38.55-.04,.32-.01,.64,.07,.95,.01,.05,.21,.75,.63,2.07-.34,1.47-.68,2.94-1.01,4.41-2.22,4.08-4.47,8.14-6.77,12.18-2.61,4.59-5.41,9.07-8.09,13.62-1.07,1.82,1.38,3.6,2.86,2.21,6.75-6.36,12.39-13.69,16.67-21.86,.47,1.27,.99,2.64,1.55,4.09,0,.18,.03,.36,.06,.56,.11,.55,.35,1.13,.83,1.74,5.78,14.65,15.82,37.34,32.05,66.58-.64,1.44-1.43,3.01-2.21,4.4-.52,.92-1.08,1.81-1.66,2.69-.04,.07-.09,.14-.13,.21-.39,.46-.78,.91-1.2,1.33-.43,.45-.89,.88-1.35,1.29-.23,.21-.47,.41-.71,.61-.13,.11-.27,.22-.4,.33-.06,.05-.37,.29-.17,.14-.86,.66-1.32,1.7-.72,2.73,.58,1,1.75,1.15,2.73,.72,3.89-1.74,7.08-4.61,9.37-8.12,2.14,3.76,4.37,7.63,6.71,11.59-2.08,.73-3.43,1.43-3.59,1.51-1.22,.64-1.69,2.15-1.05,3.37,.64,1.22,2.15,1.69,3.37,1.05,.1-.05,10-5.12,17.94-1.41,4.74,2.22,7.99,7.22,9.67,14.87,.23,1.42,1.68,11.59-3.79,16.34-3.89,3.38-10.62,3.59-20.03,.62l-3.88-1.49c4.42-9.88,4.33-17.54-.33-22.78-6.66-7.49-20.37-6.78-23.14-5.73-1.34,.51-1.82,1.62-1.82,2.49,0,1.38,1.12,2.5,2.5,2.5,.47,0,.91-.13,1.29-.36,2.23-.48,13.01-.88,17.61,4.63,3.4,4.07,2.74,10.76-1.96,19.9-.92,.93-5.11,4.85-10.87,5.14-3.68,.18-7.36-1.16-10.99-3.96,2.04-3.55,2.67-6.9,2.81-7.72,3.21-12.12-6.25-20.33-11.73-22.98-1.24-.6-2.74-.08-3.34,1.16-.6,1.24-.08,2.74,1.16,3.34,.5,.24,12.12,6.02,9.05,17.31-.03,.11-.05,.22-.07,.33,0,.05-.47,3.31-2.51,6.59-.28,.13-.55,.32-.77,.57-.36,.39-.56,.86-.63,1.35-.68,.8-1.47,1.56-2.4,2.23-3.42,2.46-7.98,3.17-13.55,2.11-.38-.07-.76-.15-1.15-.24-8.12-1.86-13.5-6.36-15.14-12.66-2.09-8.01,1.96-17.59,10.84-25.62,0,0,0,0,0,0,0,0,0,0,0,0,.15-.13,.27-.28,.38-.44,.01-.01,.02-.02,.03-.04,.03-.05,.05-.1,.08-.15,.04-.08,.09-.16,.12-.24,.03-.07,.05-.15,.08-.22,.02-.08,.05-.15,.07-.23,.02-.08,.03-.16,.04-.25,0-.08,.02-.15,.02-.23,0-.08,0-.16-.01-.24,0-.08-.01-.16-.03-.24-.01-.08-.03-.15-.06-.23-.02-.08-.04-.16-.07-.23-.03-.08-.07-.15-.1-.22-.03-.07-.07-.14-.11-.21-.05-.08-.11-.15-.16-.22-.03-.04-.06-.09-.1-.13-.01-.01-.03-.03-.04-.04-.06-.06-.13-.12-.19-.17-.06-.06-.13-.11-.2-.16-.02-.01-.03-.03-.05-.04-1.95-1.28-3.86-2.59-5.75-3.89,4.7-2.02,9.14-4.57,13.24-7.59,4.03-1.82,7.89-3.88,10.71-7.54,.04-.05,.06-.09,.08-.14,1.1-1.36,1.89-2.95,2.34-4.66,.57-2.21-1.95-3.28-3.52-2.05-.21,.16-.42,.32-.63,.48-.22,.11-.44,.26-.64,.48,0,0-.01,.01-.02,.02-1.43,1.08-2.88,2.13-4.35,3.15-.59,.31-1.18,.6-1.79,.88-2.48,1.16-5.01,2.22-7.56,3.2-2.46,.95-4.95,1.81-7.46,2.61-.2-.03-.41-.02-.61,0-3.92,.62-7.97,.9-11.94,.7-.53-.03-.99,.19-1.34,.53-12.63-9.87-23.47-19.98-32.52-29.39,1.12,.29,2.26,.41,3.4,.18,13.15,2.51,27.02,3.76,38.99-3.35,2.22-1.32,.72-4.7-1.73-4.09-9.09,2.24-18.7,2.16-27.73-.29-3.71-1.01-7.21-2.46-10.69-4.03-.11-.32-.32-.61-.64-.74-3.42-1.47-6.9-2.89-10.16-4.69-1.65-.91-3.24-1.91-4.79-2.99-.7-.49-1.41-.99-2.08-1.53-.07-.05-.13-.11-.19-.16-.06-.15-.15-.29-.26-.44-.31-.41-.66-.78-1.04-1.13-.04-.04-.09-.07-.13-.11-.02-.31-.14-.6-.38-.8-1.53-1.31-3.07-2.62-4.59-3.94-.77-.67-1.54-1.34-2.32-2.01-.42-.36-.85-.71-1.3-1.03-.28-.19-.58-.29-.88-.34-.86-1.18-1.64-2.28-2.35-3.28,4.15,1.12,6.71,.54,7.12,.43,.85-.23,1.52-.88,1.76-1.73,.24-.85,.02-1.75-.58-2.4-18.89-20.17-28.82-34.97-34-44.63,5.07,4.27,10.23,7.57,11.24,8.2,.94,.59,2.17,.49,2.99-.25,.83-.74,1.07-1.94,.59-2.95-.57-1.18-1.12-2.34-1.67-3.48,3.86,2.68,7.84,5.17,11.98,7.41,7.29,3.95,14.91,7.23,22.75,9.82,.25,.12,.49,.26,.74,.38,5.94,2.92,12.19,5.43,18.6,7.13,6.99,1.85,14.52,2.46,21.16-.89,2.07-1.04,.97-4.11-1.13-4.17-5.91-.16-11.8-.69-17.63-1.64-6.24-1.02-12.38-2.46-18.4-4.3-1.46-.72-2.9-1.47-4.32-2.25-1.81-2.42-3.98-4.42-6.27-6.41-2.42-2.1-4.88-4.13-7.4-6.1-2.6-2.03-5.24-3.99-7.94-5.88-1.24-.87-2.52-1.7-3.76-2.57-.05-.04-.1-.08-.15-.11-.78-1.18-1.59-2.33-2.41-3.47-4.86-6.78-10.33-13.08-15.45-19.66-2.49-3.2-4.86-6.48-7.03-9.9-2.19-3.44-3.9-7.19-6.13-10.6-.26-.4-.6-.63-.96-.73-6.26-16.25-7.83-23.79-8.1-27.19,.09,.07,.17,.13,.26,.19,.01,.21,.06,.42,.17,.64,1.53,3.21,3.31,6.22,5.51,9.02,1.08,1.37,2.22,2.71,3.48,3.92,.08,.07,.15,.15,.23,.22,3.33,5.57,6.74,11.08,10.1,16.63,3.61,5.95,6.95,12.42,11.78,17.5,4.52,4.76,10.38,7.93,16.33,10.55,13.21,5.81,27.03,10.17,41.07,13.47,2.43,.57,4.19-3.03,1.77-4.19-6.18-2.95-12.24-6.15-18.13-9.65-18.63-11.05-35.52-25.31-48.1-43,3.28,1.67,5.51,2.65,6.17,2.93,12.93,7.86,26.86,12.99,40.8,16.14,.16,.27,.38,.52,.69,.71,9.19,5.87,19.32,10.51,29.85,13.48,2.19,1.45,4.67,2.57,6.97,1.18,1.46-.88,1.24-3.27-.48-3.7-1.76-.44-3.51-.92-5.25-1.44-1.12-.71-2.23-1.43-3.32-2.19-2.1-1.45-4.13-2.98-6.11-4.57,6.16,.56,12.21,.81,18.08,.81,27.13,0,50.19-5.28,60.44-8.97,8.15-2.93,36.72-6.03,37-6.06,.13-.01,.26-.04,.38-.07,2.19-.59,8.33,.1,13.26,.66,4.6,.52,8.93,1.01,11.78,.81,1.46-.1,2.79-.18,4.13-.26,5.09-.3,10.35-.61,22.35-2.09,2.93-.36,5.77-.78,8.55-1.21-.28,.23-.57,.46-.85,.69-2.37,2-4.61,4.14-6.93,6.19-3.18,2.8-6.59,5.23-10.29,7.18-2.02,.93-4.06,1.82-6.12,2.68-1.01,.42-1.73,1.32-1.41,2.48,.28,1,1.45,1.77,2.48,1.41,2.51-.87,4.92-1.93,7.23-3.16,12.72-5.82,24.94-12.9,35.93-21.53,12.37-3.13,23.04-7.09,32.25-11.58-7.87,8.06-14.14,17.5-21.6,25.91-8.63,9.73-19.41,17.23-30.6,23.74-2.15,1.25-.69,5.03,1.73,4.11,6.13-2.34,12.05-5.41,17.71-8.73,9.94-5.81,19.18-12.82,27.47-20.8,7.11-6.83,13.66-14.52,19.01-22.86-.86,5.27-2.38,11.12-5.03,15.98-.53,.97-.36,2.17,.41,2.95,.77,.79,1.97,.97,2.94,.46,.39-.2,2.88-1.64,6.6-6.54-3.94,9.34-10.6,20.91-19.15,26.2,0,0,0,0-.01,.01-.04,.03-.08,.06-.11,.09-.09,.06-.17,.13-.25,.2-.05,.04-.09,.09-.13,.14-.06,.07-.12,.13-.17,.2-.04,.05-.07,.11-.11,.17-.05,.07-.09,.15-.13,.23-.03,.06-.06,.12-.08,.19-.02,.04-.04,.08-.05,.12-.03,.08-1.18,3.47-3.39,8.04-.4-.12-.84-.07-1.25,.22-3.67,2.65-7.47,5.13-11.39,7.41-1.91,1.11-3.84,2.17-5.79,3.2-15.72,7.05-32.98,10.78-50.2,10.81-1.45,0-2.72,1.49-2.25,2.95,.1,.3,.21,.59,.33,.87-.51,1.17-.18,2.66,1.42,2.97,.33,.06,.66,.1,.99,.16,2.19,1.79,5.2,2.61,8.12,2.97,2.67,.33,5.39,.33,8.07,.44,.33,.01,.67,.03,1,.04,1.29,.27,2.61,.38,3.93,.32,1.27-.06,2.52-.24,3.76-.52,.32-.06,.64-.12,.97-.18,.19-.04,.34-.11,.48-.19,1.78-.53,3.5-1.28,5.11-2.21,3.61-2.1,6.73-4.89,10.04-7.4,1.38-1.05,2.79-1.99,4.25-2.83,4.46-1.55,8.87-3.24,13.23-5.06,.21-.07,.41-.15,.62-.23-1.35,1.65-2.82,3.23-4.39,4.64-3.27,2.93-6.19,5.32-8.76,7.42-6.43,5.25-10.68,8.72-11.03,13.62-.09,1.23,.73,2.33,1.92,2.61,.34,.08,5.56,1.21,12.19-2.12-1.22,1.73-2.5,3.51-3.84,5.28-8.7,7.33-18.61,13.49-29.16,17.83-3.62,1.02-7.18,2.27-10.64,3.76-1.19,.27-2.4,.46-3.63,.51-.96,.04-1.93,0-2.88-.14-1.13-.17-2.29-.51-3.44-.41-1.4,.11-2.04,1.62-1.12,2.7,1.58,1.84,4.53,2.06,6.8,2.05,.48,0,.95-.04,1.43-.07,.24,.23,.54,.4,.91,.46,4.69,.75,9.36,.93,14.06,.21,.78-.12,1.61-.23,2.42-.42,.44,.38,1.01,.6,1.62,.6,.16,0,.32-.01,.48-.05,1.4-.27,2.89-.86,4.42-1.66-.76,2.4-1.62,5.3-2.49,8.56-.31,.13-.61,.35-.85,.69-2.75,3.91-7.13,7.01-11.52,8.83-4.5,1.86-9.6,2.63-14.44,1.94-1.02-.14-2.02,.23-2.32,1.32-.26,.93,.32,2.13,1.32,2.32,8.1,1.59,16.5,1.45,24.55-.37-1.24,7.17-2,14.81-1.64,21.97,.07,1.34,1.17,2.37,2.5,2.37,.04,0,.09,0,.13,0,.69-.04,1.29-.34,1.72-.82h0s-.03,.04-.1,.1c.04-.03,3.92-3.17,17.13,2.03,1.24,.99,7.23,6.12,7.74,13.25,.36,4.97-2.02,10.02-7.07,15.01-1.27,.87-10.01,6.44-17.58,1.65,3.46-6.15,4.59-12.18,3.36-17.94-2.14-9.98-10.62-15.36-10.98-15.58-1.17-.73-2.7-.37-3.44,.8-.73,1.17-.38,2.71,.79,3.44,.07,.04,7.08,4.55,8.75,12.44,1.09,5.18-.32,10.76-4.19,16.62-1.21,1.16-9.08,8.11-17.99,3.04-.1-.06-.23-.12-.34-.16-.43-.17-10.59-4.3-8.9-17.94,0-.06,.01-.12,.02-.18,0-.06,.4-6.13,5.36-9.23,1.17-.73,1.53-2.27,.79-3.45-.73-1.17-2.28-1.53-3.45-.79-6.85,4.28-7.62,12.03-7.69,13.12-.53,4.35-.04,8.05,1.03,11.13-3.38,2.74-6.77,4-10.06,3.72-5.67-.5-9.53-5.33-9.6-5.42-2.13-2.62-2.95-5.18-2.5-7.82,1.02-5.98,8.18-10.43,8.25-10.47,1.18-.72,1.55-2.25,.83-3.43s-2.25-1.55-3.43-.84c-.37,.23-9.15,5.64-10.58,13.87-.22,1.25-.23,2.49-.1,3.72-1.27-.27-2.34-.83-3.22-1.7-2.91-2.86-2.95-8.08-2.95-8.17-.04-3.35,.88-5.8,2.8-7.48,4.2-3.66,11.86-2.55,11.94-2.54,1.03,.16,2-.33,2.51-1.16,.68-.25,1.25-.78,1.51-1.52,.13-.38,1.13-3.29,2.24-7.74,1.11,.86,2.6,1.33,3.82,1.88,.96,.43,1.91,.86,2.87,1.29,.96,.54,1.97,.99,3.01,1.34,1,.34,2.09-.3,2.48-1.22,.37-.88,.09-2.19-.86-2.62-.99-.45-1.98-.91-2.97-1.36-.31-.19-.63-.37-.93-.58-.15-.1-.3-.21-.44-.32,.36,.26-.23-.19-.29-.24-.7-.59-1.34-1.24-1.91-1.94-.13-.16-.26-.33-.4-.49-.04-.04-.28-.34-.27-.33-.17-.22-.34-.45-.5-.67,.05,.06-.26-.37-.29-.42-.03-.05-.07-.08-.1-.13,.06-.91-.17-1.78-.53-2.61-.18-.41-.42-.82-.7-1.21,1.28-7.96,1.94-17.65,.25-26.85,.3,.21,.59,.42,.89,.61,.41,.26,.87,.38,1.33,.38,.83,0,1.64-.41,2.12-1.17,.74-1.17,.38-2.71-.79-3.45-3.23-2.03-6.24-5.48-8.93-10.25-5.16-9.14-8.11-21.3-9.5-29.34,.94,.74,1.93,1.43,2.9,2.05-.16,.53-.15,1.14,.16,1.79,.11,.23,.23,.43,.37,.62,.9,1.63,1.34,3.47,2.17,5.15,1.1,2.21,2.93,3.62,5.22,4.45,2.37,.87,4.87,1.45,7.32,2.12,2.59,1.42,5.43,2.26,8.33,2.85,.56,.22,1.12,.43,1.69,.62,3.8,1.21,7.85,1.37,11.74,.5,2.03-.46,2.11-3.18,.55-4.2-3.99-2.6-8.86-2.53-13.23-4.06-6.93-2.43-12.37-8.16-15.63-14.6-1.98-3.91-3.2-8.22-3.9-12.54-.71-4.32-.6-8.72-1.22-13.05-.06-.41-.29-.67-.58-.83,.32-7.58,1.31-14.6,2.12-18.73,.27-1.35-.61-2.67-1.97-2.94-1.35-.26-2.67,.61-2.94,1.97-.27,1.38-5.52,28.58,.63,45.38-2.38-1.74-4.24-3.6-4.58-5.16-.13-.58-.46-2.11-2.1-2.46-.96-.2-1.97,.18-2.55,.97-.56,.76-.76,1.26-.17,5.96,.38,3.04,.99,6.6,1.72,10.03,1.52,7.17,4.34,17.49,9.1,25.92,.58,1.03,1.19,2,1.8,2.93-.67,2.6-3.41,10.29-12.91,14.51-1.26,.56-1.83,2.04-1.27,3.3,.56,1.26,2.04,1.83,3.3,1.27,7.16-3.18,11.17-8.05,13.4-12.09,2.17,9.14,1.51,19.29,.19,27.54-.29,.43-.42,.94-.24,1.43-1.22,7.01-2.85,12.45-3.46,14.36-2.83-.23-9.95-.33-14.74,3.83-3.07,2.66-4.6,6.47-4.54,11.28,0,.3,.01,7.34,4.42,11.7,2.19,2.16,5.01,3.28,8.39,3.32,.53,.99,1.18,1.96,1.96,2.91,.21,.27,5.17,6.58,13.02,7.29,.49,.04,.98,.07,1.47,.07,3.85,0,7.65-1.41,11.34-4.17,2.59,3.95,6.09,6.35,8.63,7.36,3.05,1.7,6.07,2.37,8.91,2.37,5.99,0,11.18-2.98,14.14-5.59,3.22,2.13,6.54,2.91,9.64,2.91,7.44,0,13.6-4.36,13.96-4.63,.1-.07,.2-.15,.29-.24,6.26-6.12,9.18-12.56,8.7-19.13-.76-10.25-9.64-16.79-10.01-17.07-.17-.12-.35-.22-.54-.3-9.4-3.76-15.2-3.89-18.64-3.13,.08-19.85,8.19-42.86,9.42-46.22ZM333.63,27.52c-1.59,.14-3.17,.25-4.77,.32-.09,0-.19,0-.28,0,1.67-.21,3.36-.3,5.05-.33Zm209.96,113.51s.02-.03,.03-.04c.01,0,.02,.02,.04,.02-.02,0-.05,.01-.07,.02ZM259.62,65.17c.27-.17,.54-.35,.81-.52,.06,.18,.14,.35,.24,.52-.35,0-.7,0-1.05,0Zm14.14-9.5c-.07,.04-.15,.08-.22,.12-.03,.02-.07,.03-.1,.05,.09-.06,.17-.12,.25-.18,.02,0,.04,0,.06,.01Zm-12.36,429.28s0-.05,.01-.08c.06-.34,.12-.68,.17-1.02,.06,.16,.12,.33,.18,.49-.12,.2-.24,.41-.36,.61Zm82.45,101.3c2.84,.81,5.1,3.88,6.75,9.15,1.02,3.18,2.78,12.42-1.19,16.84-2.42,2.7-6.87,3.47-13.17,2.33,4.23-6.66,3.01-15.77,2.67-17.79,0-.04-.01-.08-.02-.12-.69-3.17-1.64-5.96-2.83-8.4,1.6-1.09,4.79-2.86,7.79-2.01Zm-101.97-16.07c-.08,.09-.15,.2-.2,.3-.14-.1-.29-.21-.43-.31,.21,0,.42,.02,.63,0Zm-86.46-123.92c-.14,0-.29,.02-.43,.05-.23-.49-.46-.97-.69-1.46,.36,.48,.72,.96,1.12,1.41Zm59.72-35.84c.45,.1,.91,.21,1.36,.29,0,0,0,0,0,0,.23,.2,.46,.4,.69,.6-.69-.29-1.38-.59-2.06-.89Zm276.73-80.52c-.31,.58-.65,1.15-.97,1.73-28.28-3.73-56.48-10.94-82.14-19.31,.07-1,.11-1.97,.14-2.94,29.58,6.11,59.91,7.22,90.19,2.76-1.61,5.6-3.91,11.63-7.21,17.76Zm-87.14-17.23c0,.06,0,.12-.01,.19-.67,8.78-6.47,15.97-14.43,17.87-11.72,2.81-47.68,7.16-84.08,2.7l-9.89-2.37c-7.04-1.68-12.57-6.75-15-13.06,9.84-4.47,19.23-9.08,28.02-13.72-9.11,4.12-18.66,8.22-28.55,12.22-.27-.91-.46-1.84-.6-2.79,8.83-2.57,17.57-5.48,26.17-8.72,.99-.23,1.99-.46,2.98-.71-.66,.12-1.33,.22-1.99,.34,.66-.25,1.33-.5,1.99-.75-.96,.31-1.93,.61-2.9,.91-8.73,1.47-17.51,2.62-26.31,3.46,.15-1.13,.38-2.25,.71-3.35,.04-.13,.06-.26,.08-.39,.07-.72,1.03-9.85,6.16-18.06,.26-.26,.46-.56,.59-.9,4.79-7.14,12.89-13.31,26.55-12.17,.39,.04,.77-.05,1.09-.22-.21,.32-.4,.64-.56,.96-4.26,8.54,7.35,25.94,18.97,28.26,1.8,.36,3.72,.68,5.69,.96,.07-.52,.31-1,.73-1.33,1.01-2.26,.95-13.49-2.67-16.8-.51-.46-1.86-1.69-5.29,.77-2.97,2.13-3.16,3.15-3.18,3.15,.32,.63,2.8,1.35,3.62,1.58,1.1,.32,1.82,.53,2.37,.97,.86,.7,.98,1.96,.29,2.81-.66,.81-1.81,.97-2.66,.4-.21-.08-.72-.23-1.11-.34-2.36-.68-5.92-1.71-6.44-4.71-.51-2.95,2.48-5.47,4.78-7.12,4.22-3.02,7.25-2.43,9.05-1.4,5.71,3.26,6.02,14.48,5.67,18.54-.16,1.77-.44,3.06-.88,3.98,4.47,.44,9.01,.6,12.97,.36-.13-3.31-.35-17.4,4.9-20.75,1.15-.73,3.04-1.32,5.6,.01,3.14,1.63,4.66,3.57,4.53,5.76-.22,3.69-5.24,5.75-6.25,6.12-1.03,.39-2.18-.14-2.57-1.17-.39-1.03,.13-2.19,1.17-2.58,1.77-.67,3.62-2,3.66-2.62,0-.15-.37-.92-2.39-1.97-1.04-.54-1.44-.29-1.6-.19-2.45,1.56-3.26,10.86-3.06,16.95,2.71-.43,4.94-1.13,6.37-2.18,0,0,19.49-13.38,14.76-25.52,2.44,.24,9.88,1.49,15.6,7.77,1.06,1.17,2.01,2.45,2.85,3.84-.14,1.08,.43,2.08,1.35,2.54,1.73,3.69,2.78,8.01,3.17,12.95-7.26,.05-14.53-.17-21.78-.7-.85-.2-1.71-.39-2.57-.6,.57,.18,1.14,.36,1.71,.54-.55-.04-1.11-.08-1.66-.12,.82,.14,1.64,.25,2.46,.37,7.28,2.26,14.61,4.22,22,5.86-.01,.81-.04,1.64-.09,2.48-8.44-2.82-16.61-5.75-24.37-8.71,7.67,3.59,15.81,7.07,24.27,10.38Zm-211.38,15.47c28.05-1.33,55.97-5.78,82.98-13.32,.19,1.08,.44,2.14,.76,3.17-22.38,8.9-46.43,17.2-71.06,23.77-6.01-4.81-10.34-10.35-12.68-13.62Zm86.67-18.39c3.37-.47,6.73-.98,10.09-1.53,4.59-.77,9.16-1.63,13.7-2.63-7.84,2.38-15.77,4.57-23.78,6.53-.05-.78-.06-1.57-.02-2.37Zm70.77-48.89c0-.16,.02-.32,.02-.47,.03,.16,.05,.32,.08,.49-.03,0-.07,0-.1-.01Zm54.06,43.76c.04,.74,.06,1.5,.07,2.27-6.62-1.08-13.21-2.39-19.74-3.89,4.09,.54,8.2,.93,12.31,1.21,2.45,.17,4.9,.3,7.36,.41Zm4.07,2.88c0-.93-.02-1.83-.06-2.72,24.85,.75,49.82-1.81,73.97-7.84,2.31-.57,4.61-1.19,6.89-1.84-.22,.35-.44,.68-.66,.97-.43,.55-.6,1.26-.49,1.94,.12,.69,.51,1.29,1.1,1.68,1.58,1.04,5.24,2.34,8.88,.69,1.28-.58,2.44-1.47,3.48-2.65-.38,3.08-.96,6.52-1.84,10.2-30.2,4.26-61.07,4.1-91.26-.43Zm90.91-15.52c-1.19,2.41-2.44,3.42-3.32,3.82-.57,.27-1.15,.37-1.67,.37h-.02c.47-.91,.92-1.92,1.37-3.01,1.22-.38,2.43-.78,3.63-1.18Zm-8.56-61.14c0,14.52-1.39,34.48-8.08,45.83-.68,1.15-.33,2.64,.8,3.37,1.13,.73,2.62,.44,3.4-.66,.4-.57,6.71-9.56,11.96-19.61-1.79,10.45-4.45,22.89-7.41,30.6-24.46,7.67-50.62,11.69-77.34,12.58-1.95,.08-3.89,.13-5.84,.17-.33-4.46-1.16-8.48-2.5-12.07,9.21,1.42,19.88,3.63,20,3.65,.17,.03,.34,.05,.51,.05,17.44,0,29.36-7.9,31.53-9.46,3.04-1.14,18.46-8.73,30.86-47.49,.03-.09,.06-.18,.08-.27,.68-2.14,1.36-4.36,2.02-6.7Zm-15.91-14.83c2.59,11.21-.81,23.49-10.12,36.52l-.13,.2c-.68,1.17-17.22,28.58-60.38,19.87-1.12-.36-13.12-4.43-32.1-19.47,1.81-5.14,8.16-21.73,19.57-36.73,17.42-22.88,38.09-31.72,61.46-26.33-.26,.81-.51,1.62-.74,2.43-.28,.95,.22,1.98,1.07,2.43,0,.02,.02,.04,.03,.06-.24,1.77-.58,3.53-1.15,5.23-.86,2.57-2.61,4.71-3.35,7.32-.23,.8,.52,1.44,1.28,1.28,3.23-.67,4.82-3.98,5.87-6.79,.65-1.76,1.05-3.62,1.31-5.5,.39,.86,1.73,1.29,2.46,.5,.54-.58,1.05-1.19,1.55-1.8,4.94,4.24,11.16,11.23,13.37,20.78Zm-11.25-36.41c.17,.27,.33,.54,.5,.82-.14-.12-.28-.24-.45-.32-.02-.17-.04-.33-.05-.5Zm-25.63-48.25c6.54-17.67,2.73-38.03-1.26-51.24,14.45,23.06,7.75,40.75,7.4,41.62-.42,1.05-.08,2.2,.76,2.88-2.79,3.33-5.13,5.43-6.9,6.74Zm-27.04-25.45c-.82,2.14-1.77,4.22-2.85,6.23,.98-2.06,1.93-4.14,2.85-6.23Zm2.76-9.89c-.08,.45-.17,.9-.26,1.36-.09-.12-.19-.22-.3-.32,.19-.34,.37-.69,.56-1.04Zm-12.64,6.21c-.51,.91-1.27,1.6-1.61,1.84-.03,.02-.05,.04-.08,.06,.59-.64,1.16-1.28,1.69-1.9Zm-228.85,21.65c-32.47-31.54-24.79-53.21-21.31-59.58,7.21,4.97,31.87,24.88,33.88,65.45-.55-.26-.83-.4-.83-.4-4.02-.88-7.72-1.86-11.12-2.91,.28-.88,.08-1.88-.63-2.56Zm-11.22,34.45c-.51-.04-1.03,.15-1.29,.67-.07,.14-.12,.28-.19,.42-.26-.09-.53-.14-.81-.09-.36-.17-.73-.32-1.1-.48,0-.43-.17-.83-.46-1.18-.3-.35-.72-.56-1.16-.68-.12-.21-.29-.39-.47-.55,.04-.07,.08-.13,.1-.2,1.81,.75,3.61,1.44,5.37,2.09Zm-37.92,96.34c1.47,1.63,3.24,3.03,5.09,4.23,1.41,.92,2.88,1.74,4.32,2.6,2.16,2.11,4.55,3.98,7.15,5.53,2.12,1.27,4.01-1.55,2.52-3.27-1.97-2.27-4.45-3.91-7-5.44-2.17-2.11-4.08-4.49-5.68-7.1-1.53-2.5-2.84-5.11-3.78-7.88-.47-1.37-.86-2.77-1.2-4.17-.35-1.44-.76-2.86-.99-4.32,.52-6.35,1.4-12.32,2.53-17.9,.69,1.4,1.48,2.74,2.3,3.96,2.72,4.06,5.56,8.04,8.42,12.01,.5,1.45,1.04,2.89,1.64,4.31,4.94,11.77,13.64,22.4,25.99,26.71,1.41,.82,2.85,1.58,4.35,2.23,3.12,1.37,6.3,2.17,9.64,2.62,2.04,.87,4.13,1.63,6.25,2.27,1.73,.52,2.33-2.01,.73-2.64-2.6-1.03-5.13-2.27-7.57-3.65-.04-.16-.12-.32-.28-.45-.48-.38-1.03-.74-1.46-1.16-.44-.44-.85-.9-1.31-1.31-.93-.82-1.92-1.59-2.89-2.36-.98-.77-1.95-1.55-2.93-2.32-.49-.39-.97-.78-1.46-1.17-.17-.14-.41-.29-.56-.43-.14-.19-.28-.37-.43-.55-.17-.17-.37-.3-.58-.4-.14-.08-.28-.13-.42-.17-3.33-3.17-6.23-6.74-8.77-10.58-.22-.53-.44-1.06-.64-1.6-2.6-6.65-4.86-13.44-6.83-20.31-1.98-6.93-3.78-13.97-4.89-21.1-.04-.26-.07-.52-.11-.78,0-.27-.02-.54-.02-.81-.08-5.88,.02-12.27,1.04-18.42,.55-1.13,1.12-2.25,1.71-3.35,1.64-3.04,3.38-6.04,4.96-9.09,0,.16-.02,.33-.03,.49,0,.04,0,.07,0,.11-.5,2.01-.66,4.13-.46,6.3,.32,3.45,1.35,6.73,2.67,9.9,.23,.71,.47,1.41,.74,2.11,1.06,2.76,2.35,5.56,4.1,7.96,.03,.05,.05,.1,.08,.16h.02c.1,.13,.19,.28,.3,.42,.05,.07,.12,.11,.19,.16,.02,.03,.03,.06,.05,.09,1.39,2.29,3.09,4.81,5.29,6.47,.05,.06,.09,.13,.14,.19,.26,.31,.59,.47,.94,.52,1.36,.7,2.74-.83,2.12-2.15-.01-.04-.02-.08-.03-.13-1.21-3.41-2.93-6.6-4.09-10.04-1.12-3.31-1.93-6.73-2.4-10.19-.47-3.49-.59-7.03-.39-10.54,.21-3.54,1.01-7,1.23-10.53,.03-.48-.21-.85-.54-1.09,14.17,5.09,25.87,6.92,25.87,6.92,27.74,1.8,63.35,12.84,63.35,12.84,47.94,29.94,52.65,22.19,52.65,22.19,10.84-40.26-34.58-56.26-34.58-56.26-17.94-4.71-54.84-3.55-54.84-3.55-11.57-3.7-19.71-6.85-24.62-8.9,.14-.33,.22-.69,.2-1.07-1.53-40.92-24.28-62-34.09-69.23,20.34-4.7,46.01,14.58,46.28,14.79,.84,.64,2,.68,2.89,.1,.89-.58,1.31-1.66,1.05-2.69-.73-2.92-1.52-4.02-2.75-5.57-.8-1.01-1.8-2.28-3.27-5.05-.23-.44-.42-.83-.58-1.17,4.32,3.06,9.78,12.04,12.74,18.48,.19,.42,.5,.78,.88,1.03,7.53,5.02,13.11,14.48,13.16,14.58,.31,.54,.8,.91,1.36,1.1,.56,2.9,4.14,4.97,6.43,6.42,3.71,2.34,7.45,4.61,11.25,6.79,.42,.24,.85,.47,1.27,.71,6.25,5.92,14.25,10.08,22.57,11.63,1.1,.21,2.12-.22,2.58-1.27,.4-.92,.08-2.28-.9-2.74-7.23-3.39-14.34-7.01-21.29-10.92-.06-.03-.11-.06-.17-.1-3.87-3.76-6.93-8.17-9.3-13.05,17.43-3.81,33.11-5.89,47.09-6.75,.05,.48,.24,.94,.62,1.31,1.41,1.36,3.02,2.47,4.9,3.03,.74,.49,1.68,.78,2.82,.74,5.99-.22,11.95-.08,17.88,.37,.42,2.06,1.02,4.1,1.75,6.1-3.28-.28-6.53-.48-9.68-.12-.82-.07-1.65-.15-2.47-.21-3.71-.26-7.19,.31-10.15,2.69-2.61,2.1-4.95,6.15-2.21,9.13,.96,1.05,2.28,1.37,3.62,1.52,0,0,0,0,.01,0,1.2,.7,2.65,.79,3.95,.41,.2,.02,.39,.03,.59,.04,.87,.13,1.75,.26,2.62,.36,1.86,.18,3.74,.19,5.6,.27,3.91,.17,7.82,.34,11.73,.5,1.02,.04,2.04,.09,3.06,.13,0,.01,.01,.03,.02,.04,2.48,5.36,4.78,10.97,5.67,16.8-.74-.13-1.47-.27-2.21-.38-4.49-.72-9.08-1.16-13.63-1.04-3.31,.09-6.68,.49-9.86,1.44-.07,0-.14,0-.21,0-.97,0-1.79,.24-2.47,.61-3.36,.48-6.28,2.12-7.09,5.41-.23,.51-.33,1.05-.28,1.62-1.61,2.79,.33,5.79,3.12,6.83,5.36,2.01,10.73,.08,16.22-.19,5.39-.27,10.79,.33,16.1,1.19,8.7,1.41,17.34,3.3,26.13,3.78,6.68,1.83,13.34,3.1,20.59,1.8,5.3-.95,4.17-7.81,0-9.29-9.01-3.2-18.02-6.39-27.04-9.59-1.3-6.31-3.8-12.11-6.78-17.71,1.16-.04,2.31-.17,3.45-.38,.2,0,.41,.02,.61,.03,.23,.01,.45,0,.67-.01,3.1,.57,6.34,.4,9.47-.53,4.98-1.48,4.5-7.64,0-9.29-7.68-2.81-15.05-4.8-23.16-5.12-.98-1.65-1.94-3.31-2.88-4.98,2.57,.45,5.13,.95,7.69,1.53,.96,.22,1.83,.18,2.6-.05,.62,.03,1.25,.02,1.87-.05,2.54-.31,4.85-1.29,6.75-3.02,.41-.38,.59-.85,.6-1.31,.68,.16,1.34,.32,1.99,.49,17.47,4.42,28.55,10.52,33.77,13.89-.27,1.31,.35,2.44,.62,3.73,.25,1.19,.31,2.39,.26,3.6-.05,1.11-.23,2.18-.51,3.23-.45,1.23-.95,2.45-1.53,3.63-.28,.58-.26,1.14-.07,1.61-.08,.08-.15,.17-.23,.25-1.62,1.59,.85,4.05,2.49,2.49,1.97-1.88,3.49-4.15,4.52-6.63,1.3-2.67,2.18-5.55,2.58-8.55,2.33-.74,4.94-2.93,7.25-5.32-.42,.62-.55,1.41-.31,2.15,.33,1.04,1.29,1.75,2.38,1.75,1.85,0,3.59-.76,5.27-2.13-2.1,4.6-4.34,9.13-6.74,13.58-1.61,2.99-3.2,6.09-5.21,8.85-2.55,2.05-5.3,3.88-8.23,5.43-1.87,.99-1.08,4.3,1.12,4.12,4.22-.35,7.29-2.8,9.76-5.94,1.06-.85,2.1-1.73,3.09-2.65,11.84-10.93,18.75-26.92,18.15-43.01,.7-1.57,1.41-3.19,2.13-4.85,2.13-4.92,4.15-9.57,5.4-11.07,.42-.51,1.17-1.31,1.94-1.48,2.83,6.65,15.88,40.05,4,64.23-.47,.96-.26,2.08,.43,2.81-.24,.23-.49,.47-.73,.7-10.95,10.78-40.36,21.55-40.36,21.55-39.23,18.06-21.71,48.52-21.71,48.52,16.49,11.35,38.74-24.54,38.74-24.54,7.5-12.85,27.97-24.14,37.19-28.74,.1,.2,.22,.4,.37,.57,.07,.08,1.63,1.85,4.09,4.95,.02,.13,.06,.26,.12,.4,1.74,3.87,3.22,7.91,4.62,11.92-.01,.04-.03,.07-.04,.11-.13,.44-.1,.96-.14,1.41-.07,.98-.09,1.96-.1,2.94-.03,1.8,0,3.6,0,5.4,0,1.15-.02,2.3-.03,3.45-25.06-5.65-47.96,4.11-66.36,28.34-14.14,18.62-20.56,38.91-20.83,39.77l-.51,1.62,1.32,1.07c21.54,17.36,34.73,21.33,35.28,21.49l.2,.05c6.21,1.26,11.91,1.8,17.12,1.8,15.26,0,26.29-4.62,33.43-9.18,9.92-6.32,14.58-13.69,15.21-14.75,10.14-14.23,13.79-27.87,10.84-40.52-2.59-11.11-9.68-18.99-15.24-23.68,.78-1.2,1.53-2.43,2.19-3.7,.07-.13,.1-.26,.13-.38,.29-.17,.59-.34,.89-.5,8.04,14.45,15.37,32.23,16.15,49.94-12.5,38.88-27.72,44.09-27.87,44.14-.3,.08-.59,.23-.84,.42-.11,.09-11.56,8.6-28.59,8.69-1.92-.39-14.22-2.88-23.37-4.14-.99-1.63-2.11-3.14-3.38-4.52-8.1-8.85-18.83-9.08-19.28-9.08-.53,0-1.01,.2-1.37,.53-1.84-2.18-4.66-4.27-8.74-6.17-5.47-2.55-10.76-4.12-15.78-4.96-.22-1.01-.42-2.03-.6-3.06-.81-4.78-1.48-9.58-2.21-14.36-.76-4.98-1.52-9.97-2.27-14.95-.74-4.89-1.34-9.81-2.69-14.58-.04-.13-.1-.22-.16-.32-.77-4.15-1.67-8.27-2.69-12.37-1.47-5.89-3.06-11.79-5.53-17.34-.72-1.61-3.08-.41-2.72,1.15,.83,3.65,1.83,7.26,2.82,10.88,.02,5.26,1.22,10.51,1.91,15.71,1.31,9.89,2.57,19.73,2.71,29.73,.07,4.98-.1,9.96-.57,14.91-.13,1.33-.29,2.66-.48,3.98-12.58,.86-22.17,6.16-26.3,11,.02-.08,.04-.16,.04-.24,.09-1.1-.73-2.07-1.83-2.16-2.68-.23-5.16-.18-7.48,.07,1.09-.37,2.21-.76,3.36-1.16,2.94-1.03,5.17-3.42,5.96-6.42,.67-2.53,.63-5.08-.11-7.57-.53-2.78-7.25-33.55-47.91-59.98-32.86-21.36-65.53-12.84-74.76-9.73-6.7,2.26-14.99,6.31-17,10.47-1.87,2.18-11.68,14.38-10.88,30.22,.53,10.64,5.72,20.46,15.42,29.2,1.75,1.77,26.57,25.95,73.03,25.94,4.12,0,8.43-.19,12.89-.61,1.29,0,8.28-.38,27.46-6.29-3.84,2.32-6.86,5.36-9.22,8.64-.43-.05-.91-.08-1.45-.11l-12.25-.65c-30.26-3.47-62.14,8.1-65.62,9.42-32.18,4.62-62.87-13.41-81.98-28.25-.22-2.7-.38-5.34-.47-7.94Zm185.25,8.92c-32.35,11.29-41.62,11.27-41.73,11.26h-.17s-.17,0-.17,0c-53.01,4.96-81.74-23.58-82.06-23.91l-.12-.11c-8.69-7.81-13.34-16.47-13.82-25.73-.78-15.04,9.77-26.87,9.87-26.98l.34-.37,.17-.47c.34-.96,4.32-4.62,14.11-7.93,8.69-2.94,39.46-10.95,70.43,9.18,39.77,25.85,45.69,56.51,45.74,56.81l.07,.31c.5,1.63,.54,3.3,.1,4.96-.37,1.38-1.4,2.5-2.77,2.97Zm-205.15-12.15c4.86,4.87,15.11,14.42,28.96,23.57,25.68,16.97,51.4,24.13,74.39,20.75,.18-.03,.36-.07,.54-.14,.33-.13,33.39-12.7,63.67-9.2,0,0,.36,.02,.96,.05,5.1,.27,8.25,.44,10.18,.54-4.11,7.81-5.21,15.53-5.37,16.91-.45,1.53-.75,3.11-.9,4.69-1.87,.16-3.75,.31-5.63,.45-46.83,3.7-96.34,.5-141.25-14.02-9.02-9.47-26.47-30.74-25.55-43.6Zm23.71,48.88s0,0,.01,.01c-3.5-1.17-6.62-2.9-9.38-4.98,2.33,.88,4.67,1.72,7.02,2.52,1.2,1.28,2.05,2.15,2.36,2.45Zm-22.45-10.38c.32,.14,.64,.29,.96,.43,5.4,6.98,12.93,13.28,23.21,15.63,1.52,.41,3.51,.26,4.55-1.36,.8-1.25,.62-2.62-.05-4.04,.11,.03,.21,.07,.32,.1,45.9,13.75,94.72,15.73,142.09,9.59-.02,.93,0,1.86,.09,2.78-27.84,6.57-56.57,10.56-85.35,11.49-9.79-10.23-16.41-4.81-19.82,.16-15.47-.26-30.9-1.45-46.16-3.61-.75-.77-12.3-12.81-19.84-31.18Zm16.21,34.62c.69,.93,1.14,1.64,1.44,2.17-.82-.19-1.82-.52-2.68-.88-.31-.14-.65-.21-.99-.21h-.04c-1.04,0-2.48-.81-4.18-2.21,2.13,.38,4.27,.74,6.41,1.08,.01,.01,.03,.03,.05,.05Zm-28.34-20.06c2.49,3.78,5.67,8.34,9.08,12.6-2.85-.6-5.69-1.24-8.52-1.92-.52-3.52-.71-7.08-.56-10.68Zm1.26,14.52c3.9,.97,7.82,1.87,11.75,2.7,4.42,4.86,8.91,8.56,12.54,8.9,2.69,1.1,7.04,2.33,9.03-.19,1.14-1.44,.95-3.17,.17-4.97,4.45,.61,8.91,1.13,13.37,1.55,9.26,.85,18.56,1.34,27.87,1.5-.38,.82-.57,1.35-.57,1.35-.09,8.55,5.35,14.37,11.51,18.2-21.21,4.45-42.57,7.37-63.4,8.08-12-11.74-19.44-24.15-22.27-37.13Zm38.9,57.03c-.05-.06-.09-.12-.14-.18,.07,.05,.14,.1,.21,.14-.02,.02-.05,.02-.07,.04Zm253.49,12.57c-11.85,1.46-17.03,1.76-22.04,2.06-1.35,.08-2.71,.16-4.18,.26-2.39,.17-6.71-.32-10.88-.79-6.04-.68-11.76-1.32-14.92-.57-2.67,.29-29.53,3.27-37.98,6.31-19.47,7-86.54,19.96-137.53-11.14-.11-.06-.22-.12-.33-.17-.19-.08-18.91-8.08-36.21-22.9-.74-.64-1.47-1.28-2.18-1.92,21.46-.71,43.4-3.91,65-8.84,6.11,2.71,11.52,3.7,11.52,3.7,92.22,23.91,148.75,5.33,160.78,.62,1.66-.65,3.46-.83,5.22-.53,63.46,10.74,80.97,3.12,83.96,1.39,.48-.28,1-.5,1.53-.69,6.03-2.22,10.43-4.86,13.62-7.64,9.57-8.33-2.89-22.86-12.74-14.86-2.59,2.1-4.47,4.17-5.43,5.31-.55,.66-1.2,1.24-1.91,1.73-30.66,20.81-65.8,9.16-78.8,3.57-3.04-1.31-6.54-1.02-9.29,.83-11.04,7.41-46.4,23.51-130.21,6.01-5.05-1.05-9.59-3.21-13.56-5.83,23.81-6.88,46.81-15.54,67.82-24.9,2.94,7.41,9.45,13.33,17.72,15.31l10,2.39c.07,.02,.15,.03,.22,.04,11.43,1.41,22.83,1.96,33.48,1.96,23.81,0,43.87-2.74,52.13-4.72,9.34-2.24,16.2-10.4,17.37-20.46,24.79,9.4,52.35,17.12,80.12,21.11-18.31,28.95-53.5,47.34-102.28,53.34Zm75.88-17.05s.07-.08,.11-.12c0,.04,0,.08-.01,.12-.03,0-.07,0-.1,0Z"/>
      <path class="cls-1" d="M318.64,508.76c-1.1,.84-1.31,2.4-.48,3.5,.49,.65,1.24,.99,1.99,.99,.53,0,1.06-.17,1.51-.51,11.85-9.02,10.28-28.48,10.21-29.31-.12-1.38-1.32-2.4-2.71-2.27-1.38,.12-2.39,1.33-2.27,2.71,.02,.17,1.42,17.52-8.25,24.89Z"/>
      <path class="cls-1" d="M296.21,473.67h-.03c-1.37,0-2.48,1.1-2.5,2.47-.01,1.24-.12,30.48,18.03,35.97,.24,.07,.49,.11,.72,.11,1.07,0,2.07-.7,2.39-1.78,.4-1.32-.35-2.72-1.67-3.12-14.57-4.4-14.48-30.86-14.48-31.13,.01-1.38-1.09-2.51-2.47-2.52Z"/>
      <path class="cls-1" d="M955.84,188.01c-9.88-25.68-26.37-46.06-51.95-64.18-20.69-13.79-43.17-21.67-65.01-22.79-24.02-1.23-46.15,6.02-63.98,20.96-.06,.05-.11,.1-.16,.15-2.55,2.55-4.86,5.11-7.09,7.6-2.14,2.38-4.35,4.83-6.74,7.23-2.34,1.58-4.52,3.28-6.64,4.94-3.32,2.6-6.45,5.05-9.89,6.77-7.8,3.9-9.5,4.39-17.63,6.71-1.33,.38-2.1,1.76-1.72,3.09,.38,1.33,1.76,2.09,3.09,1.72,8.3-2.37,10.27-2.94,18.49-7.05,3.88-1.94,7.36-4.67,10.73-7.3,2.1-1.64,4.27-3.34,6.54-4.85,.14-.09,.26-.2,.38-.31,2.55-2.55,4.86-5.11,7.09-7.6,2.17-2.41,4.41-4.9,6.83-7.33,2.75-2.3,5.55-4.36,8.4-6.23-1.04,1.8-1.95,3.68-2.73,5.61-2.98,6.56-4.72,13.61-3.83,20.72,0,1.42,.16,2.81,.62,4.09,3.3-.47,6.58-.39,9.47,.49,.49-.44,.8-1.07,.8-1.76,.01-4.01,1.29-7.83,2.97-11.43,1.63-3.51,3.48-6.93,5.51-10.23,4.07-6.61,9.01-12.58,14.17-18.37,.21-.24,.35-.48,.43-.73,18.21-4.08,36.97-1.91,54.24,3.86,0,0,0,0,0,0-.11,.09-.22,.19-.32,.33-1.34,1.98-2.54,4.09-3.4,6.33-3.59,4.66-2.93,10.63-4.35,16.12-1.27,4.89-3.78,9.43-7.18,13.16-3.48,3.8-7.69,6.56-12.5,8.35-.01,0-.02,0-.03,.01-1.33,.18-2.68,.33-3.94,.81-1.21,.46-2.21,1.26-2.83,2.23-.86,.99-1.38,2.25-1.49,3.55-.13,1.45,.47,2.95,1.45,4,1.17,1.26,2.92,1.72,4.58,1.37,.52-.11,1.03-.31,1.53-.54,1.07-.15,2.17-.49,3.1-.74,1.55-.42,3.06-.96,4.54-1.58,.61-.25,1.2-.53,1.79-.81,1.06-.3,2.08-.65,3.05-1.05,3.07-1.26,5.75-3.04,8.21-5.27,2.4-2.18,4.63-4.54,6.9-6.85,1.63-.88,3.25-1.77,4.86-2.69,4.23-2.42,8.01-5.33,11.92-8.22,3.78-2.79,7.75-4.87,12.36-5.88,1-.22,2.01-.37,3.03-.48,1.54,.08,3.1-.01,4.64-.15,1.82,.09,3.62,.37,5.44,.56,14.2,11.33,25.06,23.65,33.16,37.67-1.51,.04-3.08,.44-4.54,.76-1.68,.36-3.35,.72-5.03,1.06-3.33,.67-6.69,1.15-10.07,1.41-6.14,.48-12.27,.22-18.39-.46-6.01-.67-12-1.61-18.06-1.73-6.09-.12-12.11,.75-17.72,3.16-5.28,2.26-10.21,5.62-14.69,9.18-.23,.18-.39,.38-.52,.59-11.04-6.6-23.99-9.34-36.7-7.58-.05-4.83-.4-9.55,.63-14.33,.18-.83,.4-1.64,.66-2.44,3.16-4.86,6.86-9.42,10.77-13.61,2.57-2.76,5.53-5.16,8-8.01,2.46-2.84,4.13-6.09,3.44-9.92-.3-1.66-2.56-2.04-3.64-.96-6.05,6.02-12.14,12.02-18.88,17.28-3.2,2.5-6.69,4.51-9.96,6.89-1.52,1.1-2.96,2.42-4.07,3.93-1.58,.97-3.09,2.05-4.56,3.18,.47,1.09,.79,2.26,.93,3.48,.57,.16,1.12,.37,1.66,.59,1.06,1.22,2.21,2.28,3.13,3.64,.95,1.41,1.79,2.89,2.51,4.42,1.47,3.15,2.22,6.45,2.89,9.84,.17,.87,.89,1.2,1.59,1.12,.56,.42,1.29,.62,2.02,.46,16.21-3.45,33.3,1.33,45.65,12.72,.62,.62,1.16,1.27,1.67,1.9,1,1.22,2.04,2.48,3.58,3.36,9.02,9.16,14.74,22.32,17.01,39.14-.01,6.79-.7,14.61-5.56,21.41-4.02,5.8-8.35,11.57-13.37,16.66-.05,0-.09-.01-.14-.02-.79-.07-1.14,.58-1.07,1.22-5.23,5.08-11.19,9.39-18.29,12.23-9.43,3.7-18.57,3.77-27.4,1.64-.12-.05-.23-.11-.36-.17-.26-.1-.52-.13-.79-.12-13.12-3.46-25.54-11.69-37.15-20.04-.2-.63-.78-.97-1.42-1.02-1.3-.94-2.58-1.87-3.86-2.8l-1.64-1.2c-21.73-15.7-50.41-22.55-65.46-2.47-.15,.2-.27,.42-.35,.66-6.01,16.82,1.85,31.58,8.27,41.23,.02,.03,.05,.05,.07,.08,.96,2.53,2.2,4.94,4.14,6.86,.85,.84,1.83,1.52,2.83,2.17l4.19,4.19c1.66,2,3.13,4.05,4.54,6.02,2.73,3.81,5.56,7.75,9.69,11.2,13.93,11.78,29.79,17.77,44.87,22.48,.06,.02,.12,.04,.18,.05,14.38,3.32,30.6,6.32,48.21,6.32,9.91,0,20.26-.95,30.96-3.33,21.35-5.34,41.96-19.05,61.26-40.76,.15-.16,.27-.35,.37-.54,.41-.83,.68-1.62,.91-2.33,.41-1.22,.7-2.11,1.62-3.02,3.96-3.96,7.11-7.11,10.21-12.21l2.79-2.79c.12-.12,.24-.26,.33-.41,23.45-36.23,29-77.88,15.23-114.26Zm-75.9-71.55c-.03-.06-.07-.11-.1-.17,.75,.33,1.49,.67,2.23,1.01-.02,.02-.03,.04-.05,.06-.66-.35-1.36-.65-2.08-.9Zm66.91,63.41c-.06-.04-.11-.09-.18-.13-.22-.52-.44-1.04-.66-1.56,.28,.56,.57,1.12,.84,1.68Zm-67.65,21.02c3.31-.41,6.66-.17,9.96,.19,12.17,1.31,24.29,1.98,36.54,1.31,3-.17,6-.39,9-.72,2.8-.3,5.7-.63,8.51-.21,4.69,.69,8.87,3.65,11.53,7.52,.1,.14,.22,.25,.36,.33,.12,.27,.23,.54,.35,.81,.34,.78,.61,1.65,1.26,2.24,.11,.1,.23,.18,.35,.25,1.59,10.82,1.58,21.91,0,32.99-3.6-3.81-8.16-6.68-13.06-8.5-5-1.86-10.45-2.51-15.74-1.82-5.09,.66-10.09,2.32-15.22,2.64-1.84-.07-3.68-.14-5.45-.44-4.48-.77-8.06-3.61-11.72-6.14-3.71-2.57-7.29-5.35-10.32-8.71-2.59-2.87-4.62-6.18-6.6-9.49-1.9-3.77-4.1-7.22-6.58-10.34,.84-.37,1.68-.75,2.57-1,1.39-.4,2.83-.7,4.26-.88Zm-145.94,123.82c-1.19-1.66-2.42-3.37-3.78-5.09,.12-.11,.23-.23,.33-.38,2.42-3.34,4.12-7.11,5.42-11.01,2.56-7.7,3.47-16.43,5.98-24.39,.58-.75,1.17-1.49,1.76-2.22,2.42-2.97,5.01-5.85,7.87-8.41,2.53-2.26,5.33-4.15,8.23-5.91,3.33,1.82,6.37,3.75,8.97,5.63l1.64,1.19c1.16,.85,2.34,1.7,3.52,2.56-.49,1.56-.77,3.22-1.16,4.76-.65,2.56-1.45,5.1-2.48,7.54-1.89,4.46-4.88,8.48-5.77,13.33-.92,5-.75,10.22-.54,15.28,.08,1.84,.18,3.68,.29,5.51-.08,.84-.17,1.68-.27,2.51-.82,6.43-2.81,12.68-6.98,17.74-.27,.33-.45,.69-.55,1.07-4.7-2.66-9.27-5.74-13.62-9.43-3.66-3.05-6.17-6.56-8.84-10.28Zm38.93,27.34c.43-1.34,.6-2.75,.51-4.15,.14-.68,.2-1.38,.21-2.03,.04-3.25-.45-6.52-.89-9.73-.77-5.68-1.14-11.31-1.01-17.05,.07-2.92,.22-5.84,.36-8.77,.13-2.58,.21-5.18,.73-7.71,1.07-5.24,4.63-9.22,6.69-14.04,.91-2.14,1.58-4.46,1.56-6.8,9.84,6.83,20.24,13.13,31.24,16.46-.15,.28-.24,.6-.22,.93,.16,2.28,.8,4.52,1.51,6.68,.38,1.15,.74,2.38,1.35,3.42,.14,.24,.29,.47,.44,.69,.26,1.1,.52,2.2,.76,3.31,1,4.76,1.61,9.6,1.54,14.48-.07,4.87-1.24,9.38-2.31,14.1-.97,4.27-1.55,8.8-.07,13.03,.65,1.86,1.59,3.59,2.94,5.05,.52,.56,1.12,1.12,1.77,1.57,.09,.14,.18,.29,.27,.42,.06,.09,.13,.16,.2,.24-12.41-.97-24.02-3.23-34.62-5.67-4.28-1.34-8.62-2.79-12.96-4.44Zm89.76,7.42c-2.65,.59-5.28,1.09-7.89,1.5-.09-.24-.21-.48-.37-.67-.84-.99-1.97-1.32-3.08-1.93-.84-.46-1.66-.97-2.41-1.56-1.76-1.36-3.33-3.05-4.69-4.81-2.56-3.32-4.55-7.07-6.47-10.79-2.24-4.35-4.3-8.8-6.14-13.33-1.84-4.54-3.64-9.15-4.93-13.88-1.18-4.35-1.71-8.89-1.56-13.4,1.01,.06,2.01,.1,3.03,.1,5.84,0,11.84-1.05,18-3.47,2.68-1.07,5.2-2.34,7.59-3.75,.24,.44,.55,.87,.88,1.34,.79,1.16,1.57,2.34,2.33,3.51,1.44,2.23,2.84,4.49,4.2,6.77,4.72,7.95,8.43,16.48,14.34,23.67,2.7,3.28,5.73,6.25,9.08,8.86,1.71,1.33,3.48,2.55,5.3,3.72,1.54,.98,3.07,2.12,3.6,3.88-10.07,6.85-20.35,11.62-30.79,14.23Zm74.59-60.14l-.16,.16c-.72-.93-1.99-1.16-3.21-1.44-1.34-.31-2.7-.56-4.05-.83-2.65-.53-5.27-1.15-7.7-2.35-2.27-1.11-4.42-2.43-6.69-3.54-2.19-1.07-4.45-2.01-6.75-2.81-4.83-1.68-9.8-2.57-14.88-3.1-5.16-.54-10.28-1.16-15.34-2.34-2.52-.59-5.01-1.28-7.49-2.04-.54-.16-1.07-.34-1.6-.51,4.38-4.76,8.26-9.96,11.86-15.17,2.42-3.39,3.94-6.99,4.9-10.57,1.61-.52,3.2-1.09,4.86-1.47,1.98-.46,3.99-.81,6.01-1.03,7.59-.83,15.23-.34,22.84-.2,3.87,.07,7.74,.09,11.59-.24,0,0,.01,0,.02,0,.76,.21,1.52,.41,2.27,.62,1.95,.54,3.91,1.1,5.85,1.67,3.08,1.52,6.09,3.23,9.33,4.25,1.02,.78,2.05,1.59,3.13,2.28,.41,.68,.8,1.37,1.13,2.1,.16,.35,.39,.57,.66,.74-3.63,12.25-9.17,24.31-16.58,35.81Z"/>
      <path class="cls-1" d="M574.17,520.74c-.27-8.97-2.95-15.24-7.94-18.63-5.61-3.81-12.36-2.7-15.23-1.97-.28-.21-.56-.42-.86-.61-7.59-5.06-17.55-3.5-21.82-2.49-17.88-36.15,2.45-91.38,4.73-94.97,.84-.82,1-2.16,.33-3.17-.76-1.15-2.32-1.46-3.47-.69-1.29,.86-3.42,5.82-5.6,12.71l-3.28,1.46c-.29,.12-.57,.24-.86,.36-1.23,.05-2.51,.35-3.61,.57-1.72,.34-3.4,.87-5.03,1.51-3.36,1.33-6.44,3.11-9.27,5.36-2.79,2.22-5.22,4.88-7.22,7.83-1.72,2.55-4.63,7.42-.68,9.46,.18,.09,.36,.15,.54,.18,0,.02,0,.04-.01,.07-.11,.82,.61,1.62,1.29,1.92,.84,.37,1.62,.1,2.29-.43,3.83-3.07,7.74-6.05,11.66-9.01,.84-.61,1.66-1.23,2.48-1.87,.59-.44,1.17-.88,1.76-1.32,2.01-.88,4.08-1.64,6.2-2.27-.88,3.79-1.67,7.71-2.3,11.57-.03,.19-.06,.38-.09,.57-3.14,2.86-6.02,6.07-8.9,9.18-3.05,3.3-6.07,6.64-8.95,10.1-.29,.35-.48,.76-.55,1.19-.94,.57-1.83,1.21-2.33,2.19-.59,1.15,.15,2.32,1.4,2.43,.83,.07,1.63-.17,2.4-.56,.04-.02,.07-.04,.11-.06,.57-.3,1.13-.66,1.65-1.04,.12-.08,.24-.16,.36-.23,.55-.33,1.11-.63,1.69-.92,2.31-.25,4.55-1.02,6.5-2.27,1.52-.32,3.24-.31,4.68-.92-.43,11.13,.44,23.12,3.96,34.19-.21,.1-.41,.24-.59,.45-2.62,2.91-5.87,5.26-9.49,6.77-.92,.38-1.97,.6-2.8,1.17-1.21,.85-1.71,2.64-.56,3.78,.83,.83,2.27,.86,3.13,.05,.11-.1,.2-.22,.28-.35,1.37-.27,2.7-.71,3.97-1.3,1.13-.35,2.26-.68,3.39-1.03,1.35-.42,2.7-.82,4.04-1.26,.54-.18,1.08-.36,1.62-.57,.51,1.11,1.05,2.21,1.64,3.29,.58,1.07,1.84,1.57,2.98,1.19,.12-.04,11.84-3.81,19.56,1.33,4.01,2.67,6.31,7.43,6.84,14.14,0,.87-.04,12.13-6.82,17.74-3.16,2.62-7.44,3.63-12.72,3.07,2.86-6.01,1.86-13.62,1.81-13.98-1.16-10.77-4.42-17.26-9.68-19.29-6.81-2.62-13.79,3.49-14.08,3.75-1.03,.92-1.12,2.49-.21,3.52,.91,1.03,2.49,1.13,3.53,.22,1.38-1.22,5.7-4.09,8.98-2.82,3.27,1.27,5.57,6.65,6.5,15.23,.01,.1,1.3,10.41-3.62,14.11-3.64,2.74-9.86,.9-14.44-1.14-1.26-.56-2.74,0-3.3,1.27-.56,1.26,0,2.74,1.27,3.3,4.44,1.97,8.36,2.96,11.73,2.96,3.03,0,5.62-.8,7.75-2.4,.09-.06,.16-.13,.25-.2,2.19,.41,4.27,.63,6.23,.63,2.72,0,5.22-.41,7.49-1.2,3.07,.9,5.96,1.38,8.63,1.38,4.11,0,7.73-1.07,10.82-3.21,9.04-6.26,9.83-19.3,9.85-19.85,0-.07,0-.14,0-.21Zm-52.68-26c.08-.11,.14-.22,.22-.33,.03,.09,.07,.17,.1,.26-.11,.03-.21,.05-.32,.08Zm39.95,41.95c-2.73,1.88-6.16,2.58-10.21,2.15,8.23-7.49,7.98-20.62,7.96-21.19,0-.04,0-.08,0-.12-.41-5.28-1.77-9.64-4.07-13.03,2.46-.23,5.66-.05,8.32,1.77,3.56,2.43,5.48,7.31,5.72,14.51-.08,1.07-1.04,11.32-7.72,15.93Z"/>
      <path class="cls-1" d="M771.48,156.88c-136.29,30.85-255.11,14.2-302.6,4.91,4.19,6.47,7.92,13.19,11.1,20.2,1.27,2.04,2.48,4.12,3.66,6.24,2.85,5.16,5.33,10.5,7.32,15.99,80.42,11.65,283.61,1.2,283.61,1.2,24.79,.18,17.48-14.51,17.48-14.51,18.07-17.11-3.03-23.22-3.03-23.22,1.16-17.24-17.55-10.82-17.55-10.82Z"/>
      <path class="cls-1" d="M733.23,340.71c-.37-.15-.74-.34-1.11-.61-1.01-.72-1.96-1.49-2.88-2.28-2.92,5.14-5.83,12.73-4.91,21.72,0,0,9.21,30.25,10.06,35.73,3.48,22.45,1.55,100.33-23.61,172l-10.45,33.55h78.97c4.26-17.03-41.42-37.48-41.42-37.48,4.89-136.37,38.69-179.7,58.47-193.42-17.87-3.54-35.73-8.53-50.95-18.71-4.48-3-8.5-6.55-12.15-10.49Z"/>
      <path class="cls-1" d="M479.39,157.43c11.57-2.11,20.59-12.73,22.44-24.1,.13-.83-.09-1.66-.86-2.11-.66-.38-1.75-.34-2.26,.29-6.06,7.57-14.21,13.44-23.28,16.82-5.02,.16-10,.28-14.18,3.59-1.34,1.07-.24,3.63,1.43,3.46,2.2-.23,4.38-.6,6.53-1.08,1.55,.26,3.13,.35,4.69,.5,1.28,.12,2.46,.35,3.66,.02,.06,.17,.15,.32,.25,.46-.57,.94,.17,2.39,1.57,2.14Z"/>
      <path class="cls-1" d="M509.96,438.59c1.49-1.31-.68-3.45-2.17-2.17-4.57,3.93-9.08,7.93-13.5,12.02-.12,.11-.24,.22-.36,.33-.02,1.6,.1,3.2,.3,4.79,.85-.88,1.7-1.76,2.56-2.62,4.27-4.25,8.65-8.37,13.17-12.35Z"/>
      <path class="cls-1" d="M492.91,496.08c-.21-1.19-.39-2.39-.56-3.58-.31-2.22-.56-4.45-.91-6.67-.37-2.39-1.11-4.79-1.18-7.21,0-.26,.06-.48,.16-.66-.81-6.87-1.45-13.47-1.95-19.77-.97-4.26-1.33-8.62-.84-12.97-.98-19.59-.44-34.89,.82-42.98,.85-5.48,10.06-35.73,10.06-35.73,.98-9.6-1.57-17.58-3.96-22.7-1.29,1.92-2.74,3.74-4.22,5.43-2.37,2.71-5.09,5.39-8.12,7.56l-6.02,13.11c5.01,2.24,4.55,11.98,3.22,16.78-.55,1.99-1.3,3.9-2.19,5.76-1.31,4.24-3.44,8.23-6,11.85-1.2,1.69-2.49,3.32-3.84,4.88-2.4,4.36-5.15,8.53-8.58,12.08,6.32,14.25,12.1,32.39,16.66,56.02,.4,.93,.65,1.94,.9,2.88,.63,2.4,1.04,4.87,1.44,7.32,.75,4.57,1.45,9.09,1.57,13.72,2.7,19.7,4.66,42.52,5.61,69.11,0,0-45.68,20.45-36.64,30.51h78.97l-15.23-26.57c-9.21-26.23-15.3-53.29-19.16-78.17Z"/>
      <path class="cls-1" d="M499.32,495.2s.05-.01,.07-.02c.01,0,.03,0,.04,0,.16,.05,.33,.08,.51,.09,.43,.02,.85-.14,1.19-.4,.62-.13,1.24-.29,1.85-.48,.27-.08,.49-.23,.68-.4,2.41-.5,4.73-1.26,6.98-2.35,.82-.4,1.12-1.45,.93-2.28-.19-.85-1.09-1.49-1.95-1.48-.65,0-1.3-.03-1.95-.1-.04,0-.05,0-.06,0-.02,0-.06-.01-.12-.02-.14-.02-.27-.05-.41-.07-.34-.06-.67-.14-1-.22-.6-.15-1.19-.34-1.77-.56-.16-.06-.32-.12-.48-.19,0,0-.01,0-.02,0-.02,0-.04-.02-.07-.03-.28-.13-.56-.26-.84-.4-.58-.3-1.14-.63-1.68-1-.54-.37-.69-.47-1.23-.95-.95-.84-1.83-1.75-2.68-2.68-.04-.04-.08-.07-.11-.1,.25,1.28,.56,2.56,.75,3.82,.33,2.15,.58,4.31,.88,6.47,.15,1.12,.32,2.25,.51,3.38Z"/>
      <path class="cls-1" d="M511.76,269.84c4.07,2.24,5.79,6.14,6.61,10.47,30.7-13.92,57.59-34.66,77.91-63.43-23.14-.31-47.46-1-72.5-2.22-.79-.78-2.22-.72-3.19-.15-6.28-.31-12.63-.69-19.01-1.08,1.85,4.78,1.54,10.16,1.53,15.29,0,1.34-.04,2.68-.09,4.02,.61-.18,1.25-.29,1.93-.29h.52c3.17,0,5.9,2.21,6.81,5.19,2.17,7.11,1.77,16.38,.99,23.73-.31,2.89-.83,5.7-1.51,8.46Z"/>
      <path class="cls-1" d="M721.69,371.83c-5.84-11.61-3.04-30.97,3.21-39.34,.22-.3,.46-.56,.71-.79,.21-.35,.43-.69,.66-1.02-.03-.04-.05-.08-.08-.12-.41-.42-.81-.85-1.22-1.27-7.92-7.52-14.55-16.65-20.22-25.74-5.88-9.43-11.37-20.65-8.63-32.04,2.04-8.47,7.99-13.55,15.03-17.32,2.97-2.17,6.31-3.86,9.88-4.96,13.56-4.17,28.15,.07,40.03,6.92,7.64,4.41,14.99,9.51,22.18,14.61,7.47,5.31,15.02,11.22,23.7,14.41,.74,.27,1.34,.66,1.83,1.12,0,0,0-.01,.01-.02,.35-.23,.66-.54,.86-.94,19.37-37.78-8.76-73.57-9.05-73.93-.53-.66-1.34-1-2.18-.93-1.11,.1-86.11,7.89-200.2,6.45-19.08,30.33-46.71,53.03-79.27,67.63,.09,1,.16,2.01,.22,3,.34,5.72,.05,11.48-.93,17.13,14.88-3.25,29.57-7.69,43.63-13.45,6.11-2.65,13.47-6,19.4-9.12,4.38-2.16,8.83-4.96,13.11-7.33,2.48-1.55,8.4-5.38,10.86-6.95,1.35-.96,3.91-2.83,5.23-3.77,1.88-1.39,5.15-3.55,6.95-5.08,1.98-1.65,8.11-6.39,10.04-8.14,2.3-2.08,7.35-6.57,9.67-8.62-26.52,28.53-60.97,50.09-98.4,61.25-6.99,2.12-14.12,3.92-21.36,5.42-.54,2.26-1.19,4.5-1.97,6.7-2.14,6.04-4.94,12.09-8.38,17.79,14.93,1.22,29.75,1.34,44.11,0,8.32-10.24,18.75-19.03,28.85-27.47,9.95-8.33,22.23-17.86,35.95-17.19,1.11,.05,2.08,.32,2.91,.73,8.58,0,17.2,5.98,23.76,10.64,8.37,5.94,16.85,11.44,25.48,17.02,9.47,6.12,19.03,13.47,23.99,23.91,4.98,10.51,6.21,23.8,.77,34.38-1.14,2.22-2.56,4.23-4.16,6.09,1.04-.14,2.09-.28,3.13-.42,6.24-1.27,12.42-2.81,18.51-4.68,3.81-1.46,7.6-2.99,11.38-4.56Zm-175.71-43.44c-.01-.17-.04-.33-.09-.49,.32-.39,.66-.78,.98-1.17-.3,.55-.59,1.11-.89,1.66Z"/>
      <path class="cls-1" d="M504.6,337.15c-.29,.43-.58,.88-.88,1.3,5.78,13.56,7.81,28.87,4.92,43.23,7.63,3.51,15.4,6.33,23.74,8.27,4.14,.97,8.31,1.82,12.48,2.64-4.33-5.65-7.33-12.2-8.12-19.7-1.36-12.84,3.99-25.3,11.41-35.59-14.18,1.32-28.82,1.17-43.53-.15Z"/>
      <path class="cls-1" d="M625.12,299.77c-4.09-2.14-8.62-3.28-13.24-3.32-1.42-.01-2.82,.36-4.04,1.08-6.94,4.08-31.37,18.91-47.42,34.78,14.91-2.09,29.21-5.87,42.48-11.77,7.44-3.31,14.63-7.32,21.25-12.11,2.26-1.53,4.39-3.25,6.56-4.93-7.96,7.53-17.14,13.79-26.96,18.8-14.53,7.23-30.48,11.73-47.19,14.03-3.95,4.37-7.13,8.75-8.97,12.96,0,0-12.98,27.19,7.68,44.57,.92,.78,1.89,1.49,2.88,2.18,4.88,3.41,48.29,37.96,35.13,180.19h2.57c-16.83,2.12-28.18,24.57-28.18,24.57l90.84-1.74c-5.42-15.29-28.89-22.83-28.89-22.83,1.53-151.6,27.11-177.32,35.07-181.65,3.09-1.68,6.03-3.65,8.58-6.06,20.23-19.13,12.87-39.13,12.87-39.13-3.99-18.17-44.96-41.22-61.01-49.62Z"/>
    </g>
  </g>
</svg>